# Blender v2.79 (sub 0) OBJ File: ''
# www.blender.org
mtllib 11586_link_0_0.mtl
o Shape_IndexedFaceSet_Shape_IndexedFaceSet.10094
v 0.551048 -0.206907 0.651955
v -0.535649 -0.171717 -0.233584
v -0.535319 -0.136513 -0.233303
v -0.583024 -0.156486 0.663861
v -0.536992 -0.254458 0.599779
v 0.538741 -0.251934 -0.196313
v 0.548983 -0.132247 -0.207676
v 0.546613 -0.132501 0.639622
v -0.568808 -0.252005 -0.171670
v 0.529731 -0.255300 0.600141
v -0.561604 -0.132436 0.630193
v 0.572936 -0.156518 -0.229531
v -0.534800 -0.129483 0.065930
v -0.593105 -0.151442 -0.214786
v -0.570418 -0.242117 0.631742
v -0.522513 -0.255043 -0.179231
v 0.579757 -0.171612 0.649397
v 0.519781 -0.129558 0.372513
v 0.563172 -0.242304 -0.159111
v 0.524135 -0.255214 -0.175436
v 0.555397 -0.247085 0.626347
v 0.572660 -0.146461 0.658126
v -0.593653 -0.181741 0.638936
v -0.534247 -0.252064 -0.197208
v 0.551089 -0.186823 -0.228191
v 0.520961 -0.129418 0.032120
v -0.562023 -0.161582 0.668337
v -0.492112 -0.132367 -0.183358
v -0.552077 -0.251818 0.629271
v -0.577821 -0.242327 -0.179458
v 0.516320 -0.136469 -0.233661
v -0.532690 -0.136789 0.654820
v -0.533168 -0.129676 0.353114
v 0.578742 -0.151440 -0.214805
v -0.592789 -0.151464 0.643355
v -0.421017 -0.255141 0.608907
v 0.550016 -0.186832 0.661179
v -0.570379 -0.136526 -0.222981
v -0.565095 -0.186826 0.661641
v -0.593410 -0.176691 -0.215011
v 0.579456 -0.176667 -0.215331
v 0.535067 -0.141632 0.661262
v 0.555350 -0.252105 -0.182436
v -0.578257 -0.237311 0.618652
v 0.557043 -0.131905 0.389159
v 0.541031 -0.247155 0.631801
v -0.555468 -0.232066 -0.208042
v 0.527655 -0.166619 -0.234737
v 0.535705 -0.255428 0.488387
v -0.577873 -0.136772 0.634862
v 0.579068 -0.181732 0.618607
v -0.538060 -0.255159 -0.175093
v -0.567783 -0.251895 0.609803
v 0.563457 -0.232227 0.633496
v -0.567604 -0.156503 -0.234841
v 0.564490 -0.136675 -0.211774
v 0.579079 -0.151417 0.643939
v 0.553858 -0.251945 0.600122
v -0.565779 -0.186820 -0.228343
v 0.564392 -0.136685 0.645544
v -0.501274 -0.132552 0.644278
v 0.367701 -0.255141 0.608907
v 0.534686 -0.231965 -0.207061
v 0.490752 -0.132679 0.643361
vn 0.0005 0.9274 0.3741
vn 0.0004 -0.9879 -0.1549
vn -0.6888 -0.3413 0.6396
vn 0.0003 -0.9865 -0.1636
vn -0.0000 1.0000 0.0004
vn -0.0020 0.9967 -0.0810
vn -0.0004 0.9999 -0.0118
vn -0.0004 0.9999 -0.0116
vn -0.3811 -0.7685 -0.5140
vn -0.0001 0.9871 -0.1603
vn -0.0533 0.5259 0.8489
vn -0.0854 0.9963 0.0012
vn -0.0001 1.0000 0.0007
vn -0.9996 0.0285 0.0004
vn -0.9057 -0.0358 0.4225
vn -0.0124 -0.9965 0.0829
vn 0.4408 -0.1808 0.8792
vn -0.1710 0.9853 -0.0030
vn -0.0197 0.9976 -0.0657
vn -0.0435 0.9989 -0.0190
vn -0.5236 -0.3657 0.7695
vn -0.2539 -0.2190 0.9421
vn -0.1263 -0.4624 0.8776
vn -0.0003 -0.4459 0.8951
vn 0.0004 -0.4175 0.9087
vn 0.0004 -0.2564 0.9666
vn -0.9999 0.0121 -0.0002
vn -0.9727 -0.2319 -0.0016
vn 0.4923 -0.3893 -0.7785
vn 0.4977 -0.4557 -0.7380
vn 0.9257 0.0340 -0.3767
vn 0.9996 0.0283 -0.0005
vn -0.0031 0.4815 0.8764
vn 0.0865 0.0268 0.9959
vn 0.0064 0.0003 1.0000
vn 0.0757 -0.9918 -0.1029
vn 0.5614 -0.4749 -0.6777
vn 0.9191 -0.3618 -0.1562
vn -0.8503 -0.3716 0.3727
vn -0.9636 -0.2674 0.0012
vn 0.0607 0.9981 0.0049
vn 0.0858 0.9963 -0.0017
vn 0.0626 0.9980 0.0006
vn 0.0878 -0.9718 0.2187
vn -0.0002 -0.4477 0.8942
vn 0.0008 -0.4757 -0.8796
vn -0.3928 -0.7240 -0.5671
vn -0.5942 -0.4876 -0.6397
vn 0.0004 -0.3078 -0.9515
vn 0.1455 -0.1482 -0.9782
vn 0.0980 0.0723 -0.9926
vn -0.0002 -1.0000 0.0011
vn 0.0987 -0.9951 -0.0020
vn -0.2290 0.8235 0.5191
vn -0.1498 0.9284 0.3400
vn -0.5017 0.7542 0.4236
vn -0.7017 0.7125 0.0003
vn -0.2581 0.9661 -0.0020
vn -0.5499 0.8352 -0.0046
vn 0.9704 -0.2416 -0.0010
vn 0.9977 -0.0681 0.0001
vn -0.0001 -0.9996 -0.0283
vn -0.1181 -0.9804 -0.1576
vn -0.0309 -0.9891 -0.1438
vn -0.0060 -1.0000 0.0009
vn -0.0001 -1.0000 -0.0003
vn -0.0003 -1.0000 0.0001
vn -0.0647 -0.9963 0.0561
vn -0.4060 -0.8519 0.3309
vn -0.7322 -0.6811 0.0011
vn -0.7337 -0.6490 0.2011
vn -0.8113 -0.5846 0.0032
vn -0.0826 -0.9966 0.0010
vn -0.1020 -0.9948 0.0003
vn 0.4918 -0.3425 0.8005
vn 0.4922 -0.3423 0.8003
vn 0.3008 -0.5411 0.7854
vn 0.2584 -0.4832 0.8365
vn 0.9587 -0.2760 0.0693
vn 0.9557 -0.2945 0.0034
vn -0.0003 0.0773 -0.9970
vn -0.2497 0.4684 -0.8475
vn -0.5241 0.3797 -0.7623
vn -0.6163 0.0145 -0.7874
vn -0.0007 -0.0838 -0.9965
vn 0.0004 0.0358 -0.9994
vn 0.1672 0.9181 -0.3593
vn 0.2963 0.7038 -0.6456
vn 0.5893 0.6634 -0.4611
vn 0.2735 0.9619 -0.0042
vn 0.9196 0.1310 0.3703
vn 0.9994 0.0334 -0.0004
vn 0.7195 0.6945 -0.0003
vn 0.1358 -0.9755 0.1728
vn 0.7797 -0.6261 0.0016
vn 0.1377 -0.9904 0.0085
vn 0.1851 -0.9827 0.0006
vn 0.8955 -0.4450 0.0053
vn 0.8701 -0.4912 0.0400
vn 0.0001 -0.3281 -0.9447
vn 0.0001 -0.4093 -0.9124
vn -0.5163 -0.4458 -0.7313
vn -0.4864 -0.2110 -0.8479
vn -0.0630 -0.2128 -0.9751
vn 0.0728 0.9044 0.4204
vn 0.1514 0.8263 0.5425
vn 0.2254 0.9742 0.0117
vn 0.5435 0.8394 0.0001
vn 0.7082 0.7060 0.0001
vn 0.7103 0.6997 0.0769
vn 0.0000 0.9999 0.0110
vn -0.0526 0.9710 0.2334
vn -0.0004 1.0000 0.0099
vn -0.0003 1.0000 0.0099
vn 0.0000 -0.9998 0.0181
vn 0.0000 -0.9869 0.1611
vn 0.0123 -0.9694 0.2450
vn 0.0034 -0.9518 0.3066
vn 0.1095 -0.4538 -0.8844
vn 0.0008 -0.4738 -0.8806
vn 0.0009 -0.4242 -0.9056
vn 0.0238 0.9165 0.3994
vn 0.0014 0.8957 0.4446
vn 0.0002 0.9987 0.0502
usemtl Shape.10102
s off
f 61//1 32//1 64//1
f 16//2 6//2 20//2
f 15//3 4//3 23//3
f 6//4 16//4 24//4
f 13//5 18//5 26//5
f 7//6 3//6 28//6
f 26//7 7//7 28//7
f 13//8 26//8 28//8
f 24//9 9//9 30//9
f 3//10 7//10 31//10
f 4//11 27//11 32//11
f 13//12 11//12 33//12
f 18//13 13//13 33//13
f 14//14 23//14 35//14
f 23//15 4//15 35//15
f 29//16 5//16 36//16
f 17//17 22//17 37//17
f 11//18 13//18 38//18
f 28//19 3//19 38//19
f 13//20 28//20 38//20
f 4//21 15//21 39//21
f 27//22 4//22 39//22
f 15//23 29//23 39//23
f 29//24 1//24 39//24
f 1//25 37//25 39//25
f 37//26 27//26 39//26
f 23//27 14//27 40//27
f 30//28 23//28 40//28
f 25//29 12//29 41//29
f 6//30 25//30 41//30
f 12//31 34//31 41//31
f 34//32 17//32 41//32
f 32//33 27//33 42//33
f 37//34 22//34 42//34
f 27//35 37//35 42//35
f 20//36 6//36 43//36
f 6//37 41//37 43//37
f 41//38 19//38 43//38
f 15//39 23//39 44//39
f 23//40 30//40 44//40
f 18//41 8//41 45//41
f 7//42 26//42 45//42
f 26//43 18//43 45//43
f 10//44 21//44 46//44
f 1//45 29//45 46//45
f 6//46 24//46 47//46
f 24//47 30//47 47//47
f 30//48 40//48 47//48
f 25//49 2//49 48//49
f 12//50 25//50 48//50
f 31//51 12//51 48//51
f 10//52 36//52 49//52
f 20//53 43//53 49//53
f 4//54 32//54 50//54
f 32//55 11//55 50//55
f 35//56 4//56 50//56
f 14//57 35//57 50//57
f 11//58 38//58 50//58
f 38//59 14//59 50//59
f 19//60 41//60 51//60
f 41//61 17//61 51//61
f 16//62 20//62 52//62
f 9//63 24//63 52//63
f 24//64 16//64 52//64
f 36//65 5//65 52//65
f 20//66 49//66 52//66
f 49//67 36//67 52//67
f 5//68 29//68 53//68
f 29//69 15//69 53//69
f 30//70 9//70 53//70
f 15//71 44//71 53//71
f 44//72 30//72 53//72
f 52//73 5//73 53//73
f 9//74 52//74 53//74
f 37//75 1//75 54//75
f 17//76 37//76 54//76
f 46//77 21//77 54//77
f 1//78 46//78 54//78
f 51//79 17//79 54//79
f 19//80 51//80 54//80
f 3//81 31//81 55//81
f 38//82 3//82 55//82
f 14//83 38//83 55//83
f 40//84 14//84 55//84
f 48//85 2//85 55//85
f 31//86 48//86 55//86
f 31//87 7//87 56//87
f 12//88 31//88 56//88
f 34//89 12//89 56//89
f 7//90 45//90 56//90
f 22//91 17//91 57//91
f 17//92 34//92 57//92
f 34//93 56//93 57//93
f 21//94 10//94 58//94
f 43//95 19//95 58//95
f 10//96 49//96 58//96
f 49//97 43//97 58//97
f 19//98 54//98 58//98
f 54//99 21//99 58//99
f 2//100 25//100 59//100
f 25//101 47//101 59//101
f 47//102 40//102 59//102
f 40//103 55//103 59//103
f 55//104 2//104 59//104
f 8//105 42//105 60//105
f 42//106 22//106 60//106
f 45//107 8//107 60//107
f 56//108 45//108 60//108
f 57//109 56//109 60//109
f 22//110 57//110 60//110
f 8//111 18//111 61//111
f 11//112 32//112 61//112
f 33//113 11//113 61//113
f 18//114 33//114 61//114
f 36//115 10//115 62//115
f 29//116 36//116 62//116
f 10//117 46//117 62//117
f 46//118 29//118 62//118
f 25//119 6//119 63//119
f 6//120 47//120 63//120
f 47//121 25//121 63//121
f 42//122 8//122 64//122
f 32//123 42//123 64//123
f 8//124 61//124 64//124
