# Blender v2.79 (sub 0) OBJ File: ''
# www.blender.org
mtllib 11586_link_1_4.mtl
o Shape_IndexedFaceSet.004_Shape_IndexedFaceSet.834
v -0.524761 0.684685 -0.479111
v -0.536309 0.188378 -0.298269
v -0.536309 0.203764 -0.302146
v -0.594015 0.680838 -0.471411
v -0.582466 0.184531 -0.344471
v -0.590165 0.684685 -0.432927
v -0.517062 0.703866 -0.436786
v -0.517062 0.196071 -0.348312
v -0.594015 0.184531 -0.305987
v -0.517062 0.180633 -0.313687
v -0.586316 0.188378 -0.298269
v -0.582466 0.653861 -0.471411
v -0.594015 0.180633 -0.336771
v -0.517062 0.669299 -0.475270
v -0.594015 0.703866 -0.456010
v -0.582466 0.692378 -0.432927
v -0.517808 0.702640 -0.473591
v -0.586316 0.700071 -0.479093
v -0.570925 0.207611 -0.352171
v -0.582466 0.711663 -0.440627
v -0.517062 0.619294 -0.413703
v -0.517062 0.180633 -0.340629
v -0.590165 0.246076 -0.359854
v -0.517062 0.196071 -0.313687
v -0.559376 0.607702 -0.409844
v -0.594015 0.700071 -0.444468
v -0.586316 0.180633 -0.298269
v -0.586316 0.669299 -0.475252
v -0.582466 0.276848 -0.321388
v -0.594015 0.280695 -0.329070
v -0.536309 0.711663 -0.440627
v -0.578624 0.307672 -0.379096
v -0.524761 0.692378 -0.432927
v -0.517707 0.707212 -0.462453
v -0.590165 0.211457 -0.305987
v -0.586316 0.211457 -0.352171
v -0.536309 0.180633 -0.298269
v -0.532467 0.196071 -0.302146
vn 0.5891 0.1858 0.7864
vn 1.0000 0.0000 0.0000
vn 0.0000 0.2443 0.9697
vn -1.0000 0.0000 0.0000
vn -0.0001 -0.2422 -0.9702
vn -0.2514 0.2516 0.9346
vn 0.5308 0.0545 -0.8458
vn 0.9995 0.0234 -0.0210
vn -0.9116 0.2285 -0.3416
vn 0.0671 0.2694 -0.9607
vn 0.0001 -0.3165 -0.9486
vn 0.0137 -0.2591 -0.9658
vn -0.0103 0.3708 0.9287
vn -0.3474 0.3477 0.8709
vn -0.2917 0.9235 -0.2491
vn 0.3263 0.2309 0.9166
vn 0.0260 -0.4454 -0.8950
vn -0.0241 -0.8769 -0.4800
vn 0.0000 -1.0000 0.0000
vn -0.8080 -0.1531 -0.5689
vn 0.6252 0.0000 0.7805
vn -0.6079 0.3735 0.7007
vn -0.7265 0.6527 0.2146
vn -0.7080 0.0000 0.7062
vn 0.0000 0.0000 1.0000
vn -0.5320 -0.8401 0.1064
vn -0.0005 -0.2415 -0.9704
vn -0.0312 -0.1238 -0.9918
vn -0.5627 -0.1024 -0.8203
vn -0.6545 -0.1934 -0.7310
vn -0.0028 0.2529 0.9675
vn -0.1558 0.2561 0.9540
vn 0.0056 0.2579 0.9662
vn -0.0148 0.2592 0.9657
vn -0.8775 0.1272 0.4623
vn 0.0000 0.4419 0.8971
vn 0.0038 -0.2576 -0.9662
vn 0.0123 -0.2589 -0.9658
vn -0.0722 -0.2577 -0.9635
vn 0.0000 0.3184 0.9479
vn 0.0346 0.2576 0.9656
vn 0.0903 0.2622 0.9608
vn 0.0124 0.2583 0.9660
vn 0.0000 0.2630 0.9648
vn 0.9993 0.0297 -0.0212
vn -0.0042 0.9251 -0.3797
vn -0.0304 0.9579 -0.2856
vn 0.3538 0.9286 0.1122
vn 0.0000 0.9798 -0.1998
vn -0.7296 0.1043 0.6758
vn -0.3578 0.2419 0.9019
vn -0.8527 0.1219 0.5079
vn -0.7493 0.1716 0.6396
vn -0.4552 -0.3044 -0.8368
vn -0.0709 -0.2836 -0.9563
vn -0.5924 -0.2368 -0.7701
vn -0.3773 -0.2404 -0.8944
vn -0.0660 -0.2640 -0.9623
vn -0.1319 -0.2573 -0.9573
vn 0.4503 0.2122 0.8673
vn 0.5964 0.1033 0.7960
usemtl Shape.834
s off
f 24//1 21//1 38//1
f 8//2 7//2 10//2
f 2//3 3//3 11//3
f 9//4 4//4 13//4
f 7//2 8//2 14//2
f 12//5 1//5 14//5
f 4//4 9//4 15//4
f 6//6 11//6 16//6
f 14//7 1//7 17//7
f 7//8 14//8 17//8
f 4//9 15//9 18//9
f 17//10 1//10 18//10
f 8//11 5//11 19//11
f 14//12 8//12 19//12
f 16//13 7//13 20//13
f 6//14 16//14 20//14
f 18//15 15//15 20//15
f 3//16 2//16 21//16
f 10//2 7//2 21//2
f 5//17 8//17 22//17
f 8//2 10//2 22//2
f 13//18 5//18 22//18
f 10//19 13//19 22//19
f 13//20 4//20 23//20
f 2//21 10//21 24//21
f 10//2 21//2 24//2
f 15//4 9//4 26//4
f 6//22 20//22 26//22
f 20//23 15//23 26//23
f 11//24 9//24 27//24
f 2//25 11//25 27//25
f 9//26 13//26 27//26
f 13//19 10//19 27//19
f 1//27 12//27 28//27
f 18//28 1//28 28//28
f 4//29 18//29 28//29
f 23//30 4//30 28//30
f 11//31 3//31 29//31
f 16//32 11//32 29//32
f 3//33 25//33 29//33
f 25//34 16//34 29//34
f 6//35 26//35 30//35
f 26//4 9//4 30//4
f 20//36 7//36 31//36
f 12//37 14//37 32//37
f 14//38 19//38 32//38
f 28//39 12//39 32//39
f 7//40 16//40 33//40
f 3//41 21//41 33//41
f 21//42 7//42 33//42
f 25//43 3//43 33//43
f 16//44 25//44 33//44
f 7//45 17//45 34//45
f 17//46 18//46 34//46
f 18//47 20//47 34//47
f 31//48 7//48 34//48
f 20//49 31//49 34//49
f 9//50 11//50 35//50
f 11//51 6//51 35//51
f 30//52 9//52 35//52
f 6//53 30//53 35//53
f 5//54 13//54 36//54
f 19//55 5//55 36//55
f 13//56 23//56 36//56
f 23//57 28//57 36//57
f 32//58 19//58 36//58
f 28//59 32//59 36//59
f 10//21 2//21 37//21
f 2//25 27//25 37//25
f 27//19 10//19 37//19
f 21//60 2//60 38//60
f 2//61 24//61 38//61
