# Blender v2.79 (sub 0) OBJ File: ''
# www.blender.org
mtllib 11586_link_1_6.mtl
o Shape_IndexedFaceSet.006_Shape_IndexedFaceSet.836
v 0.090977 0.196090 -0.348321
v 0.575345 0.592577 -0.443277
v 0.075142 0.597343 -0.420296
v 0.568054 0.188402 -0.298269
v 0.571929 0.184538 -0.344449
v 0.090977 0.584629 -0.452176
v 0.090977 0.192225 -0.313682
v 0.568054 0.569212 -0.448319
v 0.552651 0.592316 -0.406011
v 0.525719 0.203778 -0.302141
v 0.090977 0.180714 -0.340607
v 0.579631 0.184538 -0.302141
v 0.571929 0.596221 -0.452161
v 0.090977 0.226882 -0.321381
v 0.575756 0.596221 -0.409853
v 0.521892 0.180714 -0.298269
v 0.090977 0.596221 -0.452176
v 0.579631 0.507669 -0.425236
v 0.090977 0.180714 -0.313682
v 0.568054 0.196090 -0.348306
v 0.575756 0.180714 -0.340607
v 0.094804 0.338456 -0.386771
v 0.529594 0.276873 -0.321366
v 0.579631 0.542285 -0.398297
v 0.579631 0.246121 -0.356005
v 0.090977 0.569212 -0.448319
v 0.564228 0.453814 -0.417537
v 0.521892 0.188402 -0.298269
v 0.571929 0.588452 -0.452161
v 0.568054 0.592316 -0.406011
v 0.525719 0.561525 -0.398297
v 0.575756 0.284601 -0.325223
v 0.156370 0.184538 -0.309825
v 0.575756 0.576941 -0.448319
v 0.194879 0.184538 -0.344464
v 0.571929 0.180714 -0.298269
v 0.560353 0.334592 -0.336749
v 0.564228 0.584629 -0.452161
v 0.564228 0.296112 -0.375230
vn 0.0004 -0.2591 -0.9658
vn -0.9907 -0.0609 -0.1213
vn -0.7156 0.1515 0.6819
vn -0.0124 0.7377 0.6750
vn 0.8105 0.5811 -0.0733
vn 0.0022 1.0000 -0.0002
vn -0.8956 0.0000 -0.4449
vn 0.0000 0.9994 -0.0352
vn 0.0000 0.0000 -1.0000
vn -0.9891 0.0000 0.1469
vn -0.9993 -0.0380 0.0000
vn 0.0000 -1.0000 0.0000
vn 0.1863 -0.2544 -0.9490
vn 0.0000 -0.2607 -0.9654
vn 0.0039 0.2542 0.9672
vn -0.0293 0.2567 0.9661
vn -0.0292 0.2557 0.9663
vn 0.9975 0.0675 -0.0196
vn 1.0000 -0.0000 0.0000
vn 0.5730 -0.2198 -0.7895
vn 0.9925 -0.0805 -0.0920
vn -0.9081 -0.1084 -0.4044
vn -0.9066 -0.1024 -0.4094
vn 0.0000 -0.2427 -0.9701
vn -0.0744 -0.2582 -0.9632
vn 0.0000 -0.2577 -0.9662
vn 0.0378 -0.2587 -0.9652
vn 0.0000 0.2442 0.9697
vn -0.0330 0.2167 0.9757
vn -0.0295 0.2510 0.9675
vn 0.0000 0.0000 1.0000
vn 0.0000 0.7013 0.7128
vn -0.0261 0.2643 0.9641
vn -0.0264 0.2605 0.9651
vn -0.0214 0.2606 0.9652
vn 0.3751 0.2221 0.9000
vn 0.6101 0.2077 0.7646
vn 0.6889 0.1882 0.7000
vn 0.3291 0.2475 0.9113
vn 0.1602 0.2544 0.9537
vn -0.0589 0.0000 0.9983
vn -0.0332 -0.3688 0.9289
vn -0.0331 0.2088 0.9774
vn -0.0316 0.0000 0.9995
vn 0.2509 -0.2500 -0.9352
vn 0.9422 0.1250 -0.3110
vn 0.9980 0.0418 -0.0483
vn 0.9980 0.0391 -0.0502
vn 0.5420 -0.2200 -0.8111
vn 0.7640 -0.1651 -0.6237
vn 0.2367 -0.2359 -0.9425
vn 0.7085 0.0000 -0.7057
vn -0.0167 -0.4484 -0.8937
vn 0.0000 -0.3165 -0.9486
vn 0.0000 -0.3167 -0.9485
vn 0.0000 -0.7088 -0.7055
vn 0.0000 -0.7101 -0.7041
vn 0.3666 0.1848 0.9118
vn 0.4611 -0.8864 0.0417
vn -0.0038 0.2594 0.9658
vn 0.0054 0.2548 0.9670
vn 0.0000 0.2595 0.9657
vn 0.0646 0.2572 0.9642
vn 0.0000 -0.2418 -0.9703
vn 0.1069 -0.2154 -0.9707
vn 0.0000 -0.0001 -1.0000
vn 0.0003 -0.2599 -0.9656
vn 0.0230 -0.2590 -0.9656
usemtl Shape.836
s off
f 22//1 27//1 39//1
f 3//2 1//2 11//2
f 3//3 7//3 14//3
f 3//4 9//4 15//4
f 2//5 13//5 15//5
f 13//6 3//6 15//6
f 6//7 3//7 17//7
f 3//8 13//8 17//8
f 13//9 6//9 17//9
f 7//10 3//10 19//10
f 3//11 11//11 19//11
f 11//12 16//12 19//12
f 8//13 5//13 20//13
f 16//12 11//12 21//12
f 20//14 1//14 22//14
f 10//15 4//15 23//15
f 3//16 14//16 23//16
f 14//17 10//17 23//17
f 2//18 15//18 24//18
f 12//19 18//19 24//19
f 18//19 12//19 25//19
f 21//20 5//20 25//20
f 12//21 21//21 25//21
f 1//22 3//22 26//22
f 3//23 6//23 26//23
f 6//24 8//24 26//24
f 22//25 1//25 26//25
f 8//26 22//26 26//26
f 8//27 20//27 27//27
f 22//26 8//26 27//26
f 4//28 10//28 28//28
f 14//29 7//29 28//29
f 10//30 14//30 28//30
f 16//31 4//31 28//31
f 6//9 13//9 29//9
f 15//32 9//32 30//32
f 9//33 3//33 31//33
f 3//34 23//34 31//34
f 23//35 9//35 31//35
f 4//36 12//36 32//36
f 24//37 15//37 32//37
f 12//38 24//38 32//38
f 15//39 30//39 32//39
f 30//40 4//40 32//40
f 7//41 19//41 33//41
f 19//42 16//42 33//42
f 28//43 7//43 33//43
f 16//44 28//44 33//44
f 5//45 8//45 34//45
f 13//46 2//46 34//46
f 2//47 24//47 34//47
f 24//48 18//48 34//48
f 25//49 5//49 34//49
f 18//50 25//50 34//50
f 8//51 29//51 34//51
f 29//52 13//52 34//52
f 11//53 1//53 35//53
f 1//54 20//54 35//54
f 20//55 5//55 35//55
f 5//56 21//56 35//56
f 21//57 11//57 35//57
f 12//58 4//58 36//58
f 4//31 16//31 36//31
f 16//12 21//12 36//12
f 21//59 12//59 36//59
f 9//60 23//60 37//60
f 23//61 4//61 37//61
f 30//62 9//62 37//62
f 4//63 30//63 37//63
f 8//64 6//64 38//64
f 29//65 8//65 38//65
f 6//66 29//66 38//66
f 20//67 22//67 39//67
f 27//68 20//68 39//68
