# Blender v2.79 (sub 0) OBJ File: ''
# www.blender.org
mtllib 10101_link_1_0.mtl
o Shape_IndexedFaceSet_Shape_IndexedFaceSet.2487
v 0.588270 -0.149316 -0.101818
v -0.586013 -0.068972 -0.208950
v -0.581512 -0.131453 -0.195547
v -0.577012 -0.086835 -0.097347
v 0.583770 -0.064494 -0.208950
v 0.579270 -0.162710 -0.177695
v -0.581544 -0.162030 -0.120111
v 0.503346 -0.068972 -0.119670
v -0.581512 -0.064494 -0.133061
v -0.581512 -0.171646 -0.159832
v 0.570386 -0.118070 -0.088415
v -0.349356 -0.144847 -0.092887
v 0.588270 -0.162710 -0.115210
v 0.579270 -0.086835 -0.097347
v 0.574770 -0.131453 -0.195547
v 0.579270 -0.171646 -0.159832
v -0.581512 -0.158242 -0.182155
v -0.523473 -0.158242 -0.101818
v 0.580409 -0.065208 -0.142082
v -0.260047 -0.113623 -0.088415
v 0.574770 -0.158242 -0.101818
v -0.583113 -0.135697 -0.097991
v -0.577012 -0.077898 -0.106278
v -0.590513 -0.064494 -0.141993
v 0.583770 -0.140390 -0.092887
v -0.581512 -0.144847 -0.191087
v 0.580338 -0.166517 -0.128872
v -0.264547 -0.126996 -0.088415
v 0.588270 -0.077898 -0.115210
v 0.579270 -0.077898 -0.106278
v 0.583770 -0.140390 -0.191087
v -0.590513 -0.086835 -0.106278
v 0.583770 -0.100229 -0.092887
v -0.583351 -0.157753 -0.168520
v 0.320344 -0.113623 -0.088415
v -0.582855 -0.166540 -0.137678
v 0.583770 -0.068972 -0.124130
vn 0.4823 0.7288 0.4860
vn 0.0000 -0.2097 -0.9778
vn 0.0008 -0.1964 -0.9805
vn 0.0000 -0.8943 -0.4474
vn -0.0013 -0.8573 -0.5148
vn 0.0007 0.9999 0.0107
vn 0.0019 0.9851 0.1721
vn -0.0000 0.3163 0.9487
vn 0.4235 -0.6405 0.6406
vn 0.0000 -0.5547 0.8320
vn 0.0000 -0.9486 0.3165
vn -0.1933 -0.6378 0.7456
vn -0.0308 -0.2459 0.9688
vn -0.0018 0.8941 0.4478
vn -0.0000 0.7069 0.7073
vn -0.0038 0.9977 -0.0670
vn -0.0000 1.0000 0.0000
vn -0.4550 0.7634 0.4585
vn 0.3689 -0.5579 0.7434
vn 0.0021 -0.4483 0.8939
vn -0.8419 -0.1705 -0.5119
vn 0.0000 -0.3159 -0.9488
vn -0.9866 -0.0905 -0.1357
vn 0.0011 -0.5548 -0.8320
vn 0.0000 -0.9866 0.1634
vn 0.2002 -0.9677 0.1534
vn -0.0006 -0.9632 0.2688
vn -0.0274 0.0092 0.9996
vn 0.0000 0.0000 1.0000
vn -0.0298 -0.0095 0.9995
vn -0.0265 -0.1228 0.9921
vn 0.0021 -0.1953 0.9808
vn 0.0012 -0.2483 0.9687
vn 1.0000 0.0000 0.0000
vn 0.9988 0.0000 -0.0480
vn -0.0000 0.8321 0.5546
vn 0.5746 0.5785 0.5789
vn 0.9979 -0.0150 -0.0636
vn 0.2470 -0.2220 -0.9432
vn 0.9518 -0.2742 -0.1372
vn 0.9519 -0.2741 -0.1371
vn 0.0017 -0.4452 -0.8955
vn 0.0020 -0.5148 -0.8573
vn -0.5508 0.0578 0.8326
vn -0.4238 0.6403 0.6407
vn -0.4894 0.7393 0.4625
vn 0.3169 0.0000 0.9485
vn 0.8930 0.0000 0.4500
vn 0.9696 0.0451 0.2406
vn 0.7044 0.4258 0.5679
vn -0.9875 -0.0888 -0.1300
vn -0.9708 -0.2058 -0.1236
vn -0.9963 -0.0586 -0.0630
vn -0.9971 -0.0650 -0.0407
vn 0.0043 0.2401 0.9707
vn 0.0000 0.3159 0.9488
vn -0.0155 -0.9682 0.2497
vn -0.9818 -0.1530 0.1126
vn -0.0017 -0.9745 0.2245
vn -0.0017 -0.9736 0.2281
vn -0.9864 -0.1329 0.0969
vn -0.9888 -0.1472 -0.0260
vn -0.9957 -0.0917 -0.0101
vn 0.6417 0.7659 0.0404
vn 0.0113 0.9791 0.2032
vn 0.8825 0.4697 0.0248
vn 0.0251 0.8916 0.4521
usemtl Shape.2491
s off
f 30//1 29//1 37//1
f 3//2 2//2 15//2
f 2//3 5//3 15//3
f 10//4 6//4 16//4
f 6//5 10//5 17//5
f 5//6 9//6 19//6
f 9//7 8//7 19//7
f 14//8 4//8 20//8
f 13//9 1//9 21//9
f 12//10 18//10 21//10
f 18//11 13//11 21//11
f 7//12 18//12 22//12
f 18//13 12//13 22//13
f 8//14 9//14 23//14
f 4//15 14//15 23//15
f 5//16 2//16 24//16
f 9//17 5//17 24//17
f 23//18 9//18 24//18
f 21//19 1//19 25//19
f 12//20 21//20 25//20
f 2//21 3//21 26//21
f 3//22 15//22 26//22
f 17//23 2//23 26//23
f 6//24 17//24 26//24
f 10//25 16//25 27//25
f 16//26 13//26 27//26
f 13//27 18//27 27//27
f 20//28 4//28 28//28
f 11//29 20//29 28//29
f 4//30 22//30 28//30
f 22//31 12//31 28//31
f 25//32 11//32 28//32
f 12//33 25//33 28//33
f 1//34 13//34 29//34
f 13//35 5//35 29//35
f 8//36 23//36 30//36
f 23//15 14//15 30//15
f 14//37 29//37 30//37
f 5//38 13//38 31//38
f 15//39 5//39 31//39
f 16//40 6//40 31//40
f 13//41 16//41 31//41
f 26//42 15//42 31//42
f 6//43 26//43 31//43
f 22//44 4//44 32//44
f 4//45 23//45 32//45
f 23//46 24//46 32//46
f 11//47 25//47 33//47
f 25//48 1//48 33//48
f 1//49 29//49 33//49
f 29//50 14//50 33//50
f 2//51 17//51 34//51
f 17//52 10//52 34//52
f 24//53 2//53 34//53
f 32//54 24//54 34//54
f 20//29 11//29 35//29
f 14//8 20//8 35//8
f 11//55 33//55 35//55
f 33//56 14//56 35//56
f 18//57 7//57 36//57
f 7//58 22//58 36//58
f 10//59 27//59 36//59
f 27//60 18//60 36//60
f 22//61 32//61 36//61
f 34//62 10//62 36//62
f 32//63 34//63 36//63
f 5//64 19//64 37//64
f 19//65 8//65 37//65
f 29//66 5//66 37//66
f 8//67 30//67 37//67
