# Blender v2.79 (sub 0) OBJ File: ''
# www.blender.org
mtllib 1466_link_1_74.mtl
o Shape_IndexedFaceSet.074_Shape_IndexedFaceSet.10477
v 0.162970 0.401698 -0.187199
v 0.132416 0.467931 -0.187199
v 0.117127 0.467931 -0.044525
v 0.178251 0.401698 -0.044525
v 0.204208 0.395781 -0.150595
v 0.152796 0.483217 -0.187199
v 0.152184 0.396485 -0.053071
v 0.132416 0.488304 -0.044525
v 0.193540 0.432279 -0.100584
v 0.168061 0.483217 -0.131141
v 0.157879 0.462835 -0.044525
v 0.183350 0.427184 -0.187199
v 0.122226 0.488304 -0.059818
vn 0.0440 0.9986 -0.0293
vn -0.9038 -0.4169 -0.0968
vn -0.0000 0.0000 -1.0000
vn -0.8984 -0.4302 -0.0890
vn -0.2590 -0.2390 0.9358
vn -0.1011 -0.9938 -0.0468
vn 0.1651 -0.9817 0.0952
vn 0.0000 0.0000 1.0000
vn 0.9698 -0.0452 0.2398
vn 0.0855 0.9961 -0.0233
vn 0.9121 0.3985 -0.0963
vn 0.8712 0.2903 0.3960
vn 0.6862 0.6860 0.2421
vn 0.8120 0.5396 0.2224
vn 0.5576 -0.4459 -0.7002
vn 0.8986 0.4076 -0.1624
vn 0.8539 0.4656 -0.2325
vn -0.9804 0.1665 -0.1051
vn -0.5909 0.7879 -0.1733
vn -0.7058 0.5297 0.4703
usemtl Shape.10487
s off
f 8//1 6//1 13//1
f 2//2 1//2 3//2
f 1//3 2//3 6//3
f 3//4 1//4 7//4
f 4//5 3//5 7//5
f 1//6 5//6 7//6
f 5//7 4//7 7//7
f 3//8 4//8 8//8
f 4//9 5//9 9//9
f 6//10 8//10 10//10
f 9//11 5//11 10//11
f 8//8 4//8 11//8
f 4//12 9//12 11//12
f 10//13 8//13 11//13
f 9//14 10//14 11//14
f 5//15 1//15 12//15
f 1//3 6//3 12//3
f 10//16 5//16 12//16
f 6//17 10//17 12//17
f 2//18 3//18 13//18
f 6//19 2//19 13//19
f 3//20 8//20 13//20
