# Blender v2.79 (sub 0) OBJ File: ''
# www.blender.org
mtllib 1466_link_1_12.mtl
o Shape_IndexedFaceSet.012_Shape_IndexedFaceSet.10415
v -0.071422 -0.826308 0.047188
v -0.024939 -0.744286 0.062934
v -0.025555 -0.770275 0.062480
v -0.117270 -0.744804 -0.008857
v -0.121468 -0.760559 0.061816
v -0.122369 -0.826308 -0.008857
v -0.025555 -0.826308 0.037000
v -0.030653 -0.744804 0.031895
v -0.122369 -0.780465 0.062480
v -0.025555 -0.821209 0.057383
v -0.117270 -0.744804 0.052285
v -0.122369 -0.826308 0.016624
vn -1.0000 -0.0000 0.0000
vn -0.9970 0.0624 -0.0453
vn 0.0000 -1.0000 0.0000
vn 0.4279 -0.0298 -0.9033
vn 0.0086 0.9998 -0.0183
vn 0.4256 -0.0266 -0.9045
vn 0.9821 0.0501 -0.1816
vn 0.0018 -0.0175 0.9998
vn -0.0173 0.0341 0.9993
vn -0.9986 0.0443 -0.0284
vn 0.9608 -0.0276 0.2757
vn 0.0538 -0.9687 0.2423
vn 1.0000 -0.0082 0.0020
vn -0.1449 -0.4542 0.8790
vn 0.0105 -0.0996 0.9950
vn -0.0056 1.0000 0.0000
vn -0.9663 0.2575 0.0000
vn -0.0998 0.5344 0.8393
vn -0.3905 -0.6511 0.6509
usemtl Shape.10425
s off
f 9//1 6//1 12//1
f 5//2 4//2 6//2
f 1//3 6//3 7//3
f 7//4 6//4 8//4
f 4//5 2//5 8//5
f 6//6 4//6 8//6
f 2//7 7//7 8//7
f 3//8 2//8 9//8
f 2//9 5//9 9//9
f 5//10 6//10 9//10
f 2//11 3//11 10//11
f 1//12 7//12 10//12
f 7//13 2//13 10//13
f 9//14 1//14 10//14
f 3//15 9//15 10//15
f 2//16 4//16 11//16
f 4//17 5//17 11//17
f 5//18 2//18 11//18
f 6//3 1//3 12//3
f 1//19 9//19 12//19
