# Blender v2.79 (sub 0) OBJ File: ''
# www.blender.org
mtllib 1466_link_1_90.mtl
o Shape_IndexedFaceSet.090_Shape_IndexedFaceSet.10493
v -0.091799 0.228440 0.796224
v -0.127464 0.131637 0.765658
v -0.127464 0.131637 0.811518
v -0.081605 0.192771 0.791129
v -0.117270 0.197868 0.765658
v -0.081605 0.202965 0.765658
v -0.107075 0.131637 0.765658
v -0.101994 0.141841 0.811518
v -0.122360 0.177510 0.811518
v -0.081605 0.228440 0.811518
vn -0.6926 0.5542 0.4616
vn 0.0000 0.0000 -1.0000
vn -0.1066 0.7460 -0.6573
vn 0.0000 -1.0000 0.0000
vn 0.9333 -0.3333 -0.1334
vn 0.3669 -0.9158 0.1631
vn 0.9256 -0.3780 -0.0185
vn -0.9939 0.1106 0.0000
vn -0.8277 0.5412 0.1484
vn -0.9875 0.1520 -0.0421
vn 0.0000 0.0000 1.0000
vn 1.0000 0.0000 0.0000
vn 0.5888 0.7066 -0.3925
vn 0.9035 -0.2127 0.3721
usemtl Shape.10503
s off
f 1//1 9//1 10//1
f 2//2 5//2 6//2
f 5//3 1//3 6//3
f 3//4 2//4 7//4
f 2//2 6//2 7//2
f 6//5 4//5 7//5
f 3//6 7//6 8//6
f 7//7 4//7 8//7
f 2//8 3//8 9//8
f 1//9 5//9 9//9
f 5//10 2//10 9//10
f 3//11 8//11 9//11
f 9//11 8//11 10//11
f 4//12 6//12 10//12
f 6//13 1//13 10//13
f 8//14 4//14 10//14
