# Blender v2.79 (sub 0) OBJ File: ''
# www.blender.org
mtllib 1466_link_1_103.mtl
o Shape_IndexedFaceSet.103_Shape_IndexedFaceSet.10506
v -0.193697 0.401698 -0.110758
v -0.112186 0.488304 -0.044534
v -0.132568 0.488304 -0.044534
v -0.142759 0.483217 -0.131149
v -0.153233 0.396587 -0.050816
v -0.170383 0.396443 -0.130681
v -0.173315 0.432279 -0.044534
v -0.168220 0.478122 -0.131149
v -0.107091 0.473026 -0.049629
v -0.193697 0.422088 -0.131149
v -0.178411 0.401698 -0.044534
vn -0.9618 0.1603 0.2220
vn 0.0000 0.9983 -0.0586
vn -0.1857 -0.9817 0.0416
vn 0.0000 0.0000 1.0000
vn -0.1961 0.9800 -0.0345
vn -0.7820 0.5687 0.2550
vn 0.8587 0.3952 -0.3263
vn 0.3145 -0.2043 0.9270
vn 0.8433 -0.5063 -0.1802
vn 0.8667 -0.2782 -0.4140
vn 0.0105 -0.0087 -0.9999
vn -0.6069 -0.5620 -0.5620
vn -0.9584 0.2018 0.2018
vn 0.0000 0.0000 -1.0000
vn -0.8981 0.4083 0.1633
vn -0.1883 -0.9811 0.0435
vn 0.2084 -0.1594 0.9650
usemtl Shape.10516
s off
f 7//1 1//1 11//1
f 3//2 2//2 4//2
f 5//3 1//3 6//3
f 2//4 3//4 7//4
f 3//5 4//5 8//5
f 7//6 3//6 8//6
f 4//7 2//7 9//7
f 2//8 5//8 9//8
f 5//9 6//9 9//9
f 6//10 4//10 9//10
f 4//11 6//11 10//11
f 6//12 1//12 10//12
f 1//13 7//13 10//13
f 8//14 4//14 10//14
f 7//15 8//15 10//15
f 1//16 5//16 11//16
f 5//17 2//17 11//17
f 2//4 7//4 11//4
