# Blender v2.79 (sub 0) OBJ File: ''
# www.blender.org
mtllib 1466_link_0_27.mtl
o Shape_IndexedFaceSet.027_Shape_IndexedFaceSet.18088
v 0.002003 0.587252 0.620238
v 0.043986 0.571894 0.625687
v 0.043986 0.554182 0.625687
v 0.043986 0.574847 0.575492
v -0.000003 0.545823 0.621670
v 0.029217 0.548275 0.575492
v 0.017407 0.586662 0.575492
v 0.035123 0.583709 0.631596
v 0.004152 0.549680 0.632393
v 0.043986 0.548275 0.575492
v 0.041032 0.548275 0.628641
v 0.038077 0.586662 0.575492
v 0.003018 0.586309 0.631107
v 0.038077 0.586662 0.625687
v 0.035123 0.551229 0.634556
vn -0.0713 0.0328 0.9969
vn 1.0000 0.0000 0.0000
vn -0.9448 0.0345 -0.3257
vn -0.8122 -0.2499 -0.5272
vn 0.0000 0.0000 -1.0000
vn 0.0000 -0.9986 -0.0530
vn -0.0014 -0.9408 0.3389
vn 0.9031 -0.4265 0.0502
vn 0.0591 -0.9982 0.0033
vn 0.0000 0.9999 -0.0132
vn -0.9939 0.0515 0.0973
vn -0.9304 -0.0159 0.3662
vn 0.9282 0.3714 0.0219
vn 0.7785 0.3115 0.5449
vn 0.8944 0.4473 0.0000
vn 0.0164 0.9999 0.0000
vn 0.0033 0.9963 0.0861
vn 0.0640 0.8795 0.4716
vn 0.7073 0.0000 0.7069
vn 0.6174 0.0714 0.7834
vn 0.7074 -0.0003 0.7068
vn 0.0126 -0.8895 0.4568
vn -0.0078 0.0908 0.9958
usemtl Shape.18100
s off
f 13//1 9//1 15//1
f 2//2 3//2 4//2
f 5//3 1//3 7//3
f 6//4 5//4 7//4
f 4//5 6//5 7//5
f 4//2 3//2 10//2
f 5//6 6//6 10//6
f 6//5 4//5 10//5
f 9//7 5//7 11//7
f 10//8 3//8 11//8
f 5//9 10//9 11//9
f 7//10 1//10 12//10
f 4//5 7//5 12//5
f 1//11 5//11 13//11
f 5//12 9//12 13//12
f 2//13 4//13 14//13
f 8//14 2//14 14//14
f 4//15 12//15 14//15
f 12//16 1//16 14//16
f 1//17 13//17 14//17
f 13//18 8//18 14//18
f 3//19 2//19 15//19
f 2//20 8//20 15//20
f 11//21 3//21 15//21
f 9//22 11//22 15//22
f 8//23 13//23 15//23
