# Blender v2.79 (sub 0) OBJ File: ''
# www.blender.org
mtllib 1466_link_1_69.mtl
o Shape_IndexedFaceSet.069_Shape_IndexedFaceSet.10472
v 0.004678 -0.232650 0.052168
v -0.066318 -0.744738 0.026817
v -0.056123 -0.744738 0.026817
v -0.066318 -0.230194 0.026817
v -0.051026 -0.744738 0.052289
v 0.005018 -0.744738 0.042095
v -0.066318 -0.230194 0.047190
v -0.005177 -0.235331 0.037006
v 0.005018 -0.744738 0.052289
v -0.066318 -0.744738 0.047190
v -0.056123 -0.260766 0.052289
v -0.005177 -0.744738 0.037006
v -0.051026 -0.240418 0.026817
v 0.005018 -0.230194 0.042095
vn 1.0000 0.0000 0.0000
vn 0.0000 0.0000 -1.0000
vn 0.0000 -1.0000 0.0000
vn -1.0000 -0.0000 0.0000
vn -0.4473 -0.0000 0.8944
vn -0.0643 0.1433 0.9876
vn 0.0019 0.0002 1.0000
vn 0.0000 0.0000 1.0000
vn -0.3163 -0.0033 0.9486
vn 0.4466 0.0000 -0.8947
vn 0.2169 0.0000 -0.9762
vn 0.1803 0.2697 -0.9459
vn 0.1961 -0.0020 -0.9806
vn 0.0000 1.0000 0.0000
vn 0.0170 0.9713 0.2374
vn 0.1833 0.4840 -0.8557
vn 0.9994 0.0007 0.0339
usemtl Shape.10482
s off
f 9//1 6//1 14//1
f 3//2 2//2 4//2
f 2//3 3//3 5//3
f 5//3 3//3 6//3
f 4//4 2//4 7//4
f 5//3 6//3 9//3
f 2//3 5//3 10//3
f 7//4 2//4 10//4
f 7//5 10//5 11//5
f 1//6 7//6 11//6
f 9//7 1//7 11//7
f 5//8 9//8 11//8
f 10//9 5//9 11//9
f 6//3 3//3 12//3
f 8//10 6//10 12//10
f 8//11 12//11 13//11
f 3//2 4//2 13//2
f 4//12 8//12 13//12
f 12//13 3//13 13//13
f 4//14 7//14 14//14
f 7//15 1//15 14//15
f 8//16 4//16 14//16
f 6//10 8//10 14//10
f 1//17 9//17 14//17
