# Blender v2.79 (sub 0) OBJ File: ''
# www.blender.org
mtllib 1466_link_1_71.mtl
o Shape_IndexedFaceSet.071_Shape_IndexedFaceSet.10474
v 0.210095 -0.759079 -0.191122
v 0.198649 -0.225048 -0.044525
v 0.203738 -0.225048 -0.049623
v 0.168080 -0.230186 -0.187199
v 0.152792 -0.744788 -0.044525
v 0.204811 -0.760426 -0.045637
v 0.219026 -0.225048 -0.166809
v 0.152792 -0.230186 -0.044525
v 0.168080 -0.734562 -0.187199
v 0.220931 -0.759738 -0.126614
v 0.219026 -0.235274 -0.100584
v 0.213930 -0.225048 -0.187199
v 0.221100 -0.761064 -0.175417
v 0.215536 -0.759676 -0.072775
v 0.199344 -0.758976 -0.040631
v 0.152792 -0.744788 -0.054720
v 0.152792 -0.235274 -0.054720
vn -1.0000 -0.0000 0.0000
vn 0.7077 0.0067 0.7065
vn 0.0000 1.0000 0.0000
vn -0.0930 -0.0000 -0.9957
vn 0.7601 0.6422 0.0992
vn -0.0008 0.0074 -1.0000
vn -0.1113 0.9937 -0.0119
vn -0.1114 0.9937 -0.0119
vn -0.1569 -0.9875 -0.0148
vn 1.0000 0.0039 0.0006
vn 1.0000 0.0035 0.0034
vn 0.8188 -0.0017 -0.5740
vn 0.9701 0.0076 -0.2425
vn 0.9300 0.0046 0.3676
vn 0.9950 -0.0013 0.0997
vn 0.9583 0.0088 0.2857
vn 0.1198 -0.9926 0.0199
vn 0.2596 -0.9653 0.0271
vn 0.6762 0.0063 0.7367
vn -0.2724 -0.9620 -0.0188
vn -0.0008 0.0073 1.0000
vn -0.0834 -0.0000 0.9965
vn -0.5087 -0.8519 -0.1245
vn -0.9934 0.0000 -0.1146
vn -0.2860 -0.9580 -0.0198
vn -0.2915 -0.9566 0.0000
vn -0.9724 0.2088 -0.1042
usemtl Shape.10484
s off
f 16//1 8//1 17//1
f 3//2 2//2 6//2
f 2//3 3//3 7//3
f 4//4 1//4 9//4
f 7//5 3//5 11//5
f 1//6 4//6 12//6
f 2//3 7//3 12//3
f 8//7 2//7 12//7
f 4//8 8//8 12//8
f 6//9 1//9 13//9
f 7//10 11//10 13//10
f 11//11 10//11 13//11
f 1//12 12//12 13//12
f 12//13 7//13 13//13
f 3//14 6//14 14//14
f 10//15 11//15 14//15
f 11//16 3//16 14//16
f 6//17 13//17 14//17
f 13//18 10//18 14//18
f 6//19 2//19 15//19
f 1//20 6//20 15//20
f 2//21 8//21 15//21
f 8//22 5//22 15//22
f 5//1 8//1 16//1
f 9//23 1//23 16//23
f 4//24 9//24 16//24
f 1//25 15//25 16//25
f 15//26 5//26 16//26
f 8//27 4//27 17//27
f 4//24 16//24 17//24
