# Blender v2.79 (sub 0) OBJ File: ''
# www.blender.org
mtllib 1466_link_0_5.mtl
o Shape_IndexedFaceSet.005_Shape_IndexedFaceSet.18066
v -0.015076 0.512828 0.445460
v 0.036598 0.516103 0.076342
v 0.018639 0.500452 0.079081
v -0.035894 0.516455 0.063312
v -0.018326 0.500904 0.079107
v 0.011494 0.512828 0.489810
v -0.023940 0.515783 0.327369
v -0.003267 0.501016 0.170879
v 0.026263 0.512828 0.312613
v -0.026892 0.509875 0.194521
v 0.029215 0.515783 0.256563
v 0.030234 0.506870 0.077777
v -0.003267 0.512828 0.498697
v 0.005590 0.501016 0.170879
v 0.020358 0.512828 0.413012
v -0.024422 0.503885 0.078263
vn -0.7492 -0.6621 0.0182
vn -0.0093 -0.7177 -0.6963
vn -0.1977 -0.9797 0.0336
vn -0.0122 -0.9999 0.0032
vn -0.8972 -0.4398 0.0395
vn -0.7952 -0.6047 0.0446
vn 0.0045 1.0000 0.0020
vn 0.0032 1.0000 0.0024
vn 0.0188 0.9997 0.0141
vn 0.9739 -0.2237 0.0395
vn 0.1343 -0.4246 -0.8954
vn 0.1694 -0.2643 -0.9494
vn 0.8251 -0.5643 0.0283
vn -0.1680 0.9851 0.0373
vn 0.0097 0.9998 0.0161
vn -0.1602 -0.9864 0.0355
vn 0.0000 -0.9994 0.0360
vn 0.1887 -0.9815 0.0329
vn 0.0000 -1.0000 0.0061
vn 0.0220 -0.9991 0.0366
vn 0.2937 -0.9553 0.0339
vn 0.3056 0.9515 0.0353
vn 0.9916 0.1156 0.0583
vn 0.4866 -0.8731 0.0299
vn 0.5177 -0.8550 0.0304
vn -0.4427 -0.8960 0.0331
vn -0.3468 -0.8319 -0.4333
vn -0.5026 -0.8639 0.0338
usemtl Shape.18078
s off
f 10//1 4//1 16//1
f 4//2 3//2 5//2
f 1//3 5//3 8//3
f 5//4 3//4 8//4
f 7//5 4//5 10//5
f 1//6 7//6 10//6
f 2//7 4//7 11//7
f 4//8 7//8 11//8
f 7//9 6//9 11//9
f 9//10 2//10 11//10
f 3//11 4//11 12//11
f 4//12 2//12 12//12
f 2//13 9//13 12//13
f 7//14 1//14 13//14
f 6//15 7//15 13//15
f 1//16 8//16 13//16
f 13//17 8//17 14//17
f 3//18 6//18 14//18
f 8//19 3//19 14//19
f 6//20 13//20 14//20
f 6//21 3//21 15//21
f 11//22 6//22 15//22
f 9//23 11//23 15//23
f 3//24 12//24 15//24
f 12//25 9//25 15//25
f 5//26 1//26 16//26
f 4//27 5//27 16//27
f 1//28 10//28 16//28
