# Blender v2.79 (sub 0) OBJ File: ''
# www.blender.org
mtllib 1466_link_0_16.mtl
o Shape_IndexedFaceSet.016_Shape_IndexedFaceSet.18077
v 0.188701 0.663456 -0.035897
v 0.191658 0.663456 -0.038845
v 0.185878 0.668298 -0.131370
v 0.153264 0.409500 -0.035897
v 0.194609 0.403583 -0.038845
v 0.153810 0.668298 -0.038376
v 0.215281 0.660471 -0.115607
v 0.182800 0.409500 -0.124470
v 0.206423 0.409500 -0.062467
v 0.203466 0.642745 -0.053613
v 0.215281 0.403583 -0.127436
v 0.215281 0.663456 -0.127436
v 0.182800 0.450844 -0.127436
v 0.212330 0.406541 -0.089028
v 0.185751 0.403583 -0.127436
v 0.206423 0.663456 -0.065424
v 0.182800 0.651596 -0.127436
v 0.153264 0.409500 -0.038845
v 0.191658 0.403583 -0.035897
v 0.153264 0.654554 -0.035897
v 0.215281 0.554140 -0.106753
v 0.156221 0.403583 -0.038845
v 0.153264 0.654554 -0.038845
v 0.191658 0.639787 -0.035897
v 0.206423 0.633895 -0.062467
v 0.201013 0.667477 -0.122732
v 0.173610 0.667604 -0.040544
vn 0.0463 0.9988 0.0139
vn 0.8949 -0.0056 0.4462
vn 0.1326 0.0000 -0.9912
vn 1.0000 0.0000 0.0000
vn 0.7707 -0.5914 0.2373
vn 0.4392 -0.8925 0.1025
vn 0.0000 -1.0000 -0.0000
vn 0.0000 -0.0149 -0.9999
vn -0.2298 -0.0144 -0.9731
vn -0.7535 -0.0470 -0.6558
vn 0.8642 0.1504 0.4801
vn 0.8636 0.4889 0.1234
vn -0.9409 0.0970 -0.3245
vn -0.7876 -0.0000 -0.6162
vn -0.9487 -0.0000 -0.3163
vn -0.9451 -0.0234 -0.3260
vn -0.9035 -0.2944 -0.3116
vn 0.0000 0.0000 1.0000
vn -0.0450 0.1791 0.9828
vn -1.0000 0.0000 0.0000
vn 0.9969 -0.0106 0.0774
vn -0.8945 -0.4470 0.0000
vn -0.8572 -0.4284 -0.2857
vn -0.0730 -0.4737 0.8776
vn -0.9471 0.0485 -0.3174
vn -0.9992 0.0397 0.0000
vn 0.7033 0.0879 0.7054
vn 0.8246 0.0699 0.5613
vn 0.8318 0.0035 0.5550
vn 0.7067 0.0000 0.7075
vn 0.9485 0.0000 0.3168
vn 0.9762 0.0000 0.2171
vn 0.9565 0.0290 0.2904
vn 0.9848 0.0173 0.1728
vn 0.9851 0.0143 0.1713
vn 0.9817 0.0033 0.1905
vn 0.1890 0.9520 -0.2406
vn 0.2834 0.9582 0.0405
vn 0.1651 0.9848 0.0535
vn 0.2013 0.9585 0.2019
vn 0.0846 0.8640 0.4964
vn 0.0364 0.9993 0.0126
vn 0.2119 0.9702 0.1177
usemtl Shape.18089
s off
f 26//1 3//1 27//1
f 5//2 9//2 10//2
f 11//3 3//3 12//3
f 7//4 11//4 12//4
f 9//5 5//5 14//5
f 5//6 11//6 14//6
f 11//7 5//7 15//7
f 3//8 11//8 15//8
f 13//9 3//9 15//9
f 8//10 13//10 15//10
f 2//11 10//11 16//11
f 7//12 12//12 16//12
f 6//13 3//13 17//13
f 3//14 13//14 17//14
f 17//15 13//15 18//15
f 13//16 8//16 18//16
f 8//17 15//17 18//17
f 1//18 4//18 19//18
f 15//7 5//7 19//7
f 4//18 1//18 20//18
f 1//19 6//19 20//19
f 18//20 4//20 20//20
f 11//4 7//4 21//4
f 14//21 11//21 21//21
f 4//22 18//22 22//22
f 18//23 15//23 22//23
f 19//24 4//24 22//24
f 15//7 19//7 22//7
f 6//25 17//25 23//25
f 17//15 18//15 23//15
f 20//26 6//26 23//26
f 18//20 20//20 23//20
f 2//27 1//27 24//27
f 10//28 2//28 24//28
f 5//29 10//29 24//29
f 1//18 19//18 24//18
f 19//30 5//30 24//30
f 10//31 9//31 25//31
f 9//32 14//32 25//32
f 16//33 10//33 25//33
f 7//34 16//34 25//34
f 21//35 7//35 25//35
f 14//36 21//36 25//36
f 12//37 3//37 26//37
f 16//38 12//38 26//38
f 16//39 26//39 27//39
f 1//40 2//40 27//40
f 6//41 1//41 27//41
f 3//42 6//42 27//42
f 2//43 16//43 27//43
