# Blender v2.79 (sub 0) OBJ File: ''
# www.blender.org
mtllib 1466_link_1_27.mtl
o Shape_IndexedFaceSet.027_Shape_IndexedFaceSet.10430
v -0.124198 -0.762956 0.090298
v -0.152936 -0.831403 -0.029224
v -0.156932 -0.823940 -0.045181
v -0.156888 -0.823845 0.069373
v -0.158037 -0.744797 -0.054701
v -0.122369 -0.826308 -0.013934
v -0.127470 -0.831403 0.087931
v -0.124912 -0.750972 -0.008851
v -0.155750 -0.763676 0.070558
v -0.122369 -0.744797 0.047179
v -0.158037 -0.744797 0.016630
v -0.127470 -0.760083 0.098134
vn -0.2224 0.9397 0.2597
vn -0.8822 -0.4708 0.0007
vn 0.6655 -0.0800 -0.7421
vn 0.3680 -0.8035 -0.4679
vn 0.9977 -0.0493 0.0475
vn -0.2848 -0.9566 0.0619
vn 0.1837 -0.9822 -0.0399
vn 0.8130 0.0665 -0.5784
vn 0.9992 -0.0242 0.0322
vn 0.3377 0.9338 -0.1182
vn 0.9981 0.0370 -0.0494
vn -0.9999 -0.0143 0.0004
vn -0.9999 -0.0140 0.0000
vn -0.9987 0.0179 0.0486
vn 0.0000 1.0000 0.0000
vn 0.9136 -0.0576 0.4026
vn -0.5513 -0.1181 0.8259
vn -0.6981 -0.0009 0.7160
vn 0.8819 0.4200 0.2143
vn -0.4165 0.8524 0.3161
usemtl Shape.10440
s off
f 10//1 11//1 12//1
f 3//2 2//2 4//2
f 3//3 5//3 6//3
f 2//4 3//4 6//4
f 6//5 1//5 7//5
f 4//6 2//6 7//6
f 2//7 6//7 7//7
f 6//8 5//8 8//8
f 1//9 6//9 10//9
f 8//10 5//10 10//10
f 6//11 8//11 10//11
f 3//12 4//12 11//12
f 5//13 3//13 11//13
f 4//14 9//14 11//14
f 10//15 5//15 11//15
f 7//16 1//16 12//16
f 4//17 7//17 12//17
f 9//18 4//18 12//18
f 1//19 10//19 12//19
f 11//20 9//20 12//20
