# Blender v2.79 (sub 0) OBJ File: ''
# www.blender.org
mtllib 1466_link_1_96.mtl
o Shape_IndexedFaceSet.096_Shape_IndexedFaceSet.10499
v 0.032216 0.386699 -0.348773
v 0.086546 0.396600 -0.238177
v 0.081439 0.396600 -0.238177
v 0.086546 0.381318 -0.238177
v 0.005018 0.381318 -0.268746
v 0.005018 0.401698 -0.340048
v 0.086546 0.396600 -0.334955
v 0.082497 0.377486 -0.335748
v 0.006971 0.376831 -0.352544
v 0.005018 0.396600 -0.268746
v 0.088606 0.402342 -0.288732
vn -0.0427 0.9934 0.1068
vn 0.0000 0.0000 1.0000
vn -0.3487 -0.1165 0.9300
vn 0.0874 0.6146 -0.7840
vn 0.9780 -0.2058 -0.0325
vn 0.2486 -0.0125 -0.9685
vn -0.0199 -0.9984 0.0530
vn -0.9975 -0.0685 -0.0196
vn -0.0408 0.4461 -0.8941
vn -0.0001 -0.9992 0.0392
vn 0.2149 -0.1832 -0.9593
vn -0.3714 0.0000 0.9285
vn -1.0000 0.0000 0.0000
vn -0.0514 0.9961 0.0712
vn 0.0000 0.9936 0.1129
vn 0.9992 0.0000 0.0407
vn 0.0698 0.9896 -0.1260
vn 0.9875 -0.1560 -0.0246
usemtl Shape.10509
s off
f 10//1 3//1 11//1
f 2//2 3//2 4//2
f 4//3 3//3 5//3
f 1//4 6//4 7//4
f 7//5 4//5 8//5
f 1//6 7//6 8//6
f 4//7 5//7 9//7
f 5//8 6//8 9//8
f 6//9 1//9 9//9
f 8//10 4//10 9//10
f 1//11 8//11 9//11
f 5//12 3//12 10//12
f 6//13 5//13 10//13
f 6//14 10//14 11//14
f 3//15 2//15 11//15
f 2//16 4//16 11//16
f 7//17 6//17 11//17
f 4//18 7//18 11//18
