# Blender v2.79 (sub 0) OBJ File: ''
# www.blender.org
mtllib 1466_link_1_110.mtl
o Shape_IndexedFaceSet.110_Shape_IndexedFaceSet.10513
v -0.121998 0.127841 0.083481
v -0.092912 0.229649 0.131961
v -0.096895 0.233547 0.133817
v -0.107084 0.122378 0.135800
v -0.091799 0.192770 0.082862
v -0.122369 0.187669 0.133817
v -0.101991 0.228446 0.082862
v -0.122369 0.187669 0.082862
v -0.107084 0.126541 0.082862
vn -0.0424 -0.0106 -0.9990
vn 0.4054 -0.0209 0.9139
vn 0.9851 -0.1260 0.1169
vn -0.0384 0.0213 0.9990
vn -0.9451 -0.2138 0.2471
vn 0.6585 0.7395 -0.1399
vn 0.9456 0.2701 -0.1815
vn -0.8736 0.4851 0.0388
vn -0.8945 0.4470 0.0000
vn -1.0000 -0.0062 0.0000
vn 0.0000 0.0000 -1.0000
vn -0.0898 -0.9929 -0.0781
vn 0.9742 -0.2248 -0.0177
usemtl Shape.10523
s off
f 1//1 8//1 9//1
f 2//2 3//2 4//2
f 2//3 4//3 5//3
f 4//4 3//4 6//4
f 1//5 4//5 6//5
f 3//6 2//6 7//6
f 2//7 5//7 7//7
f 6//8 3//8 7//8
f 6//9 7//9 8//9
f 1//10 6//10 8//10
f 7//11 5//11 8//11
f 8//11 5//11 9//11
f 4//12 1//12 9//12
f 5//13 4//13 9//13
