# Blender v2.79 (sub 0) OBJ File: ''
# www.blender.org
mtllib 1466_link_1_111.mtl
o Shape_IndexedFaceSet.111_Shape_IndexedFaceSet.10514
v -0.034615 0.249758 0.134845
v -0.091796 0.202974 0.082862
v -0.091796 0.238639 0.082862
v -0.034794 0.249611 0.081998
v -0.086699 0.202974 0.133817
v -0.076505 0.248833 0.133817
vn -0.9471 0.2105 0.2421
vn -0.0152 0.0000 -0.9999
vn 0.6682 -0.7439 -0.0002
vn -0.9950 0.0000 0.0995
vn 0.6314 -0.7729 -0.0632
vn -0.1892 0.9722 -0.1377
vn -0.0220 0.9998 -0.0027
vn -0.0247 0.0055 0.9997
usemtl Shape.10524
s off
f 3//1 5//1 6//1
f 2//2 3//2 4//2
f 4//3 1//3 5//3
f 3//4 2//4 5//4
f 2//5 4//5 5//5
f 4//6 3//6 6//6
f 1//7 4//7 6//7
f 5//8 1//8 6//8
