# Blender v2.79 (sub 0) OBJ File: ''
# www.blender.org
mtllib 1466_link_1_85.mtl
o Shape_IndexedFaceSet.085_Shape_IndexedFaceSet.10488
v -0.010887 0.254916 0.084353
v 0.112024 0.274305 0.057388
v 0.112024 0.274305 0.052289
v 0.112024 0.213165 0.057388
v 0.106908 0.223363 0.082859
v -0.005161 0.274305 0.062484
v 0.045792 0.274305 0.082859
v 0.081431 0.213165 0.052289
v 0.081431 0.213165 0.082859
vn -0.4121 -0.9112 0.0000
vn 1.0000 0.0000 0.0000
vn 0.9804 0.0000 0.1969
vn 0.0000 1.0000 0.0000
vn 0.0187 0.0224 0.9996
vn 0.3297 0.3955 0.8573
vn -0.2428 0.7566 0.6072
vn 0.1639 -0.0820 -0.9831
vn -0.4892 -0.5851 -0.6468
vn -0.0866 0.0433 -0.9953
vn 0.0076 -0.0190 0.9998
vn 0.3393 -0.8478 0.4076
vn 0.0000 -1.0000 0.0000
usemtl Shape.10498
s off
f 1//1 8//1 9//1
f 3//2 2//2 4//2
f 4//3 2//3 5//3
f 2//4 3//4 6//4
f 1//5 5//5 7//5
f 5//6 2//6 7//6
f 2//4 6//4 7//4
f 6//7 1//7 7//7
f 3//8 4//8 8//8
f 1//9 6//9 8//9
f 6//10 3//10 8//10
f 5//11 1//11 9//11
f 4//12 5//12 9//12
f 8//13 4//13 9//13
