# Blender v2.79 (sub 0) OBJ File: ''
# www.blender.org
mtllib 1466_link_1_41.mtl
o Shape_IndexedFaceSet.041_Shape_IndexedFaceSet.10444
v 0.117118 0.101064 0.740181
v 0.101832 0.101064 0.740181
v 0.106919 0.101064 0.133877
v -0.005173 0.039924 0.740181
v -0.005173 0.039924 0.133877
v 0.061424 0.027364 0.761874
v 0.076334 0.039924 0.133877
v -0.010930 0.021033 0.768728
v 0.040698 0.024631 0.133877
v 0.106919 0.070486 0.133877
v 0.096732 0.055209 0.740181
v 0.096732 0.101056 0.133877
v -0.005173 0.024631 0.133877
v 0.117118 0.090866 0.133877
v 0.050596 0.022459 0.757412
v 0.117118 0.090866 0.740181
v 0.061060 0.029734 0.133877
vn 0.2431 -0.9700 -0.0072
vn 0.0000 1.0000 -0.0000
vn 0.0000 0.0000 -1.0000
vn 0.0000 0.3360 0.9419
vn -0.4482 0.7844 0.4287
vn -0.9566 0.2915 0.0000
vn 0.0717 0.2314 0.9702
vn 0.7068 -0.7074 -0.0059
vn 0.6189 -0.7855 -0.0010
vn -0.0008 1.0000 -0.0000
vn -0.4961 0.8683 0.0042
vn -0.5144 0.8575 0.0000
vn -1.0000 -0.0000 -0.0091
vn 0.0000 -1.0000 -0.0057
vn 0.7070 0.7071 -0.0119
vn 0.1254 -0.8047 0.5803
vn 0.0225 -0.9997 -0.0038
vn 0.3629 0.0000 0.9318
vn 0.8681 -0.4963 0.0021
vn 0.6859 -0.3921 0.6130
vn 1.0000 0.0000 0.0000
vn 0.8943 -0.4475 0.0000
vn 0.5550 -0.8319 -0.0035
vn 0.4139 -0.9103 -0.0037
usemtl Shape.10454
s off
f 15//1 9//1 17//1
f 2//2 1//2 3//2
f 5//3 3//3 7//3
f 1//4 2//4 8//4
f 2//5 4//5 8//5
f 4//6 5//6 8//6
f 6//7 1//7 8//7
f 5//3 7//3 9//3
f 7//3 3//3 10//3
f 7//8 10//8 11//8
f 6//9 7//9 11//9
f 2//10 3//10 12//10
f 4//11 2//11 12//11
f 5//12 4//12 12//12
f 3//3 5//3 12//3
f 8//13 5//13 13//13
f 9//14 8//14 13//14
f 5//3 9//3 13//3
f 3//15 1//15 14//15
f 10//3 3//3 14//3
f 6//16 8//16 15//16
f 8//17 9//17 15//17
f 1//18 6//18 16//18
f 11//19 10//19 16//19
f 6//20 11//20 16//20
f 14//21 1//21 16//21
f 10//22 14//22 16//22
f 7//23 6//23 17//23
f 9//3 7//3 17//3
f 6//24 15//24 17//24
