# Blender v2.79 (sub 0) OBJ File: ''
# www.blender.org
mtllib 1466_link_1_91.mtl
o Shape_IndexedFaceSet.091_Shape_IndexedFaceSet.10494
v -0.081597 0.228463 0.811518
v -0.005173 0.269215 0.775853
v -0.005173 0.269215 0.765658
v -0.076495 0.197878 0.801323
v -0.005173 0.238630 0.811518
v -0.076495 0.208080 0.765658
v -0.076495 0.243735 0.765658
v -0.005173 0.243735 0.765658
v -0.040849 0.253923 0.811518
vn -0.5171 0.8277 0.2181
vn 0.0412 -0.3098 0.9499
vn 1.0000 0.0000 0.0000
vn -0.9877 -0.1504 -0.0430
vn -0.3364 0.9417 0.0000
vn 0.0000 0.0000 -1.0000
vn -0.9939 0.0000 -0.1106
vn 0.5041 -0.8583 -0.0955
vn 0.4332 -0.8665 -0.2479
vn -0.0000 0.0000 1.0000
vn 0.3094 0.7218 0.6190
vn -0.3433 0.9374 0.0586
usemtl Shape.10504
s off
f 7//1 1//1 9//1
f 1//2 4//2 5//2
f 3//3 2//3 5//3
f 4//4 1//4 6//4
f 2//5 3//5 7//5
f 3//6 6//6 7//6
f 6//7 1//7 7//7
f 5//8 4//8 8//8
f 3//3 5//3 8//3
f 6//6 3//6 8//6
f 4//9 6//9 8//9
f 1//10 5//10 9//10
f 5//11 2//11 9//11
f 2//12 7//12 9//12
