# Blender v2.79 (sub 0) OBJ File: ''
# www.blender.org
mtllib 1466_link_1_93.mtl
o Shape_IndexedFaceSet.093_Shape_IndexedFaceSet.10496
v 0.127310 0.095967 0.806418
v 0.071271 0.024631 0.765658
v 0.073543 0.029177 0.809658
v 0.106924 0.136732 0.765658
v 0.106924 0.136732 0.811518
v 0.112015 0.029734 0.806418
v 0.127310 0.111253 0.765658
v 0.071271 0.060305 0.775853
vn -0.9078 0.2763 0.3154
vn 0.0230 -0.9946 0.1016
vn 0.1686 -0.0389 0.9849
vn 0.0845 -0.0434 0.9955
vn 0.0000 0.0000 -1.0000
vn 0.8908 0.4255 0.1596
vn 0.7808 0.6247 0.0000
vn 0.6648 -0.4301 -0.6107
vn 0.9709 -0.2242 -0.0841
vn -0.9985 -0.0152 0.0531
vn -0.6538 0.2079 -0.7276
vn -0.9062 0.4228 0.0000
usemtl Shape.10506
s off
f 3//1 5//1 8//1
f 3//2 2//2 6//2
f 1//3 5//3 6//3
f 5//4 3//4 6//4
f 2//5 4//5 7//5
f 5//6 1//6 7//6
f 4//7 5//7 7//7
f 6//8 2//8 7//8
f 1//9 6//9 7//9
f 2//10 3//10 8//10
f 4//11 2//11 8//11
f 5//12 4//12 8//12
