# Blender v2.79 (sub 0) OBJ File: ''
# www.blender.org
mtllib 1466_link_1_59.mtl
o Shape_IndexedFaceSet.059_Shape_IndexedFaceSet.10462
v 0.066172 -0.775374 0.052291
v 0.106914 -0.744804 0.057387
v 0.145781 -0.761147 0.067257
v 0.055973 -0.744804 0.067576
v 0.137493 -0.826308 0.067576
v 0.147692 -0.780465 0.052291
vn -0.0195 -0.3123 -0.9498
vn 0.1347 0.7270 0.6733
vn -0.1805 0.3910 -0.9025
vn -0.5145 -0.5146 0.6859
vn 0.0043 0.0043 1.0000
vn 0.9535 -0.1199 0.2765
vn 0.0095 0.1521 -0.9883
vn 0.4212 0.5811 -0.6963
usemtl Shape.10472
s off
f 5//1 1//1 6//1
f 3//2 2//2 4//2
f 2//3 1//3 4//3
f 4//4 1//4 5//4
f 3//5 4//5 5//5
f 3//6 5//6 6//6
f 1//7 2//7 6//7
f 2//8 3//8 6//8
