# Blender v2.79 (sub 0) OBJ File: ''
# www.blender.org
mtllib 1466_link_0_26.mtl
o Shape_IndexedFaceSet.026_Shape_IndexedFaceSet.18087
v 0.020329 0.583888 0.079588
v 0.043986 0.565997 0.575487
v 0.043986 0.548275 0.575487
v 0.002638 0.583709 0.424820
v 0.029314 0.547960 0.078260
v 0.044700 0.553724 0.073803
v 0.038077 0.586662 0.575487
v 0.029217 0.548275 0.575487
v 0.002638 0.571894 0.082308
v 0.002618 0.586680 0.082074
v 0.014452 0.583709 0.563611
v 0.038439 0.568976 0.076265
v 0.044702 0.547611 0.073777
v 0.035123 0.586662 0.415937
v 0.043986 0.574851 0.540004
v 0.023312 0.586662 0.182720
v 0.041032 0.577801 0.407103
v 0.029217 0.583709 0.194547
v 0.002638 0.571894 0.111852
v 0.017407 0.583709 0.575487
vn -0.9233 -0.3077 0.2297
vn 0.0000 0.0000 1.0000
vn -0.1247 0.0888 -0.9882
vn -0.1193 0.9928 0.0086
vn -0.1295 0.9915 0.0110
vn -0.9293 -0.3607 0.0791
vn -0.0755 0.1286 -0.9888
vn 1.0000 0.0000 0.0014
vn 1.0000 0.0003 0.0014
vn -0.0225 -0.9997 0.0006
vn 0.0000 -1.0000 0.0013
vn -0.2796 -0.1513 -0.9481
vn -0.1897 0.0041 -0.9818
vn -0.2075 -0.0158 -0.9781
vn 0.0007 1.0000 -0.0000
vn 1.0000 0.0052 0.0013
vn 0.9592 0.2743 0.0684
vn 0.1514 0.9880 -0.0310
vn 0.0012 1.0000 -0.0001
vn 0.9240 0.3821 -0.0174
vn 0.8248 0.5652 -0.0153
vn 0.8217 0.5695 -0.0216
vn 0.9432 0.3319 -0.0136
vn 0.8829 0.4694 -0.0092
vn 0.6297 0.7754 -0.0475
vn 0.7280 0.6850 -0.0286
vn 0.5065 0.8614 -0.0378
vn 0.4861 0.8735 -0.0246
vn -0.8397 -0.5427 0.0205
vn -0.6676 -0.7445 0.0003
vn -0.6678 -0.7443 0.0000
vn -1.0000 -0.0013 0.0000
vn -1.0000 -0.0014 0.0000
vn -0.1413 0.9893 0.0352
usemtl Shape.18099
s off
f 11//1 8//1 20//1
f 3//2 2//2 7//2
f 3//2 7//2 8//2
f 1//3 6//3 10//3
f 4//4 7//4 10//4
f 7//5 4//5 11//5
f 4//6 8//6 11//6
f 6//7 1//7 12//7
f 2//8 3//8 13//8
f 6//9 2//9 13//9
f 8//10 5//10 13//10
f 3//11 8//11 13//11
f 5//12 9//12 13//12
f 10//13 6//13 13//13
f 9//14 10//14 13//14
f 10//15 7//15 14//15
f 2//16 6//16 15//16
f 7//17 2//17 15//17
f 1//18 10//18 16//18
f 10//19 14//19 16//19
f 6//20 12//20 17//20
f 14//21 7//21 17//21
f 12//22 14//22 17//22
f 15//23 6//23 17//23
f 7//24 15//24 17//24
f 12//25 1//25 18//25
f 14//26 12//26 18//26
f 1//27 16//27 18//27
f 16//28 14//28 18//28
f 8//29 4//29 19//29
f 5//30 8//30 19//30
f 9//31 5//31 19//31
f 4//32 10//32 19//32
f 10//33 9//33 19//33
f 8//2 7//2 20//2
f 7//34 11//34 20//34
