# Blender v2.79 (sub 0) OBJ File: ''
# www.blender.org
mtllib 1466_link_0_4.mtl
o Shape_IndexedFaceSet.004_Shape_IndexedFaceSet.18065
v 0.046940 0.666410 -0.035879
v 0.046940 0.663456 0.058627
v 0.188706 0.663456 -0.035879
v 0.046940 0.681177 -0.035879
v 0.182794 0.681177 -0.035879
v 0.046940 0.681177 0.067484
v 0.100116 0.663456 0.058627
v 0.153264 0.678223 0.017295
v 0.156206 0.663456 0.017295
v 0.094204 0.681177 0.052722
v 0.055807 0.663456 0.073399
v 0.182794 0.675267 -0.018154
v 0.100116 0.672316 0.058627
v 0.049896 0.678223 0.073399
vn 0.2831 0.6555 0.7002
vn -0.0208 -0.9993 -0.0312
vn -1.0000 0.0000 0.0000
vn -0.0000 0.0000 -1.0000
vn 0.0000 1.0000 0.0000
vn 0.0000 -1.0000 0.0000
vn 0.1231 0.9847 0.1230
vn 0.9434 0.3147 0.1049
vn 0.4288 0.8570 0.2858
vn 0.7656 0.1525 0.6250
vn 0.8039 -0.3350 0.4914
vn 0.5932 0.0000 0.8050
vn 0.6011 0.1198 0.7901
vn 0.4026 0.6783 0.6147
vn 0.3163 0.0000 0.9487
vn 0.2929 0.1172 0.9489
vn -0.9129 -0.1825 0.3651
vn 0.1229 0.9110 0.3935
vn -0.8110 -0.3246 0.4868
usemtl Shape.18077
s off
f 13//1 10//1 14//1
f 2//2 1//2 3//2
f 1//3 2//3 4//3
f 3//4 1//4 4//4
f 3//4 4//4 5//4
f 5//5 4//5 6//5
f 4//3 2//3 6//3
f 2//6 3//6 7//6
f 7//6 3//6 9//6
f 5//5 6//5 10//5
f 8//7 5//7 10//7
f 2//6 7//6 11//6
f 3//8 5//8 12//8
f 5//9 8//9 12//9
f 8//10 9//10 12//10
f 9//11 3//11 12//11
f 7//12 9//12 13//12
f 9//13 8//13 13//13
f 8//14 10//14 13//14
f 11//15 7//15 13//15
f 11//16 13//16 14//16
f 6//17 2//17 14//17
f 10//18 6//18 14//18
f 2//19 11//19 14//19
