# Blender v2.79 (sub 0) OBJ File: ''
# www.blender.org
mtllib 1466_link_1_50.mtl
o Shape_IndexedFaceSet.050_Shape_IndexedFaceSet.10453
v 0.147238 -0.760414 -0.300676
v 0.208835 0.294693 -0.187206
v 0.188456 0.294693 -0.187206
v 0.117128 0.294693 -0.314573
v 0.162977 -0.724337 -0.192302
v 0.210167 -0.759878 -0.195771
v 0.198637 0.294693 -0.233059
v 0.117128 -0.734512 -0.263636
v 0.115800 -0.759849 -0.321588
v 0.162977 -0.235223 -0.192302
v 0.117128 0.294693 -0.294188
v 0.137508 0.294693 -0.309476
v 0.183959 -0.760152 -0.258678
v 0.209748 -0.755129 -0.185888
v 0.162977 0.294693 -0.283995
v 0.208835 0.111237 -0.212687
v 0.152797 -0.454291 -0.299297
v 0.199676 -0.759935 -0.232465
v 0.168068 -0.734512 -0.187219
v 0.136734 -0.760581 -0.311179
v 0.193546 0.044896 -0.243251
v 0.173167 -0.530706 -0.273816
vn 0.8222 0.0011 -0.5692
vn 0.0000 1.0000 0.0000
vn -0.8412 0.0000 0.5407
vn -0.8827 0.0139 0.4697
vn -0.9997 0.0007 0.0226
vn -1.0000 0.0013 0.0000
vn -0.8315 0.0346 0.5544
vn 0.2426 0.0061 -0.9701
vn 0.0000 0.0013 1.0000
vn 0.9991 0.0009 0.0419
vn 1.0000 0.0013 -0.0097
vn 0.9757 0.0301 -0.2170
vn 0.7528 -0.0107 -0.6582
vn 0.7073 0.0048 -0.7069
vn 0.0214 -0.9998 -0.0046
vn 0.9615 -0.0039 -0.2749
vn 0.8965 0.0006 -0.4431
vn -0.8241 -0.1379 0.5494
vn -0.4377 -0.8371 0.3281
vn -0.5262 -0.7747 0.3508
vn -0.3216 0.0064 0.9468
vn -0.7065 -0.0000 0.7077
vn -0.0316 0.0006 0.9995
vn -0.4201 -0.8248 0.3785
vn -0.0554 -0.9976 0.0414
vn 0.4453 0.0011 -0.8954
vn 0.0765 -0.9952 -0.0607
vn 0.0079 -1.0000 0.0011
vn 0.7071 -0.0097 -0.7070
vn 0.5838 0.0009 -0.8119
vn 0.8192 0.0067 -0.5735
vn 0.8576 -0.0004 -0.5142
vn 0.8885 0.0006 -0.4589
vn 0.7730 -0.0055 -0.6344
vn 0.7840 0.0020 -0.6207
vn 0.8078 0.0027 -0.5895
usemtl Shape.10463
s off
f 21//1 13//1 22//1
f 3//2 2//2 4//2
f 4//2 2//2 7//2
f 8//3 5//3 10//3
f 8//4 10//4 11//4
f 3//2 4//2 11//2
f 9//5 8//5 11//5
f 4//6 9//6 11//6
f 10//7 3//7 11//7
f 4//2 7//2 12//2
f 9//8 4//8 12//8
f 2//9 3//9 14//9
f 6//10 2//10 14//10
f 12//2 7//2 15//2
f 2//11 6//11 16//11
f 7//12 2//12 16//12
f 13//13 1//13 17//13
f 12//14 15//14 17//14
f 6//15 13//15 18//15
f 16//16 6//16 18//16
f 7//17 16//17 18//17
f 5//18 8//18 19//18
f 9//19 6//19 19//19
f 8//20 9//20 19//20
f 3//21 10//21 19//21
f 10//22 5//22 19//22
f 14//23 3//23 19//23
f 6//24 14//24 19//24
f 6//25 9//25 20//25
f 9//26 12//26 20//26
f 1//27 13//27 20//27
f 13//28 6//28 20//28
f 17//29 1//29 20//29
f 12//30 17//30 20//30
f 15//31 7//31 21//31
f 18//32 13//32 21//32
f 7//33 18//33 21//33
f 13//34 17//34 22//34
f 17//35 15//35 22//35
f 15//36 21//36 22//36
