# Blender v2.79 (sub 0) OBJ File: ''
# www.blender.org
mtllib 1466_link_1_66.mtl
o Shape_IndexedFaceSet.066_Shape_IndexedFaceSet.10469
v -0.199047 0.377414 -0.098467
v -0.188347 0.379013 -0.178707
v -0.173329 -0.744788 -0.100576
v -0.168236 -0.744788 -0.187199
v -0.214622 -0.759338 -0.099425
v -0.209380 -0.758793 -0.188306
v -0.219183 0.350743 -0.146431
v -0.173329 -0.235092 -0.100576
v -0.208989 0.350743 -0.187199
v -0.219931 -0.760875 -0.167488
v -0.219183 0.350743 -0.110768
v -0.168236 -0.230052 -0.176999
v -0.219862 -0.759388 -0.136044
v -0.214081 0.350743 -0.100576
v -0.168236 -0.240239 -0.161719
v -0.219183 0.024529 -0.105672
v -0.168236 -0.744788 -0.166815
vn 1.0000 0.0000 0.0000
vn 0.0283 -0.0012 0.9996
vn -0.7188 0.6903 -0.0821
vn 0.9903 0.0411 0.1329
vn 0.0817 0.0000 0.9967
vn 0.3645 0.0136 -0.9311
vn 0.0266 0.0010 -0.9996
vn -0.7645 0.6156 -0.1912
vn -0.9701 0.0052 -0.2426
vn 0.2052 -0.9787 0.0061
vn -0.8920 0.0008 -0.4520
vn -0.7981 0.6025 0.0000
vn -1.0000 0.0007 0.0000
vn 0.5651 0.0163 -0.8249
vn -0.3096 -0.9498 0.0456
vn -1.0000 0.0006 0.0022
vn -0.1408 0.0011 0.9900
vn -0.8097 0.4244 0.4053
vn 0.9962 0.0345 0.0801
vn 0.9965 0.0000 0.0830
vn 0.9992 0.0331 0.0220
vn -0.9899 -0.0046 0.1417
vn -0.9999 0.0002 0.0159
vn -0.7398 0.0011 0.6729
vn -0.8942 0.0070 0.4476
vn 0.3329 -0.9426 0.0256
vn 0.3222 -0.9467 0.0000
vn 0.3162 -0.9486 0.0128
vn 0.9971 -0.0008 0.0767
usemtl Shape.10479
s off
f 4//1 15//1 17//1
f 3//2 1//2 5//2
f 1//3 2//3 7//3
f 2//4 1//4 8//4
f 1//5 3//5 8//5
f 2//6 4//6 9//6
f 4//7 6//7 9//7
f 7//8 2//8 9//8
f 7//9 9//9 10//9
f 6//10 5//10 10//10
f 9//11 6//11 10//11
f 1//12 7//12 11//12
f 7//13 10//13 11//13
f 4//14 2//14 12//14
f 10//15 5//15 13//15
f 11//16 10//16 13//16
f 5//17 1//17 14//17
f 1//18 11//18 14//18
f 2//19 8//19 15//19
f 8//20 3//20 15//20
f 4//1 12//1 15//1
f 12//21 2//21 15//21
f 13//22 5//22 16//22
f 11//23 13//23 16//23
f 5//24 14//24 16//24
f 14//25 11//25 16//25
f 3//26 5//26 17//26
f 6//27 4//27 17//27
f 5//28 6//28 17//28
f 15//29 3//29 17//29
