# Blender v2.79 (sub 0) OBJ File: ''
# www.blender.org
mtllib 1466_link_0_21.mtl
o Shape_IndexedFaceSet.021_Shape_IndexedFaceSet.18082
v -0.049476 0.667224 -0.325133
v -0.051295 0.492990 -0.328342
v 0.044834 0.492853 -0.328339
v 0.008535 0.663456 -0.351899
v 0.046938 0.654586 -0.310554
v -0.053478 0.495121 -0.310554
v -0.041653 0.503990 -0.348941
v 0.046938 0.506941 -0.348941
v -0.058139 0.668302 -0.305540
v 0.046938 0.492170 -0.313508
v 0.046938 0.663456 -0.345988
v -0.053478 0.663456 -0.340082
v -0.015075 0.663456 -0.351899
v -0.020972 0.506941 -0.351899
v -0.053478 0.625061 -0.343035
v 0.046938 0.586648 -0.310554
v -0.051098 0.498970 -0.339592
v 0.046938 0.663456 -0.328278
v 0.046938 0.501040 -0.345988
v 0.046938 0.489202 -0.316461
v -0.050509 0.589599 -0.307597
vn 0.0294 -0.0312 0.9991
vn 1.0000 0.0000 0.0000
vn 0.0162 0.9943 -0.1050
vn 0.1521 0.0186 -0.9882
vn 0.0300 0.9987 -0.0417
vn -0.2636 0.9497 -0.1688
vn 0.0000 0.9902 -0.1394
vn -0.0696 0.9716 -0.2263
vn 0.0435 -0.0082 -0.9990
vn 0.0000 0.0000 -1.0000
vn -0.1423 0.0054 -0.9898
vn -0.9908 0.0104 -0.1351
vn -0.2468 0.0232 -0.9688
vn -0.2933 0.0733 -0.9532
vn 0.0477 0.0000 0.9989
vn -0.9821 -0.1586 -0.1015
vn -0.9961 -0.0244 -0.0849
vn -0.6943 -0.0327 -0.7190
vn -0.9949 -0.0215 -0.0989
vn 0.1368 0.8859 0.4433
vn 0.0461 0.9989 0.0000
vn -0.0013 -0.9071 -0.4209
vn 0.0389 -0.4472 -0.8936
vn -0.0000 -0.7078 -0.7064
vn -0.0120 -0.8829 -0.4695
vn -0.0130 -0.8754 -0.4832
vn -0.0014 -0.9559 -0.2936
vn -0.0519 -0.9923 0.1125
vn 0.0001 -0.7053 0.7089
vn 0.4401 -0.8334 -0.3341
vn -0.0402 -0.0300 0.9987
vn 0.0284 -0.0322 0.9991
vn 0.0296 -0.0232 0.9993
usemtl Shape.18094
s off
f 10//1 16//1 21//1
f 8//2 5//2 10//2
f 4//3 1//3 11//3
f 8//4 4//4 11//4
f 5//2 8//2 11//2
f 1//5 9//5 11//5
f 9//6 1//6 12//6
f 1//7 4//7 13//7
f 12//8 1//8 13//8
f 4//9 8//9 14//9
f 13//10 4//10 14//10
f 7//11 13//11 14//11
f 9//12 12//12 15//12
f 13//13 7//13 15//13
f 12//14 13//14 15//14
f 5//15 9//15 16//15
f 10//2 5//2 16//2
f 2//16 6//16 17//16
f 6//17 9//17 17//17
f 15//18 7//18 17//18
f 9//19 15//19 17//19
f 9//20 5//20 18//20
f 5//2 11//2 18//2
f 11//21 9//21 18//21
f 3//22 2//22 19//22
f 8//2 10//2 19//2
f 14//23 8//23 19//23
f 7//24 14//24 19//24
f 2//25 17//25 19//25
f 17//26 7//26 19//26
f 2//27 3//27 20//27
f 6//28 2//28 20//28
f 10//29 6//29 20//29
f 3//30 19//30 20//30
f 19//2 10//2 20//2
f 9//31 6//31 21//31
f 6//32 10//32 21//32
f 16//33 9//33 21//33
