# Blender v2.79 (sub 0) OBJ File: ''
# www.blender.org
mtllib 1466_link_0_18.mtl
o Shape_IndexedFaceSet.018_Shape_IndexedFaceSet.18079
v -0.038706 0.524644 0.235888
v 0.002481 0.545213 0.632593
v -0.042156 0.545646 0.076179
v 0.002638 0.518738 0.194535
v -0.006226 0.515783 0.581310
v -0.036826 0.514808 0.064077
v -0.038706 0.539408 0.625636
v -0.026894 0.542363 0.082313
v -0.026894 0.524644 0.619690
v 0.002638 0.515783 0.587202
v -0.012132 0.518738 0.082313
v -0.041664 0.545318 0.522280
v -0.042193 0.530550 0.075719
v -0.009179 0.521692 0.631528
v -0.020987 0.515783 0.457304
v 0.002802 0.545427 0.621676
v -0.038706 0.536457 0.590175
v -0.032796 0.518738 0.315622
v 0.002257 0.521845 0.626826
v -0.035753 0.545318 0.631528
v -0.041664 0.536457 0.392328
v -0.012132 0.518738 0.622663
vn 0.1668 -0.9744 0.1507
vn 0.4145 0.3936 -0.8205
vn 0.1235 -0.9923 -0.0075
vn -0.0013 -1.0000 0.0020
vn 0.1736 -0.9846 -0.0228
vn 0.8428 0.5266 -0.1109
vn 0.5265 0.3290 -0.7839
vn -0.8999 0.0155 -0.4358
vn -1.0000 0.0024 0.0011
vn -0.4991 -0.6363 0.5883
vn -0.0315 -0.9995 0.0037
vn 0.2170 0.9760 -0.0175
vn 0.7198 0.6928 -0.0436
vn 1.0000 -0.0055 -0.0000
vn -0.9092 -0.4162 0.0139
vn -0.7692 -0.6368 0.0530
vn -0.9797 -0.1997 0.0166
vn -0.4763 -0.8790 0.0214
vn -0.5328 -0.8458 0.0268
vn -0.7931 -0.6087 0.0222
vn -0.7403 -0.6717 0.0274
vn 0.3730 -0.2257 0.8999
vn 0.9994 -0.0168 0.0291
vn 0.9997 -0.0203 0.0127
vn -0.0139 0.9999 0.0008
vn -0.9123 0.4066 0.0494
vn -0.0279 -0.0314 0.9991
vn -0.4508 -0.5071 0.7346
vn 0.0022 0.9998 0.0197
vn -0.0027 1.0000 0.0006
vn -0.9165 -0.3998 0.0129
vn -0.9447 -0.3278 0.0077
vn -0.9994 -0.0337 0.0023
vn -0.9124 -0.4091 0.0136
vn -0.9767 -0.2142 0.0146
vn -0.0432 -0.9969 0.0651
vn -0.4088 -0.8163 0.4082
vn -0.2631 -0.9643 0.0313
vn -0.3776 -0.9252 0.0368
vn 0.1260 -0.9530 0.2756
usemtl Shape.18091
s off
f 10//1 19//1 22//1
f 6//2 3//2 8//2
f 6//3 4//3 10//3
f 5//4 6//4 10//4
f 4//5 6//5 11//5
f 8//6 4//6 11//6
f 6//7 8//7 11//7
f 3//8 6//8 13//8
f 12//9 3//9 13//9
f 7//10 9//10 14//10
f 6//11 5//11 15//11
f 8//12 3//12 16//12
f 4//13 8//13 16//13
f 10//14 4//14 16//14
f 1//15 6//15 17//15
f 9//16 7//16 17//16
f 7//17 12//17 17//17
f 6//18 15//18 18//18
f 15//19 9//19 18//19
f 17//20 6//20 18//20
f 9//21 17//21 18//21
f 2//22 14//22 19//22
f 16//23 2//23 19//23
f 10//24 16//24 19//24
f 3//25 12//25 20//25
f 12//26 7//26 20//26
f 14//27 2//27 20//27
f 7//28 14//28 20//28
f 2//29 16//29 20//29
f 16//30 3//30 20//30
f 6//31 1//31 21//31
f 13//32 6//32 21//32
f 12//33 13//33 21//33
f 1//34 17//34 21//34
f 17//35 12//35 21//35
f 5//36 10//36 22//36
f 14//37 9//37 22//37
f 15//38 5//38 22//38
f 9//39 15//39 22//39
f 19//40 14//40 22//40
