# Blender v2.79 (sub 0) OBJ File: ''
# www.blender.org
mtllib 1466_link_1_79.mtl
o Shape_IndexedFaceSet.079_Shape_IndexedFaceSet.10482
v -0.069924 0.063076 0.083678
v -0.127464 0.146923 0.057388
v -0.122362 0.095980 0.052289
v -0.071425 0.070491 0.052289
v -0.107078 0.152019 0.082859
v -0.122362 0.101067 0.082859
v -0.107078 0.152019 0.052289
v -0.107078 0.065395 0.052289
vn -0.8921 -0.4458 0.0742
vn 0.9216 0.3854 0.0470
vn -0.7813 0.2344 0.5784
vn -0.9947 -0.1013 0.0169
vn -0.0128 0.0038 0.9999
vn -0.2586 0.0705 -0.9634
vn 0.0000 0.0000 -1.0000
vn 0.9162 0.4007 0.0000
vn -0.2425 0.9701 0.0000
vn 0.1376 -0.9625 -0.2339
vn -0.4991 -0.6772 0.5407
usemtl Shape.10492
s off
f 6//1 3//1 8//1
f 1//2 4//2 5//2
f 5//3 2//3 6//3
f 2//4 3//4 6//4
f 1//5 5//5 6//5
f 3//6 2//6 7//6
f 4//7 3//7 7//7
f 5//8 4//8 7//8
f 2//9 5//9 7//9
f 3//7 4//7 8//7
f 4//10 1//10 8//10
f 1//11 6//11 8//11
