# Blender v2.79 (sub 0) OBJ File: ''
# www.blender.org
mtllib 1466_link_1_13.mtl
o Shape_IndexedFaceSet.013_Shape_IndexedFaceSet.10416
v -0.117270 -0.826308 0.103235
v -0.023542 -0.743110 0.077034
v -0.026023 -0.745199 0.062801
v -0.025555 -0.826308 0.108331
v -0.081590 -0.760085 0.118523
v -0.122369 -0.780465 0.062480
v -0.117270 -0.826308 0.072679
v -0.025555 -0.765176 0.128715
v -0.122369 -0.760085 0.098139
v -0.025555 -0.775374 0.062480
v -0.087759 -0.741377 0.059695
v -0.040850 -0.826308 0.123619
vn -0.1820 -0.0364 0.9826
vn 0.0000 -1.0000 0.0000
vn -0.9939 -0.1105 0.0000
vn 0.9994 -0.0114 0.0341
vn 0.0120 0.9194 0.3930
vn -0.4469 0.0344 0.8939
vn -0.9964 -0.0735 0.0420
vn 0.9846 0.0171 -0.1741
vn 0.9981 -0.0415 -0.0461
vn 0.2776 -0.6428 -0.7140
vn 0.0114 -0.2159 -0.9763
vn 0.0689 0.9853 -0.1566
vn -0.0575 0.9496 0.3080
vn -0.1571 0.9363 0.3142
vn -0.7142 0.6077 -0.3473
vn 0.0509 0.0114 -0.9986
vn 0.0039 -0.0745 -0.9972
vn -0.2568 -0.0839 0.9628
vn 0.6881 -0.2295 0.6884
usemtl Shape.10426
s off
f 8//1 5//1 12//1
f 4//2 1//2 7//2
f 1//3 6//3 7//3
f 4//4 2//4 8//4
f 2//5 5//5 8//5
f 1//6 5//6 9//6
f 6//7 1//7 9//7
f 3//8 2//8 10//8
f 2//9 4//9 10//9
f 4//10 7//10 10//10
f 7//11 6//11 10//11
f 2//12 3//12 11//12
f 5//13 2//13 11//13
f 9//14 5//14 11//14
f 6//15 9//15 11//15
f 3//16 10//16 11//16
f 10//17 6//17 11//17
f 1//2 4//2 12//2
f 5//18 1//18 12//18
f 4//19 8//19 12//19
