# Blender v2.79 (sub 0) OBJ File: ''
# www.blender.org
mtllib 1466_link_0_28.mtl
o Shape_IndexedFaceSet.028_Shape_IndexedFaceSet.18089
v -0.041651 0.459692 -0.195363
v -0.044617 0.583687 -0.180602
v -0.041651 0.465598 -0.171740
v 0.043982 0.471504 -0.195363
v 0.036981 0.471140 -0.172938
v -0.041651 0.583687 -0.171740
v 0.043982 0.583687 -0.183553
v 0.043982 0.580734 -0.171740
v -0.038702 0.583687 -0.183553
v 0.035443 0.458525 -0.186293
v -0.038702 0.474457 -0.195363
v 0.043794 0.472102 -0.175304
v 0.046940 0.471504 -0.192410
v -0.044617 0.474457 -0.189457
v 0.029478 0.459556 -0.194338
v -0.030913 0.457455 -0.189131
vn 0.0221 -0.9895 -0.1432
vn -0.9483 -0.0000 0.3174
vn 0.0000 1.0000 -0.0000
vn 0.0334 0.9696 0.2424
vn 0.0161 -0.0120 0.9998
vn 0.0000 0.0000 1.0000
vn 0.0618 -0.7291 0.6816
vn -0.4678 0.0934 -0.8789
vn -0.0000 0.0000 -1.0000
vn 0.0037 0.1047 -0.9945
vn -0.4444 0.0963 -0.8907
vn 0.0000 0.1075 -0.9942
vn 0.3319 -0.0315 0.9428
vn 0.3190 -0.7070 0.6311
vn 0.7755 -0.6097 0.1639
vn 0.7046 0.0743 -0.7057
vn 0.9996 0.0258 0.0065
vn 0.9834 -0.0076 0.1811
vn -0.8454 0.0432 -0.5325
vn -0.9872 -0.0129 0.1588
vn -0.9745 -0.2175 0.0544
vn 0.0141 -0.1025 -0.9946
vn 0.5303 -0.6971 -0.4825
vn 0.5204 -0.6764 -0.5212
vn -0.3243 -0.9177 0.2294
vn -0.0034 -0.9064 0.4223
vn 0.0031 -0.9395 -0.3426
usemtl Shape.18101
s off
f 15//1 10//1 16//1
f 2//2 3//2 6//2
f 2//3 6//3 7//3
f 7//4 6//4 8//4
f 3//5 5//5 8//5
f 6//6 3//6 8//6
f 2//3 7//3 9//3
f 5//7 3//7 10//7
f 1//8 2//8 11//8
f 4//9 1//9 11//9
f 7//10 4//10 11//10
f 2//11 9//11 11//11
f 9//12 7//12 11//12
f 8//13 5//13 12//13
f 5//14 10//14 12//14
f 12//15 10//15 13//15
f 4//16 7//16 13//16
f 7//17 8//17 13//17
f 8//18 12//18 13//18
f 2//19 1//19 14//19
f 3//20 2//20 14//20
f 1//21 3//21 14//21
f 1//22 4//22 15//22
f 13//23 10//23 15//23
f 4//24 13//24 15//24
f 3//25 1//25 16//25
f 10//26 3//26 16//26
f 1//27 15//27 16//27
