# Blender v2.79 (sub 0) OBJ File: ''
# www.blender.org
mtllib 1466_link_1_38.mtl
o Shape_IndexedFaceSet.038_Shape_IndexedFaceSet.10441
v 0.122190 -0.780453 0.103239
v -0.025516 -0.775356 0.067582
v -0.025516 -0.780453 0.072681
v -0.025516 -0.765166 0.128722
v 0.082123 -0.743144 0.064762
v 0.173170 -0.780453 0.072681
v 0.111998 -0.760079 0.108332
v -0.025516 -0.744788 0.082873
v 0.040713 -0.780453 0.128722
v 0.168054 -0.760079 0.067582
v 0.010137 -0.760079 0.128722
v -0.025516 -0.744788 0.067582
v 0.057931 -0.740354 0.072707
vn -0.0244 0.9177 -0.3966
vn -1.0000 0.0000 0.0000
vn 0.0000 -1.0000 0.0000
vn 0.0000 -0.7072 -0.7070
vn 0.5137 0.0427 0.8569
vn -0.2174 -0.9417 0.2569
vn 0.2973 -0.0889 0.9506
vn 0.0093 -0.1181 -0.9930
vn 0.0188 -0.2383 -0.9710
vn 0.5550 0.3304 0.7634
vn -0.1293 0.9061 0.4027
vn 0.0000 0.0000 1.0000
vn 0.1883 0.2826 0.9406
vn -0.0262 0.0000 -0.9997
vn -0.0531 0.9986 0.0000
vn 0.1819 0.9591 0.2170
vn 0.1820 0.9509 0.2503
vn 0.0780 0.9176 0.3897
vn -0.0108 0.9460 0.3239
usemtl Shape.10451
s off
f 5//1 12//1 13//1
f 2//2 3//2 4//2
f 1//3 3//3 6//3
f 3//4 2//4 6//4
f 1//5 6//5 7//5
f 2//2 4//2 8//2
f 3//3 1//3 9//3
f 4//6 3//6 9//6
f 1//7 7//7 9//7
f 2//8 5//8 10//8
f 6//9 2//9 10//9
f 7//10 6//10 10//10
f 8//11 4//11 11//11
f 4//12 9//12 11//12
f 9//13 7//13 11//13
f 5//14 2//14 12//14
f 2//2 8//2 12//2
f 12//15 8//15 13//15
f 10//16 5//16 13//16
f 7//17 10//17 13//17
f 11//18 7//18 13//18
f 8//19 11//19 13//19
