# Blender v2.79 (sub 0) OBJ File: ''
# www.blender.org
mtllib 1466_link_1_29.mtl
o Shape_IndexedFaceSet.029_Shape_IndexedFaceSet.10432
v 0.162972 -0.765166 -0.350256
v -0.010249 -0.778624 -0.397550
v -0.020442 -0.775356 -0.401210
v -0.025555 -0.744788 -0.334970
v 0.031812 -0.776474 -0.326743
v 0.088646 -0.739783 -0.332926
v 0.183361 -0.780453 -0.334970
v 0.055999 -0.760079 -0.396112
v -0.025555 -0.780453 -0.345165
v -0.025555 -0.760079 -0.396112
v 0.025406 -0.780453 -0.401210
v 0.178248 -0.760079 -0.329873
v 0.106919 -0.760079 -0.380827
vn 0.2201 0.9255 -0.3082
vn -0.0265 0.2059 0.9782
vn -0.2669 -0.9573 -0.1114
vn -0.2783 -0.2640 0.9235
vn -0.0120 -0.9690 0.2468
vn -0.0381 0.9694 -0.2424
vn 0.0000 0.3165 -0.9486
vn 0.0000 0.9521 -0.3058
vn -0.9530 -0.2814 -0.1125
vn -1.0000 0.0000 -0.0000
vn -0.0956 -0.8598 -0.5016
vn 0.0233 0.2096 -0.9775
vn -0.0564 -0.9971 -0.0513
vn 0.0000 -1.0000 0.0000
vn 0.0030 0.1617 0.9868
vn 0.0467 -0.2314 0.9717
vn 0.7127 0.3333 -0.6173
vn 0.4429 -0.2655 -0.8563
vn 0.1061 0.9295 -0.3534
vn 0.3280 -0.5298 -0.7821
vn 0.2823 -0.1886 -0.9406
vn 0.3202 0.8346 -0.4483
usemtl Shape.10442
s off
f 6//1 12//1 13//1
f 4//2 5//2 6//2
f 3//3 2//3 9//3
f 5//4 4//4 9//4
f 7//5 5//5 9//5
f 4//6 6//6 10//6
f 8//7 3//7 10//7
f 6//8 8//8 10//8
f 3//9 9//9 10//9
f 9//10 4//10 10//10
f 2//11 3//11 11//11
f 3//12 8//12 11//12
f 9//13 2//13 11//13
f 7//14 9//14 11//14
f 6//15 5//15 12//15
f 5//16 7//16 12//16
f 7//17 1//17 12//17
f 1//18 7//18 13//18
f 8//19 6//19 13//19
f 7//20 11//20 13//20
f 11//21 8//21 13//21
f 12//22 1//22 13//22
