# Blender v2.79 (sub 0) OBJ File: ''
# www.blender.org
mtllib 1466_link_1_65.mtl
o Shape_IndexedFaceSet.065_Shape_IndexedFaceSet.10468
v 0.137507 0.376212 -0.309470
v 0.208826 0.376212 -0.187199
v 0.204314 0.297716 -0.192651
v 0.082792 0.378723 -0.317856
v 0.096755 0.294708 -0.334939
v 0.188444 0.294708 -0.187199
v 0.198629 0.294708 -0.233076
v 0.086558 0.294708 -0.314561
v 0.190629 0.378398 -0.183238
v 0.198629 0.376212 -0.233076
v 0.162976 0.294708 -0.284000
v 0.096755 0.376212 -0.334939
vn -0.7743 0.0000 -0.6329
vn 0.3380 -0.0845 0.9373
vn 0.9896 -0.0475 -0.1356
vn 0.2008 -0.9786 0.0446
vn 0.0000 -1.0000 0.0000
vn -0.8928 -0.0575 -0.4468
vn -0.7808 -0.0105 0.6246
vn 0.2065 -0.0516 0.9771
vn -0.7804 -0.0092 0.6252
vn 0.0522 0.9978 -0.0418
vn 0.9762 0.0000 -0.2170
vn 0.1138 0.9932 -0.0253
vn 0.0480 0.9982 -0.0361
vn 0.6087 -0.0571 -0.7913
vn 0.7799 0.0487 -0.6240
vn 0.8192 0.0000 -0.5735
vn 0.0604 0.9935 -0.0967
vn 0.5300 0.0000 -0.8480
usemtl Shape.10478
s off
f 5//1 4//1 12//1
f 3//2 2//2 6//2
f 2//3 3//3 7//3
f 3//4 6//4 7//4
f 6//5 5//5 7//5
f 4//6 5//6 8//6
f 5//5 6//5 8//5
f 6//7 4//7 8//7
f 6//8 2//8 9//8
f 4//9 6//9 9//9
f 1//10 4//10 10//10
f 2//11 7//11 10//11
f 9//12 2//12 10//12
f 4//13 9//13 10//13
f 5//14 1//14 11//14
f 7//5 5//5 11//5
f 1//15 10//15 11//15
f 10//16 7//16 11//16
f 4//17 1//17 12//17
f 1//18 5//18 12//18
