# Blender v2.79 (sub 0) OBJ File: ''
# www.blender.org
mtllib 1466_link_0_37.mtl
o Shape_IndexedFaceSet.037_Shape_IndexedFaceSet.18098
v 0.038743 0.556356 0.039039
v 0.043983 0.660481 0.040911
v 0.043983 0.539423 0.082259
v 0.046937 0.663456 0.076346
v 0.016372 0.668298 0.064766
v 0.014452 0.574863 0.058639
v 0.046937 0.539423 0.040911
v 0.014452 0.663456 0.079301
v 0.026268 0.539423 0.079301
v 0.015629 0.568580 0.080761
v 0.047933 0.667261 0.058458
v 0.046937 0.539423 0.076346
v 0.026268 0.539423 0.064536
v 0.041029 0.657531 0.040911
v 0.035124 0.663456 0.079301
vn 0.0000 0.9487 0.3160
vn 0.2339 0.0057 -0.9722
vn -0.9922 0.0284 -0.1216
vn 0.0000 -1.0000 0.0000
vn -0.0375 0.0149 0.9992
vn -0.9987 -0.0116 0.0498
vn -0.1637 -0.1088 0.9805
vn -0.0397 0.9350 -0.3524
vn 0.0743 0.9746 0.2114
vn 0.9733 0.0238 -0.2283
vn 1.0000 -0.0078 0.0000
vn 0.8946 0.0000 0.4469
vn 0.9985 0.0000 0.0556
vn -0.7341 -0.3423 -0.5865
vn -0.6896 -0.4004 -0.6034
vn -0.9458 -0.3222 -0.0412
vn -0.9394 -0.3428 0.0000
vn -0.0189 0.0189 -0.9996
vn -0.4874 0.4881 -0.7241
vn -0.6145 0.0285 -0.7884
vn -0.6799 0.0619 -0.7307
vn 0.2425 0.0404 0.9693
vn 0.0610 0.9679 0.2438
vn 0.0000 0.0238 0.9997
usemtl Shape.18110
s off
f 5//1 8//1 15//1
f 1//2 2//2 7//2
f 5//3 6//3 8//3
f 7//4 3//4 9//4
f 3//5 8//5 10//5
f 8//6 6//6 10//6
f 9//7 3//7 10//7
f 2//8 5//8 11//8
f 5//9 4//9 11//9
f 7//10 2//10 11//10
f 7//11 11//11 12//11
f 4//12 3//12 12//12
f 3//4 7//4 12//4
f 11//13 4//13 12//13
f 6//14 1//14 13//14
f 1//15 7//15 13//15
f 7//4 9//4 13//4
f 10//16 6//16 13//16
f 9//17 10//17 13//17
f 2//18 1//18 14//18
f 5//19 2//19 14//19
f 1//20 6//20 14//20
f 6//21 5//21 14//21
f 3//22 4//22 15//22
f 4//23 5//23 15//23
f 8//24 3//24 15//24
