# Blender v2.79 (sub 0) OBJ File: ''
# www.blender.org
mtllib 1466_link_1_11.mtl
o Shape_IndexedFaceSet.011_Shape_IndexedFaceSet.10414
v -0.117270 -0.831403 -0.289119
v -0.025555 -0.744797 -0.309481
v -0.024490 -0.743844 -0.335753
v -0.122369 -0.744797 -0.319676
v -0.122369 -0.744797 -0.263631
v -0.025555 -0.826308 -0.329871
v -0.112172 -0.821212 -0.263631
v -0.123219 -0.775146 -0.335595
v -0.025555 -0.826308 -0.309481
v -0.122369 -0.831403 -0.268729
vn 0.0587 -0.9982 0.0147
vn 0.0175 0.9992 0.0369
vn -0.0097 1.0000 0.0000
vn 0.4273 0.0570 0.9023
vn -0.1481 0.4626 -0.8741
vn -0.9996 0.0280 0.0000
vn 0.0210 -0.0714 -0.9972
vn -0.2866 -0.6280 -0.7235
vn 0.9992 0.0000 0.0405
vn 0.9999 -0.0129 0.0000
vn 0.0555 -0.9985 0.0000
vn 0.4678 0.0000 0.8838
vn 0.3206 -0.6604 0.6790
vn -0.4030 -0.0538 0.9136
vn -0.9284 -0.2900 -0.2322
vn -0.9999 -0.0007 0.0121
usemtl Shape.10424
s off
f 1//1 9//1 10//1
f 2//2 3//2 5//2
f 3//3 4//3 5//3
f 2//4 5//4 7//4
f 4//5 3//5 8//5
f 5//6 4//6 8//6
f 3//7 6//7 8//7
f 6//8 1//8 8//8
f 3//9 2//9 9//9
f 6//10 3//10 9//10
f 1//11 6//11 9//11
f 2//12 7//12 9//12
f 9//13 7//13 10//13
f 7//14 5//14 10//14
f 8//15 1//15 10//15
f 5//16 8//16 10//16
