# Blender v2.79 (sub 0) OBJ File: ''
# www.blender.org
mtllib 1466_link_0_9.mtl
o Shape_IndexedFaceSet.009_Shape_IndexedFaceSet.18070
v 0.082734 0.663646 -0.333988
v 0.150311 0.681177 -0.035879
v 0.046940 0.681177 -0.035879
v 0.046940 0.681177 -0.337128
v 0.046940 0.666410 -0.035879
v 0.151575 0.663239 -0.271106
v 0.150311 0.681177 -0.283945
v 0.150311 0.666410 -0.035879
v 0.044837 0.663095 -0.330757
v 0.129618 0.675267 -0.310536
v 0.148751 0.663723 -0.289735
v 0.088294 0.681177 -0.328264
v 0.049895 0.666410 -0.345992
vn 0.1774 0.5324 -0.8277
vn 0.0000 1.0000 0.0000
vn 0.0000 0.0000 1.0000
vn 0.9975 0.0703 0.0000
vn 1.0000 0.0000 0.0054
vn 0.0000 -0.9999 0.0135
vn -0.9933 0.1155 0.0000
vn -1.0000 0.0000 0.0071
vn 0.0128 -0.9997 -0.0205
vn -0.0050 -0.9999 0.0113
vn 0.7662 0.1396 -0.6273
vn 0.0207 -0.9994 -0.0291
vn 0.9878 -0.0383 -0.1507
vn 0.4836 -0.4969 -0.7206
vn 0.4086 0.1636 -0.8979
vn 0.3047 0.8516 -0.4264
vn -0.9490 -0.0007 -0.3152
vn -0.0040 -0.9768 -0.2139
vn 0.3511 0.1881 -0.9172
usemtl Shape.18082
s off
f 4//1 12//1 13//1
f 3//2 2//2 4//2
f 2//3 3//3 5//3
f 4//2 2//2 7//2
f 2//4 6//4 7//4
f 2//3 5//3 8//3
f 6//5 2//5 8//5
f 5//6 6//6 8//6
f 3//7 4//7 9//7
f 5//8 3//8 9//8
f 1//9 6//9 9//9
f 6//10 5//10 9//10
f 10//11 7//11 11//11
f 6//12 1//12 11//12
f 7//13 6//13 11//13
f 1//14 10//14 11//14
f 4//2 7//2 12//2
f 10//15 1//15 12//15
f 7//16 10//16 12//16
f 9//17 4//17 13//17
f 1//18 9//18 13//18
f 12//19 1//19 13//19
