# Blender v2.79 (sub 0) OBJ File: ''
# www.blender.org
mtllib 1466_link_1_10.mtl
o Shape_IndexedFaceSet.010_Shape_IndexedFaceSet.10413
v -0.091787 -0.811021 -0.385916
v -0.026384 -0.745539 -0.335498
v -0.025555 -0.775370 -0.334974
v -0.122369 -0.780465 -0.334974
v -0.045939 -0.760083 -0.396114
v -0.030653 -0.831403 -0.375724
v -0.122369 -0.760083 -0.370631
v -0.122369 -0.826308 -0.345166
v -0.025555 -0.826308 -0.396114
v -0.087554 -0.741854 -0.332897
v -0.122369 -0.831403 -0.365544
v -0.025555 -0.760083 -0.396114
vn 0.0000 0.9609 -0.2771
vn -0.3149 0.0943 -0.9444
vn 0.0114 -0.2170 0.9761
vn 0.2266 -0.5863 0.7778
vn -1.0000 0.0000 0.0000
vn -0.1633 -0.0503 -0.9853
vn 0.9577 -0.2211 0.1842
vn 0.0436 0.0188 0.9989
vn 0.0030 -0.0564 0.9984
vn -0.7044 0.6162 0.3522
vn -0.1148 0.9318 -0.3443
vn -0.5251 -0.0605 -0.8489
vn 0.0269 -0.9698 0.2425
vn -0.2408 -0.4811 -0.8429
vn -0.0276 -0.9682 -0.2488
vn 0.9996 0.0279 0.0070
vn 1.0000 0.0000 0.0000
vn 0.0000 0.0000 -1.0000
vn 0.0486 0.9714 -0.2324
usemtl Shape.10423
s off
f 5//1 10//1 12//1
f 5//2 1//2 7//2
f 3//3 4//3 8//3
f 6//4 3//4 8//4
f 4//5 7//5 8//5
f 1//6 5//6 9//6
f 3//7 6//7 9//7
f 3//8 2//8 10//8
f 4//9 3//9 10//9
f 7//10 4//10 10//10
f 5//11 7//11 10//11
f 7//12 1//12 11//12
f 6//13 8//13 11//13
f 8//5 7//5 11//5
f 1//14 9//14 11//14
f 9//15 6//15 11//15
f 2//16 3//16 12//16
f 3//17 9//17 12//17
f 9//18 5//18 12//18
f 10//19 2//19 12//19
