# Blender v2.79 (sub 0) OBJ File: ''
# www.blender.org
mtllib 1466_link_1_116.mtl
o Shape_IndexedFaceSet.116_Shape_IndexedFaceSet.10519
v 0.086525 0.039927 0.755465
v 0.122947 0.123007 0.764815
v 0.121606 0.112611 0.764557
v -0.005173 0.029737 0.765654
v 0.108505 0.128391 0.739738
v -0.003841 0.020612 0.740437
v 0.122214 0.095959 0.740181
v 0.066139 0.019536 0.765654
v 0.055985 0.024647 0.740181
v -0.010048 0.037491 0.739244
v 0.109748 0.129841 0.766442
vn -0.6084 0.7935 -0.0148
vn 0.8355 -0.4438 0.3240
vn 0.9850 -0.1299 0.1133
vn 0.8422 0.3504 -0.4098
vn 0.7021 -0.4116 0.5811
vn -0.1336 -0.9341 0.3310
vn 0.0647 -0.9731 -0.2210
vn 0.5767 -0.5356 -0.6169
vn 0.5573 -0.7427 -0.3712
vn -0.9377 -0.3396 0.0734
vn 0.0111 -0.0090 -0.9999
vn 0.0005 -0.0703 -0.9975
vn 0.0120 -0.0112 -0.9999
vn 0.1029 -0.0379 0.9940
vn 0.4519 0.8894 -0.0693
vn 0.0939 -0.0442 0.9946
vn -0.0010 -0.0068 1.0000
vn -0.6226 0.7123 0.3241
usemtl Shape.10529
s off
f 5//1 10//1 11//1
f 3//2 1//2 7//2
f 2//3 3//3 7//3
f 5//4 2//4 7//4
f 1//5 3//5 8//5
f 4//6 6//6 8//6
f 8//7 6//7 9//7
f 7//8 1//8 9//8
f 1//9 8//9 9//9
f 6//10 4//10 10//10
f 5//11 7//11 10//11
f 9//12 6//12 10//12
f 7//13 9//13 10//13
f 3//14 2//14 11//14
f 2//15 5//15 11//15
f 8//16 3//16 11//16
f 4//17 8//17 11//17
f 10//18 4//18 11//18
