# Blender v2.79 (sub 0) OBJ File: ''
# www.blender.org
mtllib 1466_link_1_64.mtl
o Shape_IndexedFaceSet.064_Shape_IndexedFaceSet.10467
v 0.005018 0.294708 -0.355342
v 0.086546 0.376212 -0.314590
v 0.086546 0.376212 -0.340057
v 0.002148 0.379082 -0.334966
v 0.086546 0.294708 -0.319685
v 0.005018 0.294708 -0.334966
v 0.005018 0.376212 -0.355342
v 0.071248 0.294708 -0.345156
v 0.030500 0.376212 -0.355342
vn 0.2631 0.0110 -0.9647
vn 0.0340 0.9994 0.0000
vn 1.0000 -0.0000 0.0000
vn -0.1839 -0.0613 0.9810
vn -0.2349 -0.0080 0.9720
vn -0.9994 -0.0340 0.0000
vn 0.0000 -1.0000 0.0000
vn -0.9902 -0.0000 -0.1395
vn 0.8503 -0.1276 -0.5107
vn 0.0277 0.9944 -0.1015
vn 0.0000 0.0000 -1.0000
vn 0.0000 0.9902 -0.1395
vn 0.1518 -0.0475 -0.9873
usemtl Shape.10477
s off
f 3//1 8//1 9//1
f 2//2 3//2 4//2
f 3//3 2//3 5//3
f 5//4 2//4 6//4
f 2//5 4//5 6//5
f 4//6 1//6 6//6
f 1//7 5//7 6//7
f 1//8 4//8 7//8
f 5//7 1//7 8//7
f 3//9 5//9 8//9
f 4//10 3//10 9//10
f 1//11 7//11 9//11
f 7//12 4//12 9//12
f 8//13 1//13 9//13
