# Blender v2.79 (sub 0) OBJ File: ''
# www.blender.org
mtllib 1466_link_1_21.mtl
o Shape_IndexedFaceSet.021_Shape_IndexedFaceSet.10424
v 0.089220 0.068663 0.958364
v 0.016377 -0.065337 0.813640
v 0.066486 -0.062005 0.817678
v 0.107884 0.103330 0.808770
v 0.009525 0.109590 0.963925
v 0.018541 -0.028512 0.994888
v 0.121604 -0.021894 0.917979
v 0.017063 0.049009 0.814889
v 0.116474 0.091602 0.904398
v 0.108725 -0.036864 0.829115
v 0.106922 -0.051797 0.903253
v 0.052958 -0.008158 1.000353
v 0.123340 0.095108 0.818737
v 0.016692 0.098841 0.982867
v 0.107727 -0.012631 0.954453
v 0.015209 -0.067088 0.821713
v 0.122154 -0.026936 0.862559
v 0.018789 0.038452 1.004030
v 0.052745 0.093379 0.973611
v 0.043183 -0.032126 0.988278
v 0.100006 -0.038096 0.817600
v 0.062159 0.032919 0.990831
v 0.050883 -0.067088 0.836995
vn -0.0004 -0.9743 0.2252
vn -0.0740 0.0113 -0.9972
vn -0.4984 0.7941 -0.3480
vn 0.2186 0.9707 0.0994
vn 0.5358 -0.8301 -0.1542
vn 0.4322 0.8990 0.0714
vn 0.9951 0.0548 0.0820
vn 0.8490 0.1692 0.5007
vn 0.9382 0.0826 0.3360
vn 0.7190 -0.5574 0.4151
vn 0.0810 -0.9764 -0.2001
vn -0.9978 -0.0579 0.0321
vn -0.9899 0.0075 -0.1416
vn -0.9984 0.0127 -0.0556
vn 0.8864 -0.4602 0.0507
vn 0.7554 -0.6456 -0.1117
vn 0.9999 -0.0060 0.0105
vn 0.9329 -0.1297 -0.3361
vn -0.9820 -0.0220 0.1878
vn -0.0773 -0.1346 0.9879
vn -0.9071 0.1108 0.4061
vn 0.2811 0.3261 0.9026
vn 0.6137 0.5660 0.5505
vn 0.2919 0.9245 0.2450
vn 0.2385 0.8806 0.4095
vn 0.1568 -0.4946 0.8549
vn 0.4864 -0.6977 0.5260
vn 0.5125 -0.5438 0.6645
vn 0.0880 -0.1267 -0.9880
vn 0.0686 -0.0660 -0.9955
vn 0.5472 -0.7683 -0.3321
vn 0.5090 -0.0819 -0.8569
vn 0.7969 -0.1346 -0.5890
vn 0.6914 0.1232 0.7119
vn 0.6436 0.0331 0.7647
vn 0.3053 0.1496 0.9404
vn 0.3127 0.3049 0.8996
vn 0.5367 0.3074 0.7858
vn 0.2861 -0.9580 -0.0209
vn 0.0819 -0.9781 -0.1912
vn -0.0935 -0.9714 0.2182
vn -0.0834 -0.9718 0.2204
usemtl Shape.10434
s off
f 11//1 20//1 23//1
f 4//2 2//2 8//2
f 5//3 4//3 8//3
f 4//4 5//4 9//4
f 3//5 10//5 11//5
f 4//6 9//6 13//6
f 9//7 7//7 13//7
f 9//8 1//8 15//8
f 7//9 9//9 15//9
f 11//10 7//10 15//10
f 2//11 3//11 16//11
f 6//12 5//12 16//12
f 8//13 2//13 16//13
f 5//14 8//14 16//14
f 7//15 11//15 17//15
f 11//16 10//16 17//16
f 13//17 7//17 17//17
f 10//18 13//18 17//18
f 5//19 6//19 18//19
f 6//20 12//20 18//20
f 14//21 5//21 18//21
f 14//22 18//22 19//22
f 1//23 9//23 19//23
f 9//24 5//24 19//24
f 5//25 14//25 19//25
f 12//26 6//26 20//26
f 11//27 15//27 20//27
f 15//28 12//28 20//28
f 3//29 2//29 21//29
f 2//30 4//30 21//30
f 10//31 3//31 21//31
f 4//32 13//32 21//32
f 13//33 10//33 21//33
f 15//34 1//34 22//34
f 12//35 15//35 22//35
f 18//36 12//36 22//36
f 19//37 18//37 22//37
f 1//38 19//38 22//38
f 3//39 11//39 23//39
f 16//40 3//40 23//40
f 6//41 16//41 23//41
f 20//42 6//42 23//42
