# Blender v2.79 (sub 0) OBJ File: ''
# www.blender.org
mtllib 1466_link_1_47.mtl
o Shape_IndexedFaceSet.047_Shape_IndexedFaceSet.10450
v -0.189358 0.377107 -0.185261
v -0.115690 0.380031 -0.290321
v -0.163133 -0.744788 -0.187199
v -0.198793 0.360934 -0.233054
v -0.210142 -0.758764 -0.185525
v -0.117273 -0.744788 -0.263620
v -0.137653 0.360934 -0.309476
v -0.116100 -0.758941 -0.316137
v -0.163133 -0.235113 -0.187199
v -0.199844 -0.761073 -0.232454
v -0.208983 0.360934 -0.202501
v -0.168223 0.218173 -0.278910
v -0.122373 -0.250374 -0.253440
v -0.117273 0.360934 -0.314572
v -0.136199 -0.760113 -0.312676
v -0.208983 0.360934 -0.187199
v -0.194555 -0.760191 -0.242963
v -0.210304 -0.760713 -0.201034
v -0.117273 -0.449200 -0.319682
v -0.168365 -0.760182 -0.279619
v -0.203893 0.136672 -0.222874
v -0.163133 0.360934 -0.284006
vn -0.7070 0.0011 -0.7072
vn -0.3671 0.9007 -0.2323
vn 0.0359 -0.0009 0.9994
vn 0.2856 -0.9358 0.2069
vn 0.9997 -0.0009 0.0226
vn 0.4097 -0.8784 0.2459
vn 0.8179 0.0332 0.5744
vn 0.0737 0.0000 0.9973
vn -0.5290 0.8300 -0.1764
vn 0.9668 0.0047 0.2557
vn 0.8575 -0.0017 0.5146
vn 0.8537 0.0214 0.5204
vn 0.8517 0.0000 0.5241
vn -0.1514 0.7814 -0.6054
vn 0.9978 0.0011 -0.0660
vn -0.0996 0.0016 0.9950
vn -0.6360 0.7717 0.0000
vn -0.8933 0.0006 -0.4495
vn -0.8295 0.0018 -0.5586
vn 0.1665 -0.9786 0.1212
vn 0.0646 -0.9972 0.0375
vn 0.0508 -0.9983 0.0283
vn -0.9999 0.0011 0.0103
vn -1.0000 0.0012 0.0000
vn -0.2426 0.0061 -0.9701
vn 0.9780 0.0013 -0.2086
vn -0.1690 -0.0119 -0.9855
vn -0.3781 0.0022 -0.9258
vn -0.0548 -0.9970 -0.0554
vn -0.7167 0.0006 -0.6974
vn -0.3562 -0.8990 -0.2547
vn -0.8137 0.0005 -0.5813
vn -0.8994 0.0006 -0.4372
vn -0.9486 0.0072 -0.3164
vn -0.9488 -0.0009 -0.3159
vn -0.9680 0.0008 -0.2508
vn -0.3903 0.8792 -0.2731
vn -0.3881 0.8358 -0.3883
vn -0.8192 0.0087 -0.5734
vn -0.7163 0.0006 -0.6977
usemtl Shape.10460
s off
f 7//1 15//1 22//1
f 1//2 2//2 4//2
f 3//3 1//3 5//3
f 3//4 5//4 8//4
f 2//5 6//5 8//5
f 6//6 3//6 8//6
f 2//7 1//7 9//7
f 1//8 3//8 9//8
f 1//9 4//9 11//9
f 6//10 2//10 13//10
f 3//11 6//11 13//11
f 2//12 9//12 13//12
f 9//13 3//13 13//13
f 7//14 2//14 14//14
f 2//15 8//15 14//15
f 5//16 1//16 16//16
f 1//17 11//17 16//17
f 10//18 4//18 17//18
f 4//19 12//19 17//19
f 8//20 5//20 18//20
f 15//21 8//21 18//21
f 10//22 15//22 18//22
f 5//23 16//23 18//23
f 16//24 11//24 18//24
f 7//25 14//25 19//25
f 14//26 8//26 19//26
f 8//27 15//27 19//27
f 15//28 7//28 19//28
f 15//29 10//29 20//29
f 12//30 15//30 20//30
f 10//31 17//31 20//31
f 17//32 12//32 20//32
f 4//33 10//33 21//33
f 11//34 4//34 21//34
f 10//35 18//35 21//35
f 18//36 11//36 21//36
f 4//37 2//37 22//37
f 2//38 7//38 22//38
f 12//39 4//39 22//39
f 15//40 12//40 22//40
