# Blender v2.79 (sub 0) OBJ File: ''
# www.blender.org
mtllib 1466_link_1_81.mtl
o Shape_IndexedFaceSet.081_Shape_IndexedFaceSet.10484
v -0.112178 0.218260 0.057388
v -0.010068 0.271746 0.081461
v -0.005173 0.274311 0.062484
v -0.107077 0.274311 0.057388
v -0.100436 0.219264 0.082312
v -0.076492 0.218260 0.052289
v -0.005173 0.253928 0.082859
v -0.045938 0.274311 0.082859
vn -0.0033 -0.0066 1.0000
vn -0.9028 0.0822 0.4220
vn 0.0496 0.1173 -0.9919
vn -0.1414 0.0129 -0.9899
vn 0.0054 -0.9993 0.0377
vn 0.9214 0.2747 0.2748
vn 0.3258 -0.8999 0.2899
vn 0.5489 -0.5909 -0.5912
vn 0.0764 0.9853 0.1529
vn 0.0000 1.0000 0.0000
vn -0.3605 0.3483 0.8653
vn 0.0452 0.0905 0.9949
usemtl Shape.10494
s off
f 5//1 7//1 8//1
f 4//2 1//2 5//2
f 4//3 3//3 6//3
f 1//4 4//4 6//4
f 5//5 1//5 6//5
f 3//6 2//6 7//6
f 5//7 6//7 7//7
f 6//8 3//8 7//8
f 2//9 3//9 8//9
f 3//10 4//10 8//10
f 4//11 5//11 8//11
f 7//12 2//12 8//12
