# Blender v2.79 (sub 0) OBJ File: ''
# www.blender.org
mtllib 1466_link_1_60.mtl
o Shape_IndexedFaceSet.060_Shape_IndexedFaceSet.10463
v -0.208992 0.396599 -0.187199
v -0.198784 0.360942 -0.233072
v -0.067360 0.361235 -0.338948
v -0.188590 0.360942 -0.187199
v -0.066332 0.401694 -0.329845
v -0.122385 0.396599 -0.187199
v -0.142731 0.391504 -0.304380
v -0.066332 0.381318 -0.248363
v -0.107094 0.360942 -0.329845
v -0.178396 0.396599 -0.263624
v -0.198784 0.401694 -0.187199
v -0.122385 0.381318 -0.187199
v -0.066332 0.360942 -0.319656
v -0.076526 0.396599 -0.340049
v -0.066332 0.396599 -0.248363
vn 0.7372 0.0000 0.6756
vn -0.8523 -0.4876 0.1894
vn 0.0000 0.0000 1.0000
vn 0.0000 -1.0000 0.0000
vn -0.7002 -0.2637 -0.6634
vn -0.9081 0.2077 -0.3636
vn -0.7545 -0.1213 -0.6450
vn 0.0664 0.9959 0.0617
vn -0.4396 0.8808 -0.1760
vn -0.0998 0.9907 -0.0927
vn 0.2872 -0.9210 0.2632
vn 0.9985 -0.0134 -0.0534
vn 1.0000 0.0000 0.0000
vn 0.0038 -0.9999 -0.0154
vn 0.2839 -0.9224 0.2620
vn 0.6615 0.1486 -0.7351
vn -0.2218 -0.0877 -0.9711
vn -0.4777 0.1624 -0.8634
vn -0.2017 0.9418 -0.2688
vn -0.2485 0.9102 -0.3313
vn 0.0679 0.9957 0.0623
usemtl Shape.10473
s off
f 6//1 8//1 15//1
f 1//2 2//2 4//2
f 1//3 4//3 6//3
f 4//4 2//4 9//4
f 2//5 7//5 9//5
f 2//6 1//6 10//6
f 7//7 2//7 10//7
f 1//3 6//3 11//3
f 6//8 5//8 11//8
f 10//9 1//9 11//9
f 5//10 10//10 11//10
f 6//3 4//3 12//3
f 8//1 6//1 12//1
f 8//11 12//11 13//11
f 3//12 5//12 13//12
f 5//13 8//13 13//13
f 4//4 9//4 13//4
f 9//14 3//14 13//14
f 12//15 4//15 13//15
f 5//16 3//16 14//16
f 3//17 9//17 14//17
f 9//18 7//18 14//18
f 10//19 5//19 14//19
f 7//20 10//20 14//20
f 5//21 6//21 15//21
f 8//13 5//13 15//13
