# Blender v2.79 (sub 0) OBJ File: ''
# www.blender.org
mtllib 1466_link_1_16.mtl
o Shape_IndexedFaceSet.016_Shape_IndexedFaceSet.10419
v -0.103758 0.276785 0.052753
v 0.030481 0.437366 0.057388
v 0.107904 0.277376 0.052864
v -0.041108 0.262825 0.085013
v -0.096873 0.391479 0.062484
v 0.045866 0.263216 0.084939
v -0.025540 0.386403 0.082859
v 0.106919 0.391479 0.057388
v 0.015189 0.437366 0.052289
v 0.035585 0.386403 0.082859
v -0.099444 0.388994 0.053355
v 0.081440 0.386403 0.072667
v 0.112024 0.274311 0.057388
v -0.107082 0.274311 0.057388
v -0.076498 0.386403 0.072667
vn -0.4470 0.0000 0.8945
vn 0.0005 -0.0033 -1.0000
vn -0.2256 0.7011 0.6764
vn 0.2798 0.4662 -0.8393
vn 0.0755 0.0402 -0.9963
vn 0.0008 0.0169 0.9999
vn 0.0000 0.0174 0.9998
vn 0.0000 0.4471 0.8945
vn -0.0118 0.0058 -0.9999
vn -0.3861 0.9119 -0.1395
vn 0.3389 0.5645 0.7527
vn 0.2168 0.0346 0.9756
vn 0.1933 0.4541 0.8697
vn 0.0026 -0.8268 -0.5625
vn 0.0039 -0.9308 -0.3655
vn 0.7499 0.0327 -0.6608
vn 0.3872 -0.0200 0.9218
vn 0.5109 0.0223 0.8594
vn -0.8208 0.0346 -0.5702
vn -0.9650 0.0731 0.2519
vn 0.0000 -0.8822 -0.4709
vn 0.0000 -0.9234 -0.3839
vn -0.2045 0.6490 0.7328
vn -0.1960 0.0418 0.9797
vn -0.1602 0.5766 0.8012
vn -0.3890 -0.0194 0.9210
usemtl Shape.10429
s off
f 5//1 14//1 15//1
f 3//2 1//2 9//2
f 5//3 2//3 9//3
f 2//4 8//4 9//4
f 8//5 3//5 9//5
f 4//6 6//6 10//6
f 7//7 4//7 10//7
f 2//8 7//8 10//8
f 9//9 1//9 11//9
f 5//10 9//10 11//10
f 8//11 2//11 12//11
f 10//12 6//12 12//12
f 2//13 10//13 12//13
f 1//14 3//14 13//14
f 6//15 4//15 13//15
f 3//16 8//16 13//16
f 12//17 6//17 13//17
f 8//18 12//18 13//18
f 11//19 1//19 14//19
f 5//20 11//20 14//20
f 1//21 13//21 14//21
f 13//22 4//22 14//22
f 2//23 5//23 15//23
f 4//24 7//24 15//24
f 7//25 2//25 15//25
f 14//26 4//26 15//26
