# Blender v2.79 (sub 0) OBJ File: ''
# www.blender.org
mtllib 1466_link_1_107.mtl
o Shape_IndexedFaceSet.107_Shape_IndexedFaceSet.10510
v 0.142569 0.396597 0.031905
v -0.002294 0.407951 0.055955
v 0.025429 0.376220 0.052289
v 0.193612 0.377016 -0.042007
v 0.169682 0.406052 -0.042178
v 0.005037 0.381320 -0.003756
v 0.115310 0.378012 0.046616
v 0.005037 0.401694 0.011520
v 0.162961 0.406793 -0.008855
v 0.112000 0.376220 -0.039427
v 0.101842 0.396597 -0.044525
v 0.091665 0.401694 0.052289
vn 0.0720 0.9835 0.1659
vn -0.7254 -0.6574 0.2041
vn 0.0219 -0.9993 0.0305
vn 0.6490 -0.4936 0.5789
vn -0.0754 0.9856 -0.1512
vn -0.9744 0.1348 -0.1797
vn 0.8198 0.3029 0.4859
vn -0.0019 0.9997 -0.0226
vn 0.7637 0.6302 0.1400
vn 0.0101 -0.9999 0.0095
vn -0.0693 -0.9955 -0.0654
vn -0.3095 -0.3731 -0.8747
vn 0.0317 0.0203 -0.9993
vn -0.1218 0.9472 -0.2965
vn -0.3963 0.5508 -0.7346
vn -0.0281 -0.2557 -0.9663
vn 0.0331 -0.0861 0.9957
vn 0.3808 0.1621 0.9103
vn 0.0655 -0.1702 0.9832
vn 0.2283 0.9115 0.3422
usemtl Shape.10520
s off
f 9//1 2//1 12//1
f 3//2 2//2 6//2
f 3//3 4//3 7//3
f 4//4 1//4 7//4
f 2//5 5//5 8//5
f 6//6 2//6 8//6
f 1//7 4//7 9//7
f 5//8 2//8 9//8
f 4//9 5//9 9//9
f 4//10 3//10 10//10
f 3//11 6//11 10//11
f 10//12 6//12 11//12
f 5//13 4//13 11//13
f 8//14 5//14 11//14
f 6//15 8//15 11//15
f 4//16 10//16 11//16
f 2//17 3//17 12//17
f 7//18 1//18 12//18
f 3//19 7//19 12//19
f 1//20 9//20 12//20
