# Blender v2.79 (sub 0) OBJ File: ''
# www.blender.org
mtllib 1466_link_1_115.mtl
o Shape_IndexedFaceSet.115_Shape_IndexedFaceSet.10518
v -0.105205 0.205737 0.759398
v -0.009302 0.249777 0.765873
v -0.010268 0.243720 0.765654
v -0.029170 0.251147 0.739650
v -0.108484 0.134792 0.739740
v -0.109285 0.133690 0.766345
v -0.088704 0.233095 0.741718
v -0.071399 0.248811 0.765654
v -0.123466 0.135635 0.739932
vn -0.0451 0.0344 -0.9984
vn 0.7901 -0.1042 -0.6041
vn 0.6572 -0.4485 -0.6058
vn 0.7433 -0.6689 -0.0053
vn 0.0571 -0.0452 0.9973
vn -0.0157 0.9978 0.0641
vn -0.0036 0.0072 1.0000
vn -0.3131 0.1087 0.9435
vn -0.7863 0.5909 0.1805
vn -0.2808 0.8828 -0.3766
vn -0.0124 0.0077 -0.9999
vn -0.0567 -0.9975 -0.0430
vn -0.8741 0.0954 0.4763
vn -0.8875 0.3226 -0.3291
usemtl Shape.10528
s off
f 7//1 4//1 9//1
f 2//2 3//2 4//2
f 4//3 3//3 5//3
f 5//4 3//4 6//4
f 3//5 2//5 6//5
f 2//6 4//6 8//6
f 6//7 2//7 8//7
f 1//8 6//8 8//8
f 7//9 1//9 8//9
f 4//10 7//10 8//10
f 4//11 5//11 9//11
f 5//12 6//12 9//12
f 6//13 1//13 9//13
f 1//14 7//14 9//14
