# Blender v2.79 (sub 0) OBJ File: ''
# www.blender.org
mtllib 1466_link_1_92.mtl
o Shape_IndexedFaceSet.092_Shape_IndexedFaceSet.10495
v 0.071252 0.034825 0.806418
v 0.009915 0.024495 0.765449
v -0.005165 0.024634 0.775853
v 0.061057 0.055201 0.765658
v -0.005165 0.050106 0.811518
v 0.071252 0.024634 0.765658
v -0.005165 0.024634 0.811518
vn 0.0023 -1.0000 0.0038
vn -0.4091 0.6855 -0.6022
vn 0.2054 0.8950 0.3960
vn -0.4217 0.7379 -0.5270
vn 0.0034 0.0011 -1.0000
vn 0.9457 0.3154 -0.0789
vn -0.0092 -1.0000 0.0000
vn 0.0666 0.0000 0.9978
vn -1.0000 -0.0000 0.0000
vn 0.1440 -0.9600 0.2400
usemtl Shape.10505
s off
f 2//1 6//1 7//1
f 2//2 3//2 4//2
f 1//3 4//3 5//3
f 4//4 3//4 5//4
f 2//5 4//5 6//5
f 4//6 1//6 6//6
f 3//7 2//7 7//7
f 1//8 5//8 7//8
f 5//9 3//9 7//9
f 6//10 1//10 7//10
