# Blender v2.79 (sub 0) OBJ File: ''
# www.blender.org
mtllib 1466_link_0_32.mtl
o Shape_IndexedFaceSet.032_Shape_IndexedFaceSet.18093
v -0.012127 0.583708 0.616835
v -0.009173 0.574849 0.634556
v -0.015081 0.574849 0.634556
v -0.015081 0.545318 0.619789
v 0.002635 0.545318 0.634556
v 0.002635 0.586662 0.619789
v 0.002635 0.545318 0.619789
v 0.002635 0.586662 0.631602
v -0.015081 0.545318 0.634556
vn 0.0000 0.0000 1.0000
vn -0.9891 0.0660 -0.1319
vn 1.0000 0.0000 0.0000
vn 0.0000 -0.0767 -0.9971
vn 0.0000 -1.0000 0.0000
vn 0.1962 0.0000 -0.9806
vn -0.4868 0.8111 0.3243
vn 0.0000 0.2426 0.9701
vn 0.1755 0.0702 0.9820
vn -0.1962 0.9806 0.0000
vn -1.0000 0.0000 0.0000
usemtl Shape.18105
s off
f 5//1 3//1 9//1
f 3//2 1//2 4//2
f 2//1 3//1 5//1
f 6//3 5//3 7//3
f 4//4 1//4 7//4
f 5//5 4//5 7//5
f 1//6 6//6 7//6
f 1//7 3//7 8//7
f 3//8 2//8 8//8
f 2//9 5//9 8//9
f 6//10 1//10 8//10
f 5//3 6//3 8//3
f 3//11 4//11 9//11
f 4//5 5//5 9//5
