# Blender v2.79 (sub 0) OBJ File: ''
# www.blender.org
mtllib 1466_link_1_76.mtl
o Shape_IndexedFaceSet.076_Shape_IndexedFaceSet.10479
v 0.173161 0.345648 0.006422
v 0.071265 -0.744788 0.021708
v 0.147687 -0.744788 -0.044525
v 0.127096 -0.760246 0.048419
v 0.065342 0.396351 0.056791
v 0.175527 0.379410 -0.047523
v 0.200235 -0.758380 -0.045732
v 0.127313 0.177428 0.052289
v 0.071265 -0.235221 0.021708
v 0.071265 -0.744788 0.052289
v 0.198647 0.345648 -0.044525
v 0.195168 -0.759867 -0.024906
v 0.147687 -0.235221 -0.044525
v 0.116659 -0.759076 0.053558
v 0.137500 -0.678504 0.042092
v 0.137500 0.345648 0.042092
v 0.198647 0.294520 -0.034328
v 0.067195 0.380491 0.049959
v 0.173161 -0.041812 0.006422
v 0.193547 0.345648 -0.024131
v 0.117126 0.345648 0.052289
v 0.168954 -0.759285 0.006489
vn 0.7446 -0.0043 0.6675
vn 0.5449 0.6998 0.4619
vn -0.0235 -0.0021 -0.9997
vn -0.2462 -0.9266 -0.2841
vn -0.1887 -0.9679 -0.1658
vn -0.6549 -0.0000 -0.7557
vn -0.9860 -0.0000 -0.1665
vn -1.0000 -0.0052 0.0000
vn 0.1304 0.0013 -0.9915
vn -0.0958 -0.9909 -0.0941
vn -0.1071 -0.0000 -0.9943
vn -0.6547 0.0260 -0.7554
vn -0.1894 -0.9681 -0.1643
vn 0.4414 -0.0038 0.8973
vn 0.0742 0.0005 0.9972
vn -0.3002 -0.9539 0.0000
vn -0.0292 -0.0041 0.9996
vn 0.5401 -0.0036 0.8416
vn 0.5518 0.6254 0.5517
vn 0.7072 0.0000 0.7070
vn 1.0000 0.0014 0.0072
vn 0.9717 -0.0011 0.2363
vn -0.6487 0.2359 -0.7235
vn -0.9613 0.0063 -0.2753
vn -0.6684 0.0297 -0.7432
vn 0.7073 0.0000 0.7070
vn 0.8183 0.0000 0.5748
vn 0.6405 0.6380 0.4274
vn 0.8000 0.5656 0.2001
vn 0.8318 0.0008 0.5550
vn 0.9690 0.0483 0.2423
vn 0.8964 0.0010 0.4433
vn 0.0920 0.0056 0.9957
vn 0.4187 0.3533 0.8366
vn 0.4474 0.0271 0.8939
vn 0.2401 -0.9459 0.2180
vn 0.7077 -0.0355 0.7056
vn 0.7676 -0.0044 0.6410
usemtl Shape.10489
s off
f 19//1 15//1 22//1
f 5//2 1//2 6//2
f 3//3 6//3 7//3
f 2//4 3//4 7//4
f 4//5 2//5 7//5
f 3//6 2//6 9//6
f 2//7 5//7 9//7
f 5//8 2//8 10//8
f 7//9 6//9 11//9
f 4//10 7//10 12//10
f 6//11 3//11 13//11
f 3//6 9//6 13//6
f 9//12 6//12 13//12
f 2//13 4//13 14//13
f 4//14 8//14 14//14
f 8//15 5//15 14//15
f 10//16 2//16 14//16
f 5//17 10//17 14//17
f 8//18 4//18 15//18
f 1//19 5//19 16//19
f 8//20 1//20 16//20
f 7//21 11//21 17//21
f 12//22 7//22 17//22
f 5//23 6//23 18//23
f 9//24 5//24 18//24
f 6//25 9//25 18//25
f 1//26 8//26 19//26
f 12//27 1//27 19//27
f 8//20 15//20 19//20
f 6//28 1//28 20//28
f 11//29 6//29 20//29
f 1//30 12//30 20//30
f 17//31 11//31 20//31
f 12//32 17//32 20//32
f 5//33 8//33 21//33
f 16//34 5//34 21//34
f 8//35 16//35 21//35
f 4//36 12//36 22//36
f 15//37 4//37 22//37
f 12//38 19//38 22//38
