# Blender v2.79 (sub 0) OBJ File: ''
# www.blender.org
mtllib 1466_link_1_113.mtl
o Shape_IndexedFaceSet.113_Shape_IndexedFaceSet.10516
v 0.127310 0.126541 0.108340
v 0.091646 0.238620 0.133817
v 0.087943 0.234780 0.132071
v 0.091646 0.238620 0.082862
v 0.106928 0.126541 0.082862
v 0.127310 0.177506 0.082862
v 0.106928 0.126541 0.133817
v 0.127310 0.177506 0.133817
v 0.086546 0.202961 0.082862
vn -0.9662 -0.2577 0.0000
vn -0.7198 0.6941 0.0000
vn 0.8637 0.5040 0.0000
vn 0.7454 -0.2981 -0.5963
vn 0.0000 0.0000 -1.0000
vn -0.3813 -0.0520 0.9230
vn 0.0000 -1.0000 0.0000
vn 1.0000 0.0000 0.0000
vn 0.0000 0.0000 1.0000
vn 0.7454 -0.2981 0.5963
vn -0.9879 0.1413 -0.0633
vn -0.9761 -0.1690 0.1370
usemtl Shape.10526
s off
f 5//1 7//1 9//1
f 3//2 2//2 4//2
f 4//3 2//3 6//3
f 1//4 5//4 6//4
f 5//5 4//5 6//5
f 2//6 3//6 7//6
f 5//7 1//7 7//7
f 6//3 2//3 8//3
f 1//8 6//8 8//8
f 2//9 7//9 8//9
f 7//10 1//10 8//10
f 3//11 4//11 9//11
f 4//5 5//5 9//5
f 7//12 3//12 9//12
