# Blender v2.79 (sub 0) OBJ File: ''
# www.blender.org
mtllib 1466_link_1_5.mtl
o Shape_IndexedFaceSet.005_Shape_IndexedFaceSet.10408
v -0.010265 0.014441 0.082862
v 0.025400 0.024631 0.087965
v 0.020296 0.024631 0.133817
v -0.021199 0.024796 0.082040
v -0.015360 0.019536 0.133817
vn -0.1405 0.9833 0.1157
vn 0.2706 -0.9622 0.0301
vn 0.0035 1.0000 0.0004
vn 0.1261 0.0546 -0.9905
vn -0.6878 -0.7259 0.0038
vn 0.1406 -0.9837 0.1124
usemtl Shape.10418
s off
f 3//1 4//1 5//1
f 1//2 2//2 3//2
f 3//3 2//3 4//3
f 2//4 1//4 4//4
f 4//5 1//5 5//5
f 1//6 3//6 5//6
