# Blender v2.79 (sub 0) OBJ File: ''
# www.blender.org
mtllib 1466_link_1_4.mtl
o Shape_IndexedFaceSet.004_Shape_IndexedFaceSet.10407
v 0.040690 -0.026434 0.082859
v -0.113027 -0.759899 0.051460
v -0.110423 -0.775563 0.051050
v 0.112024 0.014366 0.052289
v 0.084705 -0.760482 0.072878
v -0.107082 0.014366 0.052289
v -0.026626 -0.759215 0.083440
v 0.109705 -0.754912 0.051882
v -0.059461 0.035990 0.078344
v 0.071023 0.043425 0.078543
v -0.090271 -0.760053 0.067574
v 0.031568 -0.759214 0.083440
v -0.021117 0.025302 0.083300
v -0.086686 0.014366 0.067574
v 0.101815 -0.688604 0.062484
v 0.091627 0.014366 0.067574
v -0.074353 -0.759996 0.072871
vn -0.3157 -0.0006 0.9488
vn -0.1429 0.0022 -0.9897
vn 0.0000 0.0016 -1.0000
vn 0.0037 0.0005 -1.0000
vn 0.0929 -0.9842 -0.1505
vn -0.0000 0.6704 -0.7420
vn -0.0451 0.8077 -0.5879
vn -0.5745 -0.1167 0.8102
vn 0.0388 -0.9501 0.3094
vn 0.0000 -0.8928 0.4505
vn 0.1431 -0.0010 0.9897
vn 0.1949 -0.0036 0.9808
vn -0.1279 0.0011 0.9918
vn 0.0431 0.0430 0.9981
vn -0.0217 0.3555 0.9344
vn 0.0000 0.0002 1.0000
vn 0.0077 0.0007 1.0000
vn -0.5997 0.0037 0.8002
vn -0.5649 0.3358 0.7538
vn -0.5779 0.0027 0.8161
vn -0.3690 0.0017 0.9294
vn 0.7940 -0.0027 0.6079
vn 0.6483 -0.0444 0.7601
vn 0.4719 0.0018 0.8816
vn 0.5952 0.1222 0.7942
vn 0.5997 0.0029 0.8002
vn 0.5153 0.0013 0.8570
vn -0.1499 -0.6708 0.7263
vn -0.2162 -0.0027 0.9764
vn -0.2686 -0.5169 0.8128
usemtl Shape.10417
s off
f 9//1 11//1 17//1
f 3//2 2//2 6//2
f 4//3 3//3 6//3
f 3//4 4//4 8//4
f 5//5 3//5 8//5
f 4//6 6//6 10//6
f 6//7 9//7 10//7
f 2//8 3//8 11//8
f 3//9 5//9 12//9
f 7//10 3//10 12//10
f 10//11 1//11 12//11
f 5//12 10//12 12//12
f 9//13 7//13 13//13
f 1//14 10//14 13//14
f 10//15 9//15 13//15
f 7//16 12//16 13//16
f 12//17 1//17 13//17
f 6//18 2//18 14//18
f 9//19 6//19 14//19
f 2//20 11//20 14//20
f 11//21 9//21 14//21
f 8//22 4//22 15//22
f 5//23 8//23 15//23
f 10//24 5//24 16//24
f 4//25 10//25 16//25
f 15//26 4//26 16//26
f 5//27 15//27 16//27
f 3//28 7//28 17//28
f 7//29 9//29 17//29
f 11//30 3//30 17//30
