# Blender v2.79 (sub 0) OBJ File: ''
# www.blender.org
mtllib 1466_link_1_109.mtl
o Shape_IndexedFaceSet.109_Shape_IndexedFaceSet.10512
v -0.066329 0.065402 0.133817
v -0.122369 0.101055 0.082862
v -0.122369 0.101055 0.133817
v -0.101983 0.126535 0.082862
v -0.096886 0.060300 0.082862
v -0.101983 0.126535 0.133817
v -0.066329 0.065402 0.082862
v -0.096886 0.060300 0.133817
v -0.122042 0.126148 0.083160
vn -0.0193 0.9998 0.0000
vn -0.8479 -0.5302 0.0000
vn 0.0000 0.0000 -1.0000
vn 0.0000 0.0000 1.0000
vn 0.8638 0.5038 0.0000
vn 0.1647 -0.9863 0.0000
vn -0.9999 0.0130 0.0000
vn -0.0151 0.0121 -0.9998
vn -0.7470 0.5977 0.2912
usemtl Shape.10522
s off
f 6//1 4//1 9//1
f 3//2 2//2 5//2
f 2//3 4//3 5//3
f 3//4 1//4 6//4
f 1//5 4//5 6//5
f 4//5 1//5 7//5
f 1//6 5//6 7//6
f 5//3 4//3 7//3
f 1//4 3//4 8//4
f 5//6 1//6 8//6
f 3//2 5//2 8//2
f 2//7 3//7 9//7
f 4//8 2//8 9//8
f 3//9 6//9 9//9
