# Blender v2.79 (sub 0) OBJ File: ''
# www.blender.org
mtllib 1466_link_1_18.mtl
o Shape_IndexedFaceSet.018_Shape_IndexedFaceSet.10421
v 0.056217 0.019132 0.764643
v -0.010264 0.014441 0.740181
v -0.010264 0.019536 0.740181
v -0.061223 0.014441 0.765654
v 0.055969 0.009346 0.760559
vn -0.0473 -0.9944 -0.0947
vn -0.4471 0.0000 -0.8945
vn -0.0386 0.9919 0.1212
vn 0.0233 -0.3855 0.9224
vn 0.3244 0.3573 -0.8758
vn 0.2941 0.0000 -0.9558
usemtl Shape.10431
s off
f 4//1 2//1 5//1
f 3//2 2//2 4//2
f 1//3 3//3 4//3
f 1//4 4//4 5//4
f 3//5 1//5 5//5
f 2//6 3//6 5//6
