# Blender v2.79 (sub 0) OBJ File: ''
# www.blender.org
mtllib 1466_link_0_40.mtl
o Shape_IndexedFaceSet.040_Shape_IndexedFaceSet.18101
v -0.041664 0.551231 0.055676
v 0.005591 0.583713 0.058632
v 0.008545 0.580754 0.058632
v 0.005591 0.580754 0.040911
v -0.023941 0.542368 0.040911
v -0.020988 0.577800 0.040911
v -0.023941 0.542368 0.058632
v -0.026895 0.577800 0.058632
v 0.005591 0.568941 0.040911
v -0.035756 0.563040 0.040911
vn -0.8752 0.4825 0.0357
vn 0.7028 0.7016 -0.1172
vn -0.1090 0.9805 -0.1637
vn 0.0000 0.0000 -1.0000
vn 0.0000 0.0000 1.0000
vn -0.4473 -0.8944 0.0000
vn -0.1788 0.9821 -0.0596
vn -0.1715 -0.0143 0.9851
vn 0.9864 0.0000 -0.1644
vn 0.7305 -0.6182 0.2903
vn 0.6689 -0.7434 0.0000
vn -0.6965 -0.3981 -0.5971
vn -0.6881 0.6884 -0.2294
usemtl Shape.18113
s off
f 1//1 8//1 10//1
f 2//2 3//2 4//2
f 2//3 4//3 6//3
f 4//4 5//4 6//4
f 3//5 2//5 7//5
f 1//6 5//6 7//6
f 2//7 6//7 8//7
f 7//5 2//5 8//5
f 1//8 7//8 8//8
f 4//9 3//9 9//9
f 5//4 4//4 9//4
f 3//10 7//10 9//10
f 7//11 5//11 9//11
f 5//12 1//12 10//12
f 6//4 5//4 10//4
f 8//13 6//13 10//13
