# Blender v2.79 (sub 0) OBJ File: ''
# www.blender.org
mtllib 1466_link_1_26.mtl
o Shape_IndexedFaceSet.026_Shape_IndexedFaceSet.10429
v -0.159369 -0.762175 0.065046
v -0.193706 -0.831403 0.021708
v -0.188605 -0.831403 0.021708
v -0.193706 -0.744797 -0.136244
v -0.173330 -0.826308 -0.136244
v -0.191317 -0.763836 0.036946
v -0.158805 -0.824663 0.068270
v -0.160872 -0.751680 -0.059208
v -0.193706 -0.826308 -0.136244
v -0.193706 -0.744797 -0.024148
v -0.173330 -0.744797 -0.136244
v -0.158037 -0.744797 0.011506
v -0.160936 -0.820097 -0.059080
v -0.183514 -0.760083 0.057384
vn -0.2050 0.9570 0.2051
vn 0.0000 -0.9995 -0.0322
vn 0.0000 -0.9897 0.1433
vn 0.2336 -0.9723 -0.0088
vn -1.0000 0.0000 0.0000
vn 0.0000 0.0000 -1.0000
vn -0.9986 0.0248 0.0468
vn 0.9872 0.0000 -0.1596
vn 0.0000 1.0000 0.0000
vn 0.9995 0.0105 0.0283
vn 0.8347 0.5438 -0.0864
vn 0.6283 -0.7770 -0.0384
vn 0.9874 -0.0012 -0.1585
vn 0.9996 -0.0221 -0.0175
vn 0.9992 -0.0010 -0.0400
vn -0.9300 -0.0492 0.3641
vn -0.7715 -0.1930 0.6062
vn -0.2985 0.0465 0.9533
vn -0.8049 0.5569 0.2050
vn -0.0154 0.9512 0.3083
usemtl Shape.10439
s off
f 12//1 10//1 14//1
f 3//2 2//2 5//2
f 2//3 3//3 7//3
f 3//4 5//4 7//4
f 2//5 4//5 9//5
f 4//6 5//6 9//6
f 5//2 2//2 9//2
f 4//5 2//5 10//5
f 2//7 6//7 10//7
f 5//6 4//6 11//6
f 8//8 5//8 11//8
f 4//9 10//9 11//9
f 1//10 7//10 12//10
f 8//11 11//11 12//11
f 11//9 10//9 12//9
f 7//12 5//12 13//12
f 5//13 8//13 13//13
f 12//14 7//14 13//14
f 8//15 12//15 13//15
f 6//16 2//16 14//16
f 2//17 7//17 14//17
f 7//18 1//18 14//18
f 10//19 6//19 14//19
f 1//20 12//20 14//20
