# Blender v2.79 (sub 0) OBJ File: ''
# www.blender.org
mtllib 1466_link_1_63.mtl
o Shape_IndexedFaceSet.063_Shape_IndexedFaceSet.10466
v -0.081592 0.406802 -0.319671
v -0.013924 0.483129 -0.289726
v 0.005018 0.483217 -0.278927
v -0.086700 0.483217 -0.253456
v 0.008866 0.398065 -0.310763
v -0.025561 0.457740 -0.319671
v -0.075200 0.396316 -0.294208
v 0.005018 0.401698 -0.334960
v -0.081592 0.488304 -0.278927
v 0.005018 0.478122 -0.304390
v -0.081592 0.473026 -0.253456
v -0.040841 0.401698 -0.334960
v -0.086700 0.437375 -0.309481
v -0.089219 0.399320 -0.294208
vn -0.9979 0.0497 -0.0407
vn 0.0583 0.9922 -0.1103
vn 0.0574 0.9767 0.2066
vn -0.1221 0.7061 -0.6975
vn 0.1067 0.9750 -0.1951
vn 0.9988 0.0488 -0.0098
vn 0.9872 0.0592 -0.1481
vn 0.2115 0.3630 -0.9075
vn 0.0265 0.9560 -0.2922
vn 0.2652 0.1329 0.9550
vn 0.3018 -0.3219 0.8974
vn 0.1816 -0.4495 0.8746
vn -0.0062 -0.9907 -0.1360
vn 0.0000 -0.9889 -0.1485
vn 0.0000 0.2632 -0.9647
vn -0.9691 0.1909 -0.1562
vn -0.3045 0.5123 -0.8030
vn -0.3119 0.2531 -0.9158
vn -0.2583 0.3192 -0.9118
vn -0.6392 -0.3204 0.6991
vn -0.1014 -0.4733 0.8750
vn -0.2412 -0.9092 -0.3394
vn -0.2004 -0.9351 -0.2924
vn -0.9515 -0.0583 -0.3021
usemtl Shape.10476
s off
f 4//1 13//1 14//1
f 3//2 2//2 9//2
f 4//3 3//3 9//3
f 6//4 9//4 10//4
f 2//5 3//5 10//5
f 3//6 5//6 10//6
f 5//7 8//7 10//7
f 8//8 6//8 10//8
f 9//9 2//9 10//9
f 3//10 4//10 11//10
f 5//11 3//11 11//11
f 7//12 5//12 11//12
f 5//13 7//13 12//13
f 8//14 5//14 12//14
f 6//15 8//15 12//15
f 4//16 9//16 13//16
f 9//17 6//17 13//17
f 12//18 1//18 13//18
f 6//19 12//19 13//19
f 11//20 4//20 14//20
f 7//21 11//21 14//21
f 1//22 12//22 14//22
f 12//23 7//23 14//23
f 13//24 1//24 14//24
