# Blender v2.79 (sub 0) OBJ File: ''
# www.blender.org
mtllib 1466_link_1_46.mtl
o Shape_IndexedFaceSet.046_Shape_IndexedFaceSet.10449
v 0.162989 -0.831403 0.067568
v 0.171108 -0.739785 -0.007580
v 0.172823 -0.743950 -0.009597
v 0.234316 -0.765179 -0.003748
v 0.213932 -0.831403 -0.008849
v 0.173172 -0.760083 0.067568
v 0.142936 -0.773972 -0.007383
v 0.149476 -0.761237 0.065995
v 0.188460 -0.826308 0.057373
v 0.147692 -0.826308 0.057373
v 0.145332 -0.742437 -0.010931
v 0.229220 -0.826308 -0.008849
vn 0.0062 -0.0186 -0.9998
vn 0.2526 0.5040 -0.8260
vn 0.3500 0.9067 0.2353
vn -0.0643 0.9630 0.2619
vn -0.0667 0.0095 0.9977
vn 0.2593 -0.9502 0.1728
vn 0.3804 -0.0543 0.9232
vn 0.7597 0.0759 0.6459
vn -0.2222 -0.9637 -0.1481
vn -0.5510 -0.6684 -0.4997
vn -0.5733 -0.0922 0.8141
vn -0.9962 0.0159 0.0860
vn 0.0682 0.4575 -0.8866
vn -0.1041 -0.1034 -0.9892
vn -0.1304 0.9615 0.2420
vn -0.9937 0.0838 0.0740
vn 0.1193 0.0727 -0.9902
vn 0.3103 -0.9312 0.1910
vn 0.8461 -0.1140 0.5208
vn 0.0498 0.0251 -0.9984
usemtl Shape.10459
s off
f 5//1 11//1 12//1
f 3//2 2//2 4//2
f 4//3 2//3 6//3
f 6//4 2//4 8//4
f 1//5 6//5 8//5
f 1//6 5//6 9//6
f 6//7 1//7 9//7
f 4//8 6//8 9//8
f 5//9 1//9 10//9
f 7//10 5//10 10//10
f 1//11 8//11 10//11
f 8//12 7//12 10//12
f 2//13 3//13 11//13
f 5//14 7//14 11//14
f 8//15 2//15 11//15
f 7//16 8//16 11//16
f 3//17 4//17 12//17
f 9//18 5//18 12//18
f 4//19 9//19 12//19
f 11//20 3//20 12//20
