# Blender v2.79 (sub 0) OBJ File: ''
# www.blender.org
mtllib 1466_link_1_57.mtl
o Shape_IndexedFaceSet.057_Shape_IndexedFaceSet.10460
v -0.051022 0.202950 0.898141
v 0.010113 0.090889 0.994956
v -0.010271 0.090889 0.994956
v -0.066318 0.080709 0.938910
v 0.015209 0.187666 0.898141
v -0.045934 0.162189 0.954187
v 0.015209 0.213143 0.913437
v 0.015209 0.080709 0.969473
v -0.071414 0.080709 0.969473
v -0.071414 0.146933 0.898141
v -0.071414 0.157099 0.938910
v 0.015209 0.141843 0.974562
vn 1.0000 0.0000 0.0000
vn -0.2535 0.7712 0.5839
vn 0.1180 0.5111 -0.8514
vn 0.0000 -0.9286 0.3710
vn 0.2977 -0.5297 -0.7942
vn -0.4089 0.2902 0.8652
vn 0.0000 -1.0000 0.0000
vn 0.0000 0.0000 -1.0000
vn 0.2335 -0.4967 -0.8359
vn -0.9713 -0.1744 -0.1619
vn -1.0000 0.0000 0.0000
vn -0.4670 0.6944 0.5474
vn -0.5336 0.3142 0.7852
vn -0.9363 0.3408 -0.0850
vn 0.0000 0.3716 0.9284
vn -0.1525 0.4320 0.8889
vn -0.0364 0.6504 0.7587
vn 0.9791 -0.0169 0.2025
usemtl Shape.10470
s off
f 8//1 7//1 12//1
f 1//2 6//2 7//2
f 5//3 1//3 7//3
f 2//4 3//4 8//4
f 4//5 5//5 8//5
f 5//1 7//1 8//1
f 3//6 6//6 9//6
f 8//4 3//4 9//4
f 4//7 8//7 9//7
f 1//8 5//8 10//8
f 5//9 4//9 10//9
f 4//10 9//10 10//10
f 10//11 9//11 11//11
f 6//12 1//12 11//12
f 9//13 6//13 11//13
f 1//14 10//14 11//14
f 3//15 2//15 12//15
f 6//16 3//16 12//16
f 7//17 6//17 12//17
f 2//18 8//18 12//18
