# Blender v2.79 (sub 0) OBJ File: ''
# www.blender.org
mtllib 1466_link_1_100.mtl
o Shape_IndexedFaceSet.100_Shape_IndexedFaceSet.10503
v -0.177180 0.376998 -0.040170
v -0.178423 0.350743 -0.044525
v -0.188613 0.376220 -0.187199
v -0.214080 0.376220 -0.080194
v -0.188613 0.350743 -0.187199
v -0.208985 0.376220 -0.187199
v -0.203890 0.350743 -0.049623
v -0.219175 0.350743 -0.146419
vn -0.9671 -0.2036 0.1527
vn 0.9968 -0.0354 -0.0712
vn 0.9970 0.0000 -0.0775
vn 0.0000 0.0000 -1.0000
vn 0.0000 1.0000 -0.0053
vn -0.0200 0.9998 -0.0010
vn -0.1940 -0.1516 0.9692
vn -0.6591 0.4549 0.5988
vn 0.0000 -1.0000 0.0000
vn -0.6740 -0.5390 -0.5051
vn -0.9504 0.3077 -0.0453
usemtl Shape.10513
s off
f 7//1 4//1 8//1
f 1//2 2//2 5//2
f 3//3 1//3 5//3
f 3//4 5//4 6//4
f 1//5 3//5 6//5
f 4//6 1//6 6//6
f 2//7 1//7 7//7
f 1//8 4//8 7//8
f 5//9 2//9 7//9
f 5//9 7//9 8//9
f 6//10 5//10 8//10
f 4//11 6//11 8//11
