# Blender v2.79 (sub 0) OBJ File: ''
# www.blender.org
mtllib 1466_link_1_30.mtl
o Shape_IndexedFaceSet.030_Shape_IndexedFaceSet.10433
v 0.035585 -0.811019 -0.304395
v 0.076355 -0.744804 -0.319680
v 0.076355 -0.775374 -0.319680
v -0.025555 -0.744804 -0.329873
v 0.030488 -0.826308 -0.329873
v -0.025555 -0.744804 -0.309493
v -0.025555 -0.826308 -0.309493
v 0.076355 -0.744804 -0.329873
v 0.055965 -0.744804 -0.304395
v 0.055965 -0.826308 -0.304395
v -0.025555 -0.826308 -0.329873
vn -1.0000 -0.0000 0.0000
vn 0.0000 1.0000 0.0000
vn -0.0831 -0.0000 0.9965
vn 1.0000 0.0000 0.0000
vn 0.0000 0.0000 -1.0000
vn 0.4900 -0.2757 -0.8270
vn 0.5998 0.0000 0.8001
vn -0.0624 0.0192 0.9979
vn 0.6337 -0.4438 -0.6336
vn -0.0622 -0.0829 0.9946
vn 0.0000 -1.0000 0.0000
vn -0.0000 0.0000 1.0000
usemtl Shape.10443
s off
f 7//1 4//1 11//1
f 2//2 4//2 6//2
f 1//3 6//3 7//3
f 6//1 4//1 7//1
f 2//4 3//4 8//4
f 4//2 2//2 8//2
f 5//5 4//5 8//5
f 3//6 5//6 8//6
f 3//7 2//7 9//7
f 2//2 6//2 9//2
f 6//8 1//8 9//8
f 5//9 3//9 10//9
f 1//10 7//10 10//10
f 7//11 5//11 10//11
f 9//12 1//12 10//12
f 3//7 9//7 10//7
f 4//5 5//5 11//5
f 5//11 7//11 11//11
