# Blender v2.79 (sub 0) OBJ File: ''
# www.blender.org
mtllib 1466_link_1_17.mtl
o Shape_IndexedFaceSet.017_Shape_IndexedFaceSet.10420
v 0.040683 0.029726 0.133817
v -0.045936 0.024632 0.082862
v -0.045936 0.024632 0.087965
v 0.045782 0.024632 0.082862
v -0.045936 0.029726 0.082862
vn 0.0000 0.0000 -1.0000
vn 0.0000 -1.0000 0.0000
vn 0.0056 -0.9950 0.1000
vn 0.0552 0.9941 -0.0939
vn -0.3838 0.6535 0.6524
vn -1.0000 0.0000 0.0000
usemtl Shape.10430
s off
f 4//1 2//1 5//1
f 3//2 2//2 4//2
f 1//3 3//3 4//3
f 1//4 4//4 5//4
f 3//5 1//5 5//5
f 2//6 3//6 5//6
