# Blender v2.79 (sub 0) OBJ File: ''
# www.blender.org
mtllib 1466_link_1_14.mtl
o Shape_IndexedFaceSet.014_Shape_IndexedFaceSet.10417
v 0.219041 -0.780457 -0.289093
v 0.264889 -0.780457 -0.161735
v 0.264889 -0.821217 -0.161735
v 0.183361 -0.780457 -0.294183
v 0.208842 -0.826309 -0.299300
v 0.239407 -0.821217 -0.166838
v 0.183361 -0.821217 -0.294183
v 0.245474 -0.779237 -0.158441
v 0.239407 -0.811027 -0.258526
v 0.249598 -0.831412 -0.161735
v 0.259789 -0.780457 -0.202495
v 0.234300 -0.831412 -0.258526
vn -0.2194 -0.9750 0.0347
vn 0.1388 0.1857 -0.9728
vn -0.9153 0.0000 0.4028
vn -0.1969 0.0000 -0.9804
vn 0.1673 0.0000 0.9859
vn 0.0014 1.0000 -0.0096
vn -0.9084 0.0482 0.4152
vn 0.8079 -0.0490 -0.5873
vn -0.7451 -0.5807 0.3279
vn 0.0399 -0.0598 0.9974
vn -0.5198 -0.0947 0.8490
vn 0.9923 0.0000 -0.1242
vn 0.0614 0.9981 -0.0077
vn 0.0348 0.9993 -0.0164
vn 0.8910 0.1744 -0.4192
vn 0.9526 -0.1471 -0.2663
vn -0.1960 -0.9806 -0.0003
vn 0.9339 -0.2340 -0.2705
vn 0.8185 -0.2050 -0.5367
vn 0.5526 -0.8288 -0.0873
usemtl Shape.10427
s off
f 10//1 7//1 12//1
f 4//2 1//2 5//2
f 6//3 4//3 7//3
f 4//4 5//4 7//4
f 3//5 2//5 8//5
f 1//6 4//6 8//6
f 4//7 6//7 8//7
f 5//8 1//8 9//8
f 6//9 7//9 10//9
f 3//10 8//10 10//10
f 8//11 6//11 10//11
f 2//12 3//12 11//12
f 8//13 2//13 11//13
f 1//14 8//14 11//14
f 9//15 1//15 11//15
f 3//16 9//16 11//16
f 7//17 5//17 12//17
f 9//18 3//18 12//18
f 5//19 9//19 12//19
f 3//20 10//20 12//20
