# Blender v2.79 (sub 0) OBJ File: ''
# www.blender.org
mtllib 1466_link_1_102.mtl
o Shape_IndexedFaceSet.102_Shape_IndexedFaceSet.10505
v -0.158046 0.488304 -0.131160
v -0.198788 0.401698 -0.171904
v -0.198788 0.401698 -0.141347
v -0.132566 0.467931 -0.182097
v -0.174113 0.397173 -0.128232
v -0.158046 0.483217 -0.187199
v -0.168298 0.400344 -0.188075
v -0.142758 0.467931 -0.131160
v -0.183507 0.452644 -0.131160
vn -0.8127 0.5803 -0.0527
vn -0.1804 -0.9836 0.0000
vn 0.5242 0.8481 -0.0770
vn 0.1888 -0.0130 -0.9819
vn 0.8802 -0.4707 0.0606
vn -0.0761 -0.9953 -0.0601
vn -0.4652 0.0669 -0.8827
vn 0.7898 0.5927 0.1580
vn 0.0346 0.0260 0.9991
vn 0.9020 -0.3922 0.1805
vn -0.9578 0.2873 0.0000
vn -0.0596 0.0426 0.9973
vn -0.4739 -0.0338 0.8799
vn -0.8929 0.4124 -0.1807
usemtl Shape.10515
s off
f 1//1 6//1 9//1
f 3//2 2//2 5//2
f 1//3 4//3 6//3
f 6//4 4//4 7//4
f 4//5 5//5 7//5
f 5//6 2//6 7//6
f 2//7 6//7 7//7
f 4//8 1//8 8//8
f 1//9 5//9 8//9
f 5//10 4//10 8//10
f 2//11 3//11 9//11
f 5//12 1//12 9//12
f 3//13 5//13 9//13
f 6//14 2//14 9//14
