# Blender v2.79 (sub 0) OBJ File: ''
# www.blender.org
mtllib 1466_link_0_14.mtl
o Shape_IndexedFaceSet.014_Shape_IndexedFaceSet.18075
v 0.176897 0.462653 -0.263274
v 0.215282 0.663456 -0.127452
v 0.218234 0.663456 -0.130409
v 0.150314 0.663430 -0.289860
v 0.185747 0.403583 -0.127452
v 0.185873 0.668298 -0.120472
v 0.150314 0.459694 -0.239662
v 0.218234 0.409500 -0.127452
v 0.203473 0.663456 -0.216034
v 0.147395 0.668298 -0.235904
v 0.212329 0.427226 -0.186507
v 0.153266 0.471503 -0.286903
v 0.156225 0.645704 -0.289860
v 0.200514 0.447885 -0.221933
v 0.218234 0.663456 -0.142224
v 0.188705 0.403583 -0.142224
v 0.173938 0.486271 -0.269190
v 0.218234 0.409500 -0.142224
v 0.203473 0.430159 -0.201278
v 0.179695 0.668031 -0.219335
v 0.206425 0.663456 -0.207177
v 0.215282 0.471503 -0.171751
v 0.151703 0.473979 -0.283703
v 0.153266 0.477395 -0.289860
v 0.188705 0.613210 -0.242604
v 0.150314 0.456736 -0.242604
v 0.194610 0.450844 -0.233747
v 0.149033 0.668386 -0.268403
v 0.159177 0.663430 -0.283961
v 0.218234 0.639787 -0.127452
vn 0.2108 0.0000 0.9775
vn 0.2064 0.9565 0.2060
vn 0.0048 -0.0264 0.9996
vn -0.9487 -0.0079 0.3162
vn -0.9561 -0.0186 0.2926
vn 0.9479 -0.0043 -0.3186
vn 0.1480 0.9890 0.0000
vn 1.0000 0.0000 0.0000
vn 0.1791 -0.9832 0.0359
vn 0.1965 -0.9805 0.0000
vn 0.1829 -0.9128 -0.3651
vn 0.2157 -0.8238 -0.5242
vn -0.0356 -0.9080 -0.4175
vn 0.3661 -0.8461 -0.3875
vn 0.1404 0.9900 -0.0115
vn 0.1833 0.9825 -0.0333
vn 0.9487 -0.0040 -0.3162
vn 0.1973 0.9781 -0.0658
vn 0.9771 0.0058 -0.2129
vn 0.9950 0.0000 -0.0995
vn 0.9900 -0.0194 -0.1398
vn 0.9838 0.0124 -0.1789
vn -0.9305 -0.1643 -0.3274
vn 0.5873 -0.3630 -0.7234
vn 0.0000 0.0000 -1.0000
vn 0.7220 -0.0816 -0.6870
vn 0.7097 -0.0125 -0.7044
vn -0.9671 -0.0153 -0.2540
vn 0.8303 0.0200 -0.5569
vn -0.9585 -0.2010 0.2021
vn -0.9998 -0.0142 0.0143
vn -0.6665 -0.7335 -0.1335
vn -0.3799 -0.8697 -0.3152
vn -0.9992 -0.0125 -0.0390
vn -0.9195 -0.3503 -0.1781
vn 0.8945 -0.0000 -0.4470
vn 0.7808 -0.3902 -0.4879
vn 0.8531 -0.0237 -0.5212
vn 0.4864 -0.6706 -0.5600
vn 0.6879 -0.5123 -0.5141
vn 0.8702 0.0048 -0.4927
vn 0.8656 0.0042 -0.5007
vn -0.0071 1.0000 0.0024
vn 0.2036 0.9716 -0.1202
vn 0.0177 0.9998 -0.0038
vn -0.9983 -0.0092 -0.0575
vn -0.9987 -0.0098 -0.0504
vn 0.5449 0.1817 -0.8186
vn 0.8369 0.0426 -0.5457
vn 0.8367 0.0424 -0.5460
vn 0.1429 0.9662 -0.2146
vn 0.2342 0.9601 -0.1531
vn 0.7050 0.0879 0.7038
vn 0.2354 0.0294 0.9715
usemtl Shape.18087
s off
f 6//1 8//1 30//1
f 2//2 3//2 6//2
f 6//3 5//3 8//3
f 5//4 6//4 10//4
f 7//5 5//5 10//5
f 9//6 11//6 14//6
f 6//7 3//7 15//7
f 3//8 8//8 15//8
f 8//9 5//9 16//9
f 15//8 8//8 18//8
f 8//10 16//10 18//10
f 18//11 16//11 19//11
f 12//12 1//12 19//12
f 16//13 12//13 19//13
f 11//14 18//14 19//14
f 6//15 15//15 20//15
f 20//16 15//16 21//16
f 11//17 9//17 21//17
f 9//18 20//18 21//18
f 11//19 21//19 22//19
f 15//20 18//20 22//20
f 18//21 11//21 22//21
f 21//22 15//22 22//22
f 12//23 23//23 24//23
f 1//24 12//24 24//24
f 4//25 13//25 24//25
f 17//26 1//26 24//26
f 13//27 17//27 24//27
f 23//28 4//28 24//28
f 17//29 13//29 25//29
f 5//30 7//30 26//30
f 7//31 10//31 26//31
f 16//32 5//32 26//32
f 12//33 16//33 26//33
f 10//34 23//34 26//34
f 23//35 12//35 26//35
f 9//36 14//36 27//36
f 14//37 11//37 27//37
f 1//38 17//38 27//38
f 19//39 1//39 27//39
f 11//40 19//40 27//40
f 25//41 9//41 27//41
f 17//42 25//42 27//42
f 10//43 6//43 28//43
f 20//44 9//44 28//44
f 6//45 20//45 28//45
f 4//46 23//46 28//46
f 23//47 10//47 28//47
f 13//48 4//48 29//48
f 9//49 25//49 29//49
f 25//50 13//50 29//50
f 4//51 28//51 29//51
f 28//52 9//52 29//52
f 3//53 2//53 30//53
f 2//54 6//54 30//54
f 8//8 3//8 30//8
