# Blender v2.79 (sub 0) OBJ File: ''
# www.blender.org
mtllib 1466_link_1_7.mtl
o Shape_IndexedFaceSet.007_Shape_IndexedFaceSet.10410
v -0.127464 0.121446 0.745281
v -0.122369 0.162206 0.765654
v -0.122369 0.162206 0.740181
v -0.127464 0.162206 0.765654
v -0.122369 0.121446 0.765654
vn 0.0000 0.0000 1.0000
vn 0.0000 1.0000 0.0000
vn -0.9759 0.0976 -0.1952
vn -0.9631 -0.1204 0.2408
vn 0.9592 -0.1499 -0.2399
vn 1.0000 0.0000 0.0000
usemtl Shape.10420
s off
f 2//1 4//1 5//1
f 2//2 3//2 4//2
f 3//3 1//3 4//3
f 4//4 1//4 5//4
f 1//5 3//5 5//5
f 3//6 2//6 5//6
