# Blender v2.79 (sub 0) OBJ File: ''
# www.blender.org
mtllib 1466_link_1_112.mtl
o Shape_IndexedFaceSet.112_Shape_IndexedFaceSet.10515
v 0.045791 0.238642 0.082862
v 0.086546 0.243732 0.133817
v 0.076352 0.248833 0.133817
v 0.081442 0.213165 0.133817
v 0.086546 0.243732 0.082862
v 0.038643 0.250423 0.136088
v 0.088236 0.211850 0.080985
vn 0.9986 0.0529 0.0000
vn 0.4475 0.8943 0.0000
vn 0.0651 0.1300 0.9894
vn 0.0463 -0.0077 0.9989
vn -0.6521 -0.7539 0.0793
vn -0.1206 0.9657 -0.2299
vn 0.0364 0.9951 -0.0923
vn 0.9780 -0.1633 0.1298
vn -0.5347 -0.8437 -0.0478
vn -0.0073 0.0584 -0.9983
usemtl Shape.10525
s off
f 5//1 2//1 7//1
f 3//2 2//2 5//2
f 2//3 3//3 6//3
f 4//4 2//4 6//4
f 1//5 4//5 6//5
f 5//6 1//6 6//6
f 3//7 5//7 6//7
f 2//8 4//8 7//8
f 4//9 1//9 7//9
f 1//10 5//10 7//10
