# Blender v2.79 (sub 0) OBJ File: ''
# www.blender.org
mtllib 1466_link_0_31.mtl
o Shape_IndexedFaceSet.031_Shape_IndexedFaceSet.18092
v -0.027032 0.576735 0.631096
v -0.041664 0.545318 0.557766
v -0.026899 0.545318 0.557766
v -0.035753 0.586662 0.557766
v -0.015085 0.586662 0.557766
v -0.014010 0.543644 0.621698
v -0.041664 0.554185 0.628640
v -0.015295 0.586336 0.631042
v -0.041664 0.577799 0.622732
v -0.038706 0.545318 0.628640
v -0.035753 0.586662 0.628640
v -0.041664 0.577799 0.557766
v -0.015765 0.546375 0.632592
vn -0.1670 -0.0557 0.9844
vn 0.0000 0.0000 -1.0000
vn 0.9427 -0.2694 -0.1971
vn 0.0000 -0.9997 -0.0262
vn 0.9996 0.0294 0.0030
vn -1.0000 0.0000 -0.0000
vn -0.0668 -0.9978 0.0028
vn -0.9479 -0.3162 0.0396
vn 0.0000 1.0000 0.0000
vn -0.2270 0.0413 0.9730
vn -0.1131 0.1438 0.9831
vn 0.0154 0.9999 0.0045
vn -0.8319 0.5549 0.0000
vn -0.8000 0.1456 0.5820
vn -0.1533 -0.0082 0.9882
vn -0.0273 0.0391 0.9989
vn 0.9870 -0.0054 0.1604
vn 0.0027 -0.9699 0.2436
usemtl Shape.18104
s off
f 7//1 10//1 13//1
f 3//2 2//2 4//2
f 3//2 4//2 5//2
f 3//3 5//3 6//3
f 2//4 3//4 6//4
f 6//5 5//5 8//5
f 2//6 7//6 9//6
f 2//7 6//7 10//7
f 7//8 2//8 10//8
f 5//9 4//9 11//9
f 7//10 1//10 11//10
f 1//11 8//11 11//11
f 8//12 5//12 11//12
f 4//13 9//13 11//13
f 9//14 7//14 11//14
f 4//2 2//2 12//2
f 2//6 9//6 12//6
f 9//13 4//13 12//13
f 1//15 7//15 13//15
f 8//16 1//16 13//16
f 6//17 8//17 13//17
f 10//18 6//18 13//18
