# Blender v2.79 (sub 0) OBJ File: ''
# www.blender.org
mtllib 1466_link_0_0.mtl
o Shape_IndexedFaceSet_Shape_IndexedFaceSet.18061
v -0.041664 0.554178 0.300807
v -0.044617 0.548271 0.226979
v -0.044617 0.551225 0.226979
v -0.044617 0.548271 0.303761
v -0.041664 0.548271 0.226979
vn 0.0000 -1.0000 0.0000
vn -1.0000 0.0000 0.0000
vn -0.8908 0.4541 0.0175
vn 0.9007 -0.4330 0.0346
vn 0.7061 0.7059 -0.0565
vn 0.0000 0.0000 -1.0000
usemtl Shape.18073
s off
f 4//1 2//1 5//1
f 3//2 2//2 4//2
f 1//3 3//3 4//3
f 1//4 4//4 5//4
f 3//5 1//5 5//5
f 2//6 3//6 5//6
