# Blender v2.79 (sub 0) OBJ File: ''
# www.blender.org
mtllib 1466_link_0_30.mtl
o Shape_IndexedFaceSet.030_Shape_IndexedFaceSet.18091
v 0.002638 0.586663 0.415956
v -0.012128 0.586663 0.554741
v -0.021762 0.559091 0.064484
v 0.002651 0.586676 0.082080
v -0.020987 0.577802 0.557766
v 0.002638 0.571902 0.105949
v -0.023943 0.586663 0.557766
v -0.012143 0.586804 0.079789
v -0.023943 0.560088 0.082306
v -0.020987 0.574849 0.513413
v -0.024149 0.580869 0.078620
v -0.020987 0.560088 0.129591
v -0.023943 0.586663 0.203405
v 0.002638 0.571902 0.082306
vn 1.0000 -0.0009 0.0000
vn 0.7180 -0.6918 0.0764
vn 1.0000 -0.0008 0.0000
vn 0.2472 0.0825 0.9655
vn 0.0028 1.0000 0.0003
vn 0.1411 0.4406 -0.8865
vn 0.0086 1.0000 0.0000
vn 0.0001 1.0000 0.0003
vn -0.9532 -0.3018 0.0169
vn 0.6116 -0.7894 0.0526
vn 0.5711 -0.8200 0.0390
vn -0.9484 -0.3164 0.0211
vn -0.1769 0.5222 -0.8343
vn -0.9923 -0.0311 -0.1197
vn -1.0000 -0.0098 0.0005
vn 0.4538 -0.8911 0.0082
vn -0.2896 -0.9570 0.0181
vn -0.5237 -0.8513 0.0327
vn 0.4739 -0.8799 0.0338
vn -0.0119 0.9999 0.0000
vn -0.9994 0.0355 0.0000
vn -0.4396 0.8973 -0.0409
vn 0.5942 -0.0128 -0.8042
vn 0.4649 -0.8854 0.0000
usemtl Shape.18103
s off
f 4//1 6//1 14//1
f 1//2 2//2 5//2
f 4//3 1//3 6//3
f 5//4 2//4 7//4
f 2//5 1//5 8//5
f 4//6 3//6 8//6
f 1//7 4//7 8//7
f 7//8 2//8 8//8
f 7//9 9//9 10//9
f 1//10 5//10 10//10
f 6//11 1//11 10//11
f 5//12 7//12 10//12
f 8//13 3//13 11//13
f 3//14 9//14 11//14
f 9//15 7//15 11//15
f 3//16 6//16 12//16
f 9//17 3//17 12//17
f 10//18 9//18 12//18
f 6//19 10//19 12//19
f 7//20 8//20 13//20
f 11//21 7//21 13//21
f 8//22 11//22 13//22
f 3//23 4//23 14//23
f 6//24 3//24 14//24
