# Blender v2.79 (sub 0) OBJ File: ''
# www.blender.org
mtllib 1466_link_1_24.mtl
o Shape_IndexedFaceSet.024_Shape_IndexedFaceSet.10427
v -0.196213 -0.787155 0.035849
v -0.198810 -0.785552 0.042081
v -0.209004 -0.831412 0.021695
v -0.245368 -0.784481 -0.140391
v -0.244655 -0.826312 -0.136227
v -0.193720 -0.821217 0.001309
v -0.265043 -0.826312 -0.126034
v -0.239558 -0.785552 -0.013963
v -0.265043 -0.785552 -0.100551
v -0.254842 -0.831412 -0.075086
v -0.193720 -0.785552 0.006405
v -0.193720 -0.831412 0.031888
vn 0.9950 0.0483 0.0869
vn 0.9378 -0.0185 -0.3466
vn -0.4451 -0.0962 -0.8903
vn -0.8061 -0.0814 0.5861
vn -0.0124 0.9999 0.0090
vn -0.8677 0.2635 -0.4214
vn -0.0341 0.9994 0.0100
vn -0.0453 -0.9949 -0.0905
vn -0.8727 -0.2600 0.4133
vn -0.9762 -0.1150 0.1839
vn -0.9578 -0.0565 0.2819
vn 0.6811 0.7257 0.0972
vn 0.0148 0.9999 0.0021
vn 0.9424 0.0473 -0.3312
vn 1.0000 0.0000 0.0000
vn 0.9245 0.0180 0.3806
vn -0.5387 -0.2393 0.8078
vn 0.6883 -0.6881 -0.2294
vn 0.0000 -1.0000 0.0000
vn 0.1121 -0.9916 -0.0640
usemtl Shape.10437
s off
f 11//1 1//1 12//1
f 5//2 4//2 6//2
f 4//3 5//3 7//3
f 3//4 2//4 8//4
f 2//5 4//5 8//5
f 4//6 7//6 9//6
f 8//7 4//7 9//7
f 7//8 5//8 10//8
f 3//9 8//9 10//9
f 9//10 7//10 10//10
f 8//11 9//11 10//11
f 2//12 1//12 11//12
f 4//13 2//13 11//13
f 6//14 4//14 11//14
f 6//15 11//15 12//15
f 1//16 2//16 12//16
f 2//17 3//17 12//17
f 5//18 6//18 12//18
f 3//19 10//19 12//19
f 10//20 5//20 12//20
