# Blender v2.79 (sub 0) OBJ File: ''
# www.blender.org
mtllib 1466_link_0_20.mtl
o Shape_IndexedFaceSet.020_Shape_IndexedFaceSet.18081
v -0.133212 0.657548 -0.257388
v -0.133212 0.471482 -0.257388
v -0.136174 0.663437 -0.304630
v -0.053478 0.495113 -0.310554
v -0.053478 0.663456 -0.340077
v -0.136174 0.483298 -0.304630
v -0.056432 0.501021 -0.345992
v -0.106636 0.663437 -0.325307
v -0.136338 0.668310 -0.260177
v -0.050113 0.668301 -0.308077
v -0.118447 0.492188 -0.319400
v -0.136174 0.465574 -0.260354
v -0.053478 0.512837 -0.345992
v -0.055226 0.492389 -0.327141
v -0.094826 0.495113 -0.331222
v -0.130257 0.483298 -0.310545
v -0.137165 0.665807 -0.283555
v -0.127302 0.465574 -0.266261
v -0.053478 0.565987 -0.307596
v -0.071197 0.648677 -0.337128
v -0.121401 0.663437 -0.316451
v -0.134750 0.667400 -0.283270
v -0.056432 0.489205 -0.310554
vn 0.2151 -0.9619 -0.1690
vn -0.6657 -0.0000 0.7462
vn 0.5207 0.0000 0.8537
vn -0.0407 0.9885 -0.1454
vn 0.4558 0.3450 0.8205
vn -0.7064 -0.0012 0.7078
vn -0.1551 0.0388 -0.9871
vn 0.9998 -0.0193 -0.0096
vn 0.9944 0.0041 -0.1052
vn 0.9846 -0.1562 -0.0781
vn 0.9559 -0.2390 -0.1706
vn -0.3600 0.0075 -0.9329
vn -0.4476 0.0000 -0.8943
vn -0.3869 -0.3398 -0.8572
vn -0.7070 0.0000 -0.7072
vn -0.3483 -0.8703 -0.3484
vn 0.0178 -0.9086 -0.4172
vn -0.1421 -0.7347 -0.6634
vn -0.9989 0.0000 -0.0470
vn -1.0000 -0.0052 -0.0021
vn -0.9994 -0.0008 0.0354
vn 0.4549 -0.5711 0.6833
vn -0.2318 -0.9084 -0.3481
vn 0.0298 -0.9273 -0.3731
vn 0.5615 -0.0345 0.8268
vn 0.5446 -0.0140 0.8386
vn 0.8158 -0.0241 0.5778
vn -0.1958 0.0392 -0.9799
vn -0.2656 0.1277 -0.9556
vn -0.3064 0.0265 -0.9515
vn -0.5144 0.0059 -0.8576
vn -0.6015 0.0034 -0.7989
vn -0.6248 0.0051 -0.7808
vn -0.0472 0.9910 -0.1250
vn -0.0226 0.9989 -0.0409
vn -0.5369 0.8352 -0.1192
vn -0.5435 0.8365 -0.0703
vn -0.0929 0.9836 -0.1548
vn -0.1375 0.9755 -0.1718
vn 0.5891 -0.2945 0.7525
vn 0.8942 -0.4471 -0.0208
vn 0.5764 -0.4489 0.6828
usemtl Shape.18093
s off
f 18//1 14//1 23//1
f 2//2 1//2 9//2
f 1//3 2//3 10//3
f 5//4 8//4 10//4
f 9//5 1//5 10//5
f 2//6 9//6 12//6
f 7//7 5//7 13//7
f 10//8 4//8 13//8
f 5//9 10//9 13//9
f 13//10 4//10 14//10
f 7//11 13//11 14//11
f 8//12 7//12 15//12
f 11//13 8//13 15//13
f 11//14 15//14 16//14
f 6//15 3//15 16//15
f 12//16 6//16 16//16
f 7//17 14//17 16//17
f 15//18 7//18 16//18
f 3//19 6//19 17//19
f 6//20 12//20 17//20
f 12//21 9//21 17//21
f 2//22 12//22 18//22
f 12//23 16//23 18//23
f 16//24 14//24 18//24
f 2//25 4//25 19//25
f 10//26 2//26 19//26
f 4//27 10//27 19//27
f 5//28 7//28 20//28
f 8//29 5//29 20//29
f 7//30 8//30 20//30
f 8//31 11//31 21//31
f 11//32 16//32 21//32
f 16//33 3//33 21//33
f 10//34 8//34 22//34
f 9//35 10//35 22//35
f 3//36 17//36 22//36
f 17//37 9//37 22//37
f 8//38 21//38 22//38
f 21//39 3//39 22//39
f 4//40 2//40 23//40
f 14//41 4//41 23//41
f 2//42 18//42 23//42
