# Blender v2.79 (sub 0) OBJ File: ''
# www.blender.org
mtllib 1466_link_0_3.mtl
o Shape_IndexedFaceSet.003_Shape_IndexedFaceSet.18064
v 0.162119 0.663456 0.011379
v 0.040852 0.668298 0.026775
v 0.100119 0.409500 0.058627
v 0.055811 0.663456 0.073399
v 0.156297 0.668298 -0.040575
v 0.188706 0.403583 -0.029964
v 0.046944 0.486271 0.026141
v 0.049071 0.407436 0.071760
v 0.188706 0.663456 -0.035879
v 0.170986 0.415392 0.002522
v 0.100119 0.663456 0.058627
v 0.153252 0.406541 -0.035879
v 0.135531 0.403583 0.034998
v 0.046944 0.663456 0.073399
v 0.046944 0.406541 0.040902
v 0.187569 0.405643 -0.035003
v 0.055811 0.403583 0.073399
v 0.179839 0.663456 -0.015202
v 0.153252 0.651596 0.020226
v 0.055811 0.400624 0.070436
v 0.120767 0.409500 0.046807
v 0.076473 0.403583 0.067484
v 0.106016 0.654554 0.055664
v 0.188706 0.577783 -0.029964
v 0.156207 0.403583 -0.035879
v 0.179839 0.498080 -0.012250
v 0.165074 0.409500 0.008416
vn 0.6693 -0.0036 0.7430
vn 0.0311 0.9951 0.0934
vn 0.0651 0.9942 0.0854
vn 0.0424 0.9965 0.0726
vn -0.5039 -0.0096 -0.8637
vn -0.5118 -0.0141 -0.8590
vn 0.0000 0.9947 0.1033
vn -0.9917 -0.0091 0.1286
vn -0.9841 -0.0323 -0.1746
vn -0.9974 -0.0195 0.0693
vn -0.5790 -0.1484 -0.8017
vn 0.1428 -0.0040 -0.9897
vn 0.9750 -0.0051 -0.2221
vn 0.0000 0.0000 1.0000
vn -0.2407 -0.0082 0.9706
vn 0.1185 0.9898 0.0790
vn 0.1390 0.9885 0.0596
vn 0.8320 0.0099 0.5547
vn 0.7063 -0.0000 0.7079
vn 0.6003 0.1388 0.7877
vn 0.0582 -0.9972 0.0476
vn -0.7024 -0.7084 0.0690
vn -0.4993 -0.6131 0.6122
vn 0.4457 -0.4418 0.7786
vn 0.6251 0.0018 0.7806
vn 0.3508 0.0000 0.9365
vn 0.3163 0.0036 0.9487
vn 0.4106 -0.5236 0.7465
vn 0.2752 0.0000 0.9614
vn 0.1795 -0.9280 0.3264
vn 0.1983 -0.6935 0.6926
vn 0.4490 0.0000 0.8935
vn 0.6000 0.1350 0.7885
vn 0.4968 -0.0015 0.8679
vn 0.6004 0.0072 0.7997
vn 1.0000 0.0000 0.0000
vn 0.9187 0.0272 0.3940
vn -0.0177 -0.0177 -0.9997
vn -0.5054 -0.5049 -0.6998
vn 0.0712 -0.9176 -0.3912
vn 0.0291 -0.0177 -0.9994
vn 0.0043 -0.9997 -0.0237
vn -0.1356 -0.9785 -0.1553
vn 0.8767 -0.0079 0.4811
vn 0.8323 0.0099 0.5542
vn 0.8942 0.0000 0.4476
vn 0.8783 0.0085 0.4780
vn 0.8011 -0.2689 0.5347
vn 0.5423 -0.7134 0.4439
vn 0.7061 -0.0001 0.7082
usemtl Shape.18076
s off
f 19//1 13//1 27//1
f 2//2 4//2 11//2
f 1//3 5//3 11//3
f 5//4 2//4 11//4
f 2//5 5//5 12//5
f 7//6 2//6 12//6
f 4//7 2//7 14//7
f 2//8 8//8 14//8
f 2//9 7//9 15//9
f 8//10 2//10 15//10
f 7//11 12//11 15//11
f 5//12 9//12 16//12
f 9//13 6//13 16//13
f 4//14 14//14 17//14
f 14//15 8//15 17//15
f 5//16 1//16 18//16
f 9//17 5//17 18//17
f 1//18 10//18 18//18
f 10//19 1//19 19//19
f 1//20 11//20 19//20
f 6//21 13//21 20//21
f 8//22 15//22 20//22
f 17//23 8//23 20//23
f 3//24 13//24 21//24
f 13//25 19//25 21//25
f 3//26 11//26 22//26
f 11//27 4//27 22//27
f 13//28 3//28 22//28
f 4//29 17//29 22//29
f 20//30 13//30 22//30
f 17//31 20//31 22//31
f 11//32 3//32 23//32
f 19//33 11//33 23//33
f 3//34 21//34 23//34
f 21//35 19//35 23//35
f 6//36 9//36 24//36
f 9//37 18//37 24//37
f 12//38 5//38 25//38
f 15//39 12//39 25//39
f 16//40 6//40 25//40
f 5//41 16//41 25//41
f 6//42 20//42 25//42
f 20//43 15//43 25//43
f 10//44 6//44 26//44
f 18//45 10//45 26//45
f 6//46 24//46 26//46
f 24//47 18//47 26//47
f 6//48 10//48 27//48
f 13//49 6//49 27//49
f 10//50 19//50 27//50
