# Blender v2.79 (sub 0) OBJ File: ''
# www.blender.org
mtllib 1466_link_1_61.mtl
o Shape_IndexedFaceSet.061_Shape_IndexedFaceSet.10464
v -0.066318 0.386409 -0.345145
v 0.005018 0.396599 -0.268733
v -0.056123 0.396599 -0.253440
v 0.008117 0.359172 -0.337616
v 0.005018 0.401694 -0.340058
v -0.067328 0.360365 -0.325352
v -0.066318 0.381318 -0.253440
v -0.066318 0.401694 -0.329873
v -0.025566 0.360942 -0.355350
v 0.005018 0.381318 -0.268733
v 0.005018 0.391504 -0.355350
vn 0.4083 -0.4086 -0.8163
vn 0.0178 0.9973 0.0712
vn 0.9973 0.0730 0.0052
vn 0.0302 -0.9598 0.2792
vn 0.0093 0.9978 0.0653
vn -0.9995 0.0220 -0.0220
vn -0.9997 0.0252 0.0067
vn -0.8229 0.5490 0.1464
vn -0.4961 -0.5131 -0.7005
vn -0.0244 -0.9983 -0.0532
vn 0.2427 0.0000 0.9701
vn 0.9990 0.0000 0.0449
vn 0.0660 -0.9491 0.3081
vn 0.2076 -0.1385 0.9684
vn 0.9965 0.0699 -0.0466
vn -0.1500 0.6988 -0.6994
vn -0.0789 0.8296 -0.5528
vn -0.1505 0.1506 -0.9771
usemtl Shape.10474
s off
f 4//1 9//1 11//1
f 3//2 2//2 5//2
f 2//3 4//3 5//3
f 6//4 4//4 7//4
f 3//5 5//5 8//5
f 1//6 6//6 8//6
f 6//7 7//7 8//7
f 7//8 3//8 8//8
f 6//9 1//9 9//9
f 4//10 6//10 9//10
f 2//11 3//11 10//11
f 4//12 2//12 10//12
f 7//13 4//13 10//13
f 3//14 7//14 10//14
f 5//15 4//15 11//15
f 1//16 8//16 11//16
f 8//17 5//17 11//17
f 9//18 1//18 11//18
