# Blender v2.79 (sub 0) OBJ File: ''
# www.blender.org
mtllib 1466_link_1_19.mtl
o Shape_IndexedFaceSet.019_Shape_IndexedFaceSet.10422
v 0.104680 0.024469 0.811036
v -0.071407 0.019534 0.765658
v -0.063537 0.023787 0.768188
v -0.099855 0.009505 0.811042
v 0.086545 0.009346 0.780952
v -0.103042 0.024341 0.810652
v 0.064360 0.023891 0.767874
v 0.100728 0.009789 0.810189
v -0.053150 0.010353 0.768680
vn 0.0649 -0.6106 -0.7893
vn -0.3582 0.8678 -0.3445
vn -0.8127 -0.1891 -0.5512
vn -0.0019 0.0259 0.9997
vn -0.0025 0.5147 -0.8574
vn 0.6526 0.4419 -0.6155
vn -0.0006 0.9999 -0.0128
vn -0.0008 0.9999 -0.0138
vn 0.0043 -0.0588 0.9983
vn 0.8804 -0.2126 -0.4239
vn 0.0015 -0.9999 0.0144
vn -0.3552 -0.8408 -0.4085
vn -0.0050 -0.9997 -0.0255
vn 0.0243 -0.2686 -0.9630
usemtl Shape.10432
s off
f 7//1 5//1 9//1
f 3//2 2//2 6//2
f 2//3 4//3 6//3
f 4//4 1//4 6//4
f 2//5 3//5 7//5
f 1//6 5//6 7//6
f 6//7 1//7 7//7
f 3//8 6//8 7//8
f 1//9 4//9 8//9
f 5//10 1//10 8//10
f 4//11 5//11 8//11
f 4//12 2//12 9//12
f 5//13 4//13 9//13
f 2//14 7//14 9//14
