# Blender v2.79 (sub 0) OBJ File: ''
# www.blender.org
mtllib 1466_link_1_83.mtl
o Shape_IndexedFaceSet.083_Shape_IndexedFaceSet.10486
v 0.120617 0.129639 0.082063
v 0.061075 0.055204 0.057388
v 0.058333 0.051777 0.084230
v 0.112017 0.055204 0.052289
v 0.108339 0.135184 0.050867
v 0.106918 0.070503 0.082859
vn 0.9404 -0.2143 0.2641
vn -0.0128 -0.9917 -0.1279
vn 0.9321 0.0365 -0.3604
vn -0.7154 0.5830 0.3852
vn -0.8615 0.5072 -0.0232
vn -0.0996 -0.0223 -0.9948
vn 0.0253 0.0076 0.9997
vn 0.3296 -0.8211 0.4659
usemtl Shape.10496
s off
f 4//1 1//1 6//1
f 3//2 2//2 4//2
f 1//3 4//3 5//3
f 3//4 1//4 5//4
f 2//5 3//5 5//5
f 4//6 2//6 5//6
f 1//7 3//7 6//7
f 3//8 4//8 6//8
