# Blender v2.79 (sub 0) OBJ File: ''
# www.blender.org
mtllib 1466_link_0_22.mtl
o Shape_IndexedFaceSet.022_Shape_IndexedFaceSet.18083
v -0.050529 0.654587 -0.213086
v -0.074152 0.480346 -0.195369
v -0.062230 0.480672 -0.201163
v -0.062336 0.654587 -0.183555
v -0.044617 0.483321 -0.198320
v -0.071197 0.657527 -0.204223
v -0.053478 0.489236 -0.213086
v -0.074152 0.480346 -0.183555
v -0.043360 0.668298 -0.201520
v -0.075409 0.668298 -0.185503
v -0.044617 0.483321 -0.213086
v -0.065291 0.486261 -0.210129
v -0.062336 0.483321 -0.183555
v -0.065794 0.668298 -0.207929
v -0.044617 0.654587 -0.213086
v -0.065291 0.651630 -0.210129
v -0.074152 0.483321 -0.198320
v -0.044617 0.657527 -0.198320
vn 0.6167 0.1572 0.7714
vn 0.0273 -0.9996 0.0000
vn 0.1366 -0.9878 0.0742
vn -1.0000 -0.0067 0.0000
vn -0.1378 0.0093 0.9904
vn 0.3912 0.4842 0.7827
vn 0.1487 -0.9889 0.0000
vn 0.0000 0.0000 -1.0000
vn 1.0000 -0.0068 0.0000
vn -0.2034 -0.8605 -0.4670
vn -0.1899 -0.8610 -0.4719
vn -0.1727 -0.2588 -0.9504
vn 0.6402 0.0000 0.7682
vn 0.0000 0.0000 1.0000
vn 0.2343 -0.9306 0.2812
vn -0.8740 0.3095 -0.3747
vn 0.0000 1.0000 0.0000
vn 0.9941 0.0000 -0.1080
vn 0.0000 0.3520 -0.9360
vn 0.2160 0.6179 -0.7560
vn -0.1971 0.0035 -0.9804
vn -0.7071 -0.0000 -0.7071
vn -0.2428 0.0000 -0.9701
vn -0.2183 0.1212 -0.9683
vn -0.6649 0.0780 -0.7428
vn -0.9745 0.0089 -0.2244
vn -1.0000 -0.0064 -0.0064
vn -0.5803 -0.5735 -0.5782
vn -0.7990 -0.0068 -0.6013
vn 0.9308 0.0000 0.3656
usemtl Shape.18095
s off
f 9//1 4//1 18//1
f 2//2 3//2 8//2
f 3//3 5//3 8//3
f 2//4 8//4 10//4
f 8//5 4//5 10//5
f 4//6 9//6 10//6
f 5//7 3//7 11//7
f 7//8 1//8 11//8
f 9//9 5//9 11//9
f 3//10 2//10 12//10
f 11//11 3//11 12//11
f 7//12 11//12 12//12
f 5//13 4//13 13//13
f 4//14 8//14 13//14
f 8//15 5//15 13//15
f 6//16 10//16 14//16
f 10//17 9//17 14//17
f 11//8 1//8 15//8
f 9//18 11//18 15//18
f 1//19 14//19 15//19
f 14//20 9//20 15//20
f 1//21 7//21 16//21
f 12//22 6//22 16//22
f 7//23 12//23 16//23
f 14//24 1//24 16//24
f 6//25 14//25 16//25
f 10//26 6//26 17//26
f 2//27 10//27 17//27
f 12//28 2//28 17//28
f 6//29 12//29 17//29
f 4//13 5//13 18//13
f 5//30 9//30 18//30
